<svg xmlns="http://www.w3.org/2000/svg" width="58" height="58" version="1.2" viewBox="0 0 43.5 43.5"><defs><clipPath id="c"><path d="M0 0h42.309v42.309H0Zm0 0"/></clipPath><clipPath id="d"><path d="M21.152 0C9.47 0 0 9.469 0 21.152 0 32.836 9.469 42.31 21.152 42.31c11.684 0 21.157-9.473 21.157-21.157C42.309 9.47 32.836 0 21.152 0Zm0 0"/></clipPath><clipPath id="b"><path d="M0 0h43v43H0z"/></clipPath><clipPath id="f"><path d="M30 28h2v2.79h-2Zm0 0"/></clipPath><clipPath id="g"><path d="M9.879 11.637H29v19.152H9.879Zm0 0"/></clipPath><clipPath id="h"><path d="M29 28h3.223v2.79H29Zm0 0"/></clipPath><filter id="e" width="100%" height="100%" x="0%" y="0%" filterUnits="objectBoundingBox"><feColorMatrix in="SourceGraphic" values="0 0 0 0 1 0 0 0 0 1 0 0 0 0 1 0 0 0 1 0"/></filter></defs><g mask="url(#a)"><g clip-path="url(#b)"><g clip-path="url(#c)"><g clip-path="url(#d)"><path d="M0 0h42.309v42.309H0Zm0 0" style="stroke:none;fill-rule:nonzero;fill:#7a7f83;fill-opacity:1"/></g></g></g><mask id="a"><g filter="url(#e)"><path d="M0 0h43.5v43.5H0z" style="fill:#000;fill-opacity:.41;stroke:none"/></g></mask></g><g clip-path="url(#f)"><path d="M31.027 29.55a.331.331 0 0 0 .254-.109.344.344 0 0 0 .098-.261c0-.266-.16-.39-.48-.39h-.52v1.382h.195v-.602h.242l.004.004.371.598h.211L31 29.555Zm-.226-.136h-.227v-.469h.29c.148 0 .316.024.316.223 0 .227-.172.246-.38.246" style="stroke:none;fill-rule:nonzero;fill:#fff;fill-opacity:1"/></g><g clip-path="url(#g)"><path d="M25.93 27.82h-2.774v-4.406c0-1.05-.02-2.406-1.441-2.406-1.445 0-1.664 1.144-1.664 2.328v4.484h-2.774v-9.062h2.66v1.238h.04c.27-.473.64-.84 1.113-1.101a2.851 2.851 0 0 1 1.512-.364c2.808 0 3.328 1.875 3.328 4.317ZM14.148 17.516a1.576 1.576 0 0 1-1.136-.477 1.567 1.567 0 0 1-.348-.531 1.623 1.623 0 0 1 0-1.25c.082-.2.195-.375.348-.528.152-.156.324-.273.523-.355a1.58 1.58 0 0 1 1.75.355 1.6 1.6 0 0 1 .473 1.153 1.637 1.637 0 0 1-.992 1.512 1.6 1.6 0 0 1-.618.12m1.387 10.305h-2.773v-9.062h2.773ZM27.31 11.637H11.367c-.18 0-.355.031-.523.101a1.38 1.38 0 0 0-.855 1.27v16.25a1.375 1.375 0 0 0 .41.976 1.34 1.34 0 0 0 .969.395h15.94a1.345 1.345 0 0 0 .973-.395 1.375 1.375 0 0 0 .414-.977V13.005c0-.184-.039-.36-.11-.527a1.366 1.366 0 0 0-1.276-.84" style="stroke:none;fill-rule:nonzero;fill:#fff;fill-opacity:1"/></g><g clip-path="url(#h)"><path d="M30.824 28.172a1.365 1.365 0 0 0-.633.18 1.358 1.358 0 0 0-.261.207 1.336 1.336 0 0 0-.328.582 1.386 1.386 0 0 0 .003.668 1.5 1.5 0 0 0 .13.312c.054.098.124.188.203.266.078.082.167.148.265.203.094.058.2.101.305.129a1.19 1.19 0 0 0 .66 0c.105-.028.207-.07.305-.13.097-.054.187-.12.265-.202a1.337 1.337 0 0 0 .333-.578 1.358 1.358 0 0 0 0-.668 1.336 1.336 0 0 0-.324-.582 1.358 1.358 0 0 0-.263-.207 1.365 1.365 0 0 0-.633-.18h-.027m0 2.445a1.122 1.122 0 0 1-.797-.32 1.15 1.15 0 0 1-.261-1.235c.054-.14.132-.261.238-.37a1.113 1.113 0 0 1 .785-.348 1.122 1.122 0 0 1 .797.32 1.15 1.15 0 0 1 .34.797v.02a1.125 1.125 0 0 1-.305.792 1.085 1.085 0 0 1-.766.344h-.03" style="stroke:none;fill-rule:nonzero;fill:#fff;fill-opacity:1"/></g></svg>