<svg xmlns="http://www.w3.org/2000/svg" width="500" height="500" version="1.2" viewBox="0 0 375 375"><path d="M187.5 0c103.55 0 187.496 83.95 187.496 187.5 0 103.555-83.945 187.5-187.496 187.5C83.945 375 0 291.055 0 187.5 0 83.95 83.945 0 187.5 0Zm0 0" style="stroke:none;fill-rule:evenodd;fill:#fff;fill-opacity:1"/><path d="M144.453 148.074c7.524-5.656 3.824-2.89 11.352-8.543 6.597-4.945 4.808-9.851-.836-17.699-11.555-16.031-15.461-21.875-26.95-37.96-6.828-9.567-15.753-2.106-18.113.3-60.504 61.8-21.578 109.473 27.016 158.066 46.246 46.246 94.148 81.551 154.004 22.953 2.406-2.355 9.867-11.285.3-18.113-16.085-11.484-21.925-15.394-37.964-26.95-7.84-5.648-12.746-7.433-17.696-.839-5.652 7.531-2.882 3.832-8.543 11.356-7.73 10.402-21.847 22.902-61.07-17.196-45.394-46.406-32.34-57.316-21.5-65.375Zm0 0" style="stroke:none;fill-rule:evenodd;fill:#8c52ff;fill-opacity:1"/></svg>