<svg xmlns="http://www.w3.org/2000/svg" width="58" height="58" version="1.2" viewBox="0 0 43.5 43.5"><defs><clipPath id="c"><path d="M0 0h42.309v42.309H0Zm0 0"/></clipPath><clipPath id="d"><path d="M21.152 0C9.47 0 0 9.469 0 21.152 0 32.836 9.469 42.31 21.152 42.31c11.684 0 21.157-9.473 21.157-21.157C42.309 9.47 32.836 0 21.152 0Zm0 0"/></clipPath><clipPath id="b"><path d="M0 0h43v43H0z"/></clipPath><clipPath id="f"><path d="M9.723 9.723h22.98v22.98H9.723Zm0 0"/></clipPath><filter id="e" width="100%" height="100%" x="0%" y="0%" filterUnits="objectBoundingBox"><feColorMatrix in="SourceGraphic" values="0 0 0 0 1 0 0 0 0 1 0 0 0 0 1 0 0 0 1 0"/></filter></defs><g mask="url(#a)"><g clip-path="url(#b)"><g clip-path="url(#c)"><g clip-path="url(#d)"><path d="M0 0h42.309v42.309H0Zm0 0" style="stroke:none;fill-rule:nonzero;fill:#7a7f83;fill-opacity:1"/></g></g></g><mask id="a"><g filter="url(#e)"><path d="M0 0h43.5v43.5H0z" style="fill:#000;fill-opacity:.41;stroke:none"/></g></mask></g><g clip-path="url(#f)"><path d="M32.703 21.21c0-6.343-5.144-11.487-11.492-11.487-6.344 0-11.488 5.144-11.488 11.488 0 5.738 4.203 10.492 9.695 11.352v-8.028H16.5v-3.324h2.918V18.68c0-2.88 1.715-4.47 4.34-4.47 1.258 0 2.57.224 2.57.224v2.828h-1.45c-1.425 0-1.87.886-1.87 1.797v2.152h3.187l-.508 3.324h-2.68v8.027c5.493-.859 9.696-5.613 9.696-11.351" style="stroke:none;fill-rule:nonzero;fill:#fff;fill-opacity:1"/></g></svg>