<svg xmlns="http://www.w3.org/2000/svg" width="500" height="500" version="1.2" viewBox="0 0 375 375"><path d="M375 187.5c0 3.07-.074 6.137-.227 9.2a184.86 184.86 0 0 1-.675 9.179 182.984 182.984 0 0 1-1.13 9.133 187.02 187.02 0 0 1-1.57 9.066 189.928 189.928 0 0 1-4.472 17.852 187.336 187.336 0 0 1-14.067 33.957 185.587 185.587 0 0 1-4.535 8.008 187.46 187.46 0 0 1-10.223 15.3 188.705 188.705 0 0 1-11.672 14.223 185.854 185.854 0 0 1-6.347 6.664 185.854 185.854 0 0 1-13.633 12.356 184.39 184.39 0 0 1-7.254 5.664 187.46 187.46 0 0 1-39.941 22.625 187.336 187.336 0 0 1-44.242 12.242 185.262 185.262 0 0 1-18.313 1.804 184.32 184.32 0 0 1-9.199.227c-3.07 0-6.137-.074-9.2-.227a184.86 184.86 0 0 1-9.179-.675 182.984 182.984 0 0 1-9.133-1.13 187.02 187.02 0 0 1-9.066-1.57 189.928 189.928 0 0 1-17.852-4.472 187.336 187.336 0 0 1-33.957-14.067 185.587 185.587 0 0 1-8.008-4.535 187.46 187.46 0 0 1-15.3-10.223 188.705 188.705 0 0 1-14.223-11.672 185.854 185.854 0 0 1-6.664-6.347 185.854 185.854 0 0 1-12.36-13.633 188.074 188.074 0 0 1-10.96-14.781 188.78 188.78 0 0 1-4.922-7.773 185.522 185.522 0 0 1-4.535-8.008 181.548 181.548 0 0 1-4.137-8.219 185.429 185.429 0 0 1-3.73-8.414 187.336 187.336 0 0 1-12.242-44.242 183.815 183.815 0 0 1-1.13-9.133 184.86 184.86 0 0 1-.675-9.18A185.128 185.128 0 0 1 0 187.5c0-3.07.074-6.137.227-9.2a185.311 185.311 0 0 1 1.805-18.312c.448-3.035.972-6.058 1.57-9.066a189.928 189.928 0 0 1 4.472-17.852 187.336 187.336 0 0 1 14.067-33.957 185.587 185.587 0 0 1 4.535-8.008A187.46 187.46 0 0 1 48.57 61.582a185.854 185.854 0 0 1 6.347-6.664 185.854 185.854 0 0 1 13.633-12.36 188.074 188.074 0 0 1 14.781-10.96 188.78 188.78 0 0 1 7.773-4.922 185.522 185.522 0 0 1 8.008-4.535 181.548 181.548 0 0 1 8.219-4.137 183.522 183.522 0 0 1 8.414-3.73 187.336 187.336 0 0 1 44.242-12.242A184.86 184.86 0 0 1 178.301.226 185.53 185.53 0 0 1 187.5 0c3.07 0 6.137.074 9.2.227a185.311 185.311 0 0 1 18.312 1.805c3.035.448 6.058.972 9.066 1.57 3.012.601 6.004 1.273 8.98 2.015a188.683 188.683 0 0 1 17.61 5.344 188.886 188.886 0 0 1 8.586 3.312 185.429 185.429 0 0 1 8.414 3.73 181.548 181.548 0 0 1 8.219 4.138 185.587 185.587 0 0 1 8.008 4.535 187.46 187.46 0 0 1 29.523 21.895 185.854 185.854 0 0 1 6.664 6.347 185.854 185.854 0 0 1 12.356 13.633 184.39 184.39 0 0 1 5.664 7.254 187.46 187.46 0 0 1 22.625 39.941 187.336 187.336 0 0 1 12.242 44.242 185.262 185.262 0 0 1 1.804 18.313c.153 3.062.227 6.129.227 9.199Zm0 0" style="stroke:none;fill-rule:nonzero;fill:#fff;fill-opacity:1"/><path d="M256.32 180.563c5.192-10.36 8.114-22.043 8.114-34.41 0-42.489-34.438-76.934-76.934-76.934-42.496 0-76.934 34.437-76.934 76.933 0 12.563 3.012 24.422 8.356 34.899l.012.027a79.65 79.65 0 0 0 2.207 4.008L187.5 305.773l65.977-120.043a77.836 77.836 0 0 0 2.843-5.167Zm-68.82-68.82c19.004 0 34.41 15.405 34.41 34.41 0 19.003-15.406 34.41-34.41 34.41-19.004 0-34.41-15.407-34.41-34.41 0-18.997 15.406-34.41 34.41-34.41Zm0 0" style="stroke:none;fill-rule:nonzero;fill:#8c52ff;fill-opacity:1"/></svg>