<svg xmlns="http://www.w3.org/2000/svg" width="58" height="58" version="1.2" viewBox="0 0 43.5 43.5"><defs><clipPath id="c"><path d="M0 0h42.309v42.309H0Zm0 0"/></clipPath><clipPath id="d"><path d="M21.152 0C9.47 0 0 9.469 0 21.152 0 32.836 9.469 42.31 21.152 42.31c11.684 0 21.157-9.473 21.157-21.157C42.309 9.47 32.836 0 21.152 0Zm0 0"/></clipPath><clipPath id="b"><path d="M0 0h43v43H0z"/></clipPath><clipPath id="f"><path d="M11.34 12.285h19.277v17.797H11.34Zm0 0"/></clipPath><filter id="e" width="100%" height="100%" x="0%" y="0%" filterUnits="objectBoundingBox"><feColorMatrix in="SourceGraphic" values="0 0 0 0 1 0 0 0 0 1 0 0 0 0 1 0 0 0 1 0"/></filter></defs><g mask="url(#a)"><g clip-path="url(#b)"><g clip-path="url(#c)"><g clip-path="url(#d)"><path d="M0 0h42.309v42.309H0Zm0 0" style="stroke:none;fill-rule:nonzero;fill:#7a7f83;fill-opacity:1"/></g></g></g><mask id="a"><g filter="url(#e)"><path d="M0 0h43.5v43.5H0z" style="fill:#000;fill-opacity:.41;stroke:none"/></g></mask></g><g clip-path="url(#f)"><path d="M26.512 12.285h2.941l-6.422 7.555 7.582 10.242h-5.957l-4.644-6.21-5.34 6.21H11.73l6.887-8.066-7.273-9.73h6.113l4.219 5.694Zm-1.043 15.977h1.625L16.566 13.984H14.79Zm0 0" style="stroke:none;fill-rule:nonzero;fill:#fff;fill-opacity:1"/></g></svg>