<svg xmlns="http://www.w3.org/2000/svg" width="500" height="500" version="1.2" viewBox="0 0 375 375"><path d="M352.633 194.07a170.197 170.197 0 0 1-1.848 25.047 169.464 169.464 0 0 1-3.265 16.426 169.042 169.042 0 0 1-4.864 16.027 170.631 170.631 0 0 1-6.41 15.477 167.315 167.315 0 0 1-3.766 7.48 167.095 167.095 0 0 1-4.128 7.29 169.993 169.993 0 0 1-9.305 13.926 172.013 172.013 0 0 1-5.152 6.605 172.59 172.59 0 0 1-5.473 6.343c-1.875 2.07-3.8 4.09-5.777 6.067a169.293 169.293 0 0 1-12.41 11.246 171.165 171.165 0 0 1-13.453 9.98 175.475 175.475 0 0 1-7.079 4.48 167.094 167.094 0 0 1-7.289 4.13 167.314 167.314 0 0 1-7.48 3.765 170.631 170.631 0 0 1-98.02 14.54c-2.762-.41-5.512-.887-8.254-1.43a172.5 172.5 0 0 1-8.172-1.836c-2.71-.68-5.402-1.426-8.074-2.235a170.631 170.631 0 0 1-30.91-12.805 167.094 167.094 0 0 1-7.29-4.128 175.474 175.474 0 0 1-7.077-4.48 174.03 174.03 0 0 1-6.848-4.825 168.3 168.3 0 0 1-6.605-5.156 168.804 168.804 0 0 1-12.41-11.246 169.293 169.293 0 0 1-11.247-12.41 168.3 168.3 0 0 1-5.156-6.606 174.03 174.03 0 0 1-4.824-6.847 175.474 175.474 0 0 1-4.48-7.079 167.094 167.094 0 0 1-4.13-7.289 169.443 169.443 0 0 1-7.16-15.14 170.631 170.631 0 0 1-11.144-90.36c.41-2.761.887-5.511 1.43-8.254.546-2.738 1.156-5.46 1.835-8.171a173.71 173.71 0 0 1 2.235-8.075 170.631 170.631 0 0 1 9.04-23.43 166.472 166.472 0 0 1 3.764-7.48 167.094 167.094 0 0 1 4.13-7.289 175.475 175.475 0 0 1 4.48-7.078 171.165 171.165 0 0 1 15.45-19.797c1.874-2.07 3.8-4.09 5.776-6.066a169.293 169.293 0 0 1 6.067-5.778 172.59 172.59 0 0 1 6.344-5.472 172.013 172.013 0 0 1 13.453-9.977 171.236 171.236 0 0 1 21.847-12.375 170.631 170.631 0 0 1 98.02-14.54 169.464 169.464 0 0 1 16.426 3.267 169.041 169.041 0 0 1 16.027 4.863 170.631 170.631 0 0 1 15.477 6.41c2.523 1.192 5.02 2.45 7.48 3.766a171.236 171.236 0 0 1 14.367 8.61 172.012 172.012 0 0 1 13.453 9.977 169.576 169.576 0 0 1 12.411 11.249 169.293 169.293 0 0 1 5.777 6.066 172.59 172.59 0 0 1 5.473 6.344 172.012 172.012 0 0 1 9.976 13.453 175.475 175.475 0 0 1 4.48 7.078 167.095 167.095 0 0 1 4.13 7.29 167.314 167.314 0 0 1 3.765 7.48 170.631 170.631 0 0 1 16.387 72.973Zm0 0" style="stroke:none;fill-rule:nonzero;fill:#fff;fill-opacity:1"/><path d="M181.96 368.793a172.89 172.89 0 0 1-21.293-1.336 171.325 171.325 0 0 1-10.542-1.64 174.314 174.314 0 0 1-30.758-8.742 176.17 176.17 0 0 1-9.828-4.153 173.897 173.897 0 0 1-9.559-4.746 173.346 173.346 0 0 1-18.156-11.2 172.405 172.405 0 0 1-8.531-6.413 173.307 173.307 0 0 1-8.121-6.922 173.802 173.802 0 0 1-14.895-15.27 172.928 172.928 0 0 1-6.722-8.289 175.991 175.991 0 0 1-6.196-8.687 173.389 173.389 0 0 1-10.746-18.43A173.73 173.73 0 0 1 14.91 243.21a173.846 173.846 0 0 1-6.066-31.395 173.472 173.472 0 0 1-.805-21.316 173.34 173.34 0 0 1 1.809-21.258 174.274 174.274 0 0 1 4.39-20.875c.946-3.43 1.992-6.832 3.149-10.195a175.634 175.634 0 0 1 3.761-9.988 176.47 176.47 0 0 1 4.372-9.735 172.169 172.169 0 0 1 4.957-9.449c1.75-3.102 3.59-6.145 5.527-9.129 1.934-2.988 3.96-5.91 6.074-8.773A173.644 173.644 0 0 1 63.36 67.23a173.544 173.544 0 0 1 16.457-13.567 172.709 172.709 0 0 1 8.825-6.004 172.229 172.229 0 0 1 9.171-5.453 173.927 173.927 0 0 1 9.493-4.879 174.995 174.995 0 0 1 9.77-4.293 175.529 175.529 0 0 1 20.237-6.746 175.707 175.707 0 0 1 20.91-4.223 175.783 175.783 0 0 1 21.274-1.632c3.559-.055 7.113 0 10.668.164a173.138 173.138 0 0 1 21.211 2.28 174.258 174.258 0 0 1 40.797 12.215 173.801 173.801 0 0 1 9.637 4.587 173.659 173.659 0 0 1 9.336 5.164c3.058 1.82 6.058 3.73 9.003 5.73A173.527 173.527 0 0 1 297.02 63.63a176.172 176.172 0 0 1 7.804 7.277 176.163 176.163 0 0 1 7.344 7.742 175.764 175.764 0 0 1 6.855 8.18 174.288 174.288 0 0 1 22.063 36.426 176.189 176.189 0 0 1 4.07 9.863 173.63 173.63 0 0 1 3.461 10.094 177.332 177.332 0 0 1 2.832 10.289 172.64 172.64 0 0 1 2.2 10.441 171.862 171.862 0 0 1 1.554 10.559c.414 3.535.715 7.078.906 10.633.196 3.554.282 7.11.254 10.668a173.464 173.464 0 0 1-1.453 21.285 171.852 171.852 0 0 1-1.7 10.535 176.392 176.392 0 0 1-2.343 10.41 172.531 172.531 0 0 1-2.976 10.246 169.806 169.806 0 0 1-3.598 10.047 174.993 174.993 0 0 1-4.203 9.809 173.896 173.896 0 0 1-4.8 9.531 173.275 173.275 0 0 1-11.302 18.094 172.313 172.313 0 0 1-6.46 8.492 171.352 171.352 0 0 1-6.97 8.082 171.828 171.828 0 0 1-7.449 7.64 173.679 173.679 0 0 1-16.23 13.844 174.382 174.382 0 0 1-27.21 16.793 173.728 173.728 0 0 1-9.7 4.45 173.08 173.08 0 0 1-33.313 10.3 173.631 173.631 0 0 1-34.695 3.434Zm0-341.352c-91.882 0-166.632 74.75-166.632 166.63 0 91.882 74.75 166.632 166.633 166.632 91.879 0 166.629-74.75 166.629-166.633 0-91.879-74.75-166.629-166.63-166.629Zm0 0" style="stroke:none;fill-rule:nonzero;fill:#fff;fill-opacity:1"/><path d="M93.621 117.836h176.676c.605 0 1.207.027 1.808.086a19.75 19.75 0 0 1 1.79.266 18.377 18.377 0 0 1 6.645 2.754c.503.335.987.695 1.452 1.078.469.382.914.789 1.34 1.214.43.426.832.871 1.215 1.34a18.289 18.289 0 0 1 2.781 4.64 18.792 18.792 0 0 1 1.05 3.458c.118.594.208 1.187.267 1.789.058.601.085 1.203.085 1.809v115.605c0 .605-.027 1.207-.085 1.809a18.46 18.46 0 0 1-.707 3.543 18.792 18.792 0 0 1-.61 1.703 18.289 18.289 0 0 1-2.781 4.64c-.383.465-.785.914-1.215 1.34-.426.426-.871.832-1.34 1.215a18.289 18.289 0 0 1-4.64 2.781 18.54 18.54 0 0 1-3.457 1.051 19.75 19.75 0 0 1-1.79.266 18.8 18.8 0 0 1-1.808.086H93.62a18.8 18.8 0 0 1-1.808-.086 19.75 19.75 0 0 1-1.79-.266 18.792 18.792 0 0 1-3.457-1.05 18.289 18.289 0 0 1-4.64-2.781 18.787 18.787 0 0 1-2.555-2.555 18.289 18.289 0 0 1-2.781-4.64 18.792 18.792 0 0 1-1.05-3.458 18.46 18.46 0 0 1-.267-1.79 18.623 18.623 0 0 1-.085-1.808V136.27c0-.606.027-1.208.085-1.81a18.46 18.46 0 0 1 .707-3.542c.176-.578.38-1.145.61-1.703a18.289 18.289 0 0 1 2.781-4.64 18.605 18.605 0 0 1 2.555-2.555 18.289 18.289 0 0 1 4.64-2.781 18.793 18.793 0 0 1 3.457-1.052 19.75 19.75 0 0 1 1.79-.265 18.623 18.623 0 0 1 1.808-.086Zm0 0" style="stroke:none;fill-rule:nonzero;fill:#8c52ff;fill-opacity:1"/><path d="M270.297 274.355H93.62a22.984 22.984 0 0 1-4.383-.437 22.278 22.278 0 0 1-2.14-.54 22.169 22.169 0 0 1-4.07-1.688 22.602 22.602 0 0 1-1.891-1.131c-.61-.41-1.2-.848-1.77-1.317a20.904 20.904 0 0 1-1.633-1.48 21.765 21.765 0 0 1-1.484-1.633c-.465-.57-.902-1.16-1.313-1.77a22.602 22.602 0 0 1-3.359-8.101 21.395 21.395 0 0 1-.324-2.18 21.782 21.782 0 0 1-.113-2.203V136.27c0-.739.039-1.473.113-2.204a22.278 22.278 0 0 1 .863-4.32c.211-.703.461-1.394.742-2.074a22.685 22.685 0 0 1 2.079-3.887c.41-.61.847-1.2 1.312-1.77.469-.57.96-1.113 1.484-1.632a20.904 20.904 0 0 1 1.633-1.48c.57-.47 1.16-.907 1.77-1.317a22.602 22.602 0 0 1 8.101-3.36 21.395 21.395 0 0 1 2.18-.324 21.84 21.84 0 0 1 2.203-.113h176.676c.738 0 1.473.04 2.203.113a22.323 22.323 0 0 1 4.32.864 22.314 22.314 0 0 1 7.73 4.136c.571.465 1.114.957 1.634 1.48.523.52 1.015 1.063 1.484 1.634.465.57.902 1.16 1.312 1.77a22.685 22.685 0 0 1 2.824 5.96 22.733 22.733 0 0 1 .864 4.32c.07.73.11 1.465.11 2.204v115.605c0 .738-.04 1.473-.11 2.203a22.686 22.686 0 0 1-.328 2.18 23.479 23.479 0 0 1-.535 2.14 23.014 23.014 0 0 1-1.692 4.07 21.594 21.594 0 0 1-1.133 1.891 22.068 22.068 0 0 1-2.796 3.403 20.904 20.904 0 0 1-1.633 1.48 22.329 22.329 0 0 1-7.73 4.137c-.704.215-1.419.394-2.137.539a22.984 22.984 0 0 1-4.387.438ZM93.62 121.88c-.945 0-1.883.094-2.808.277-.926.188-1.825.461-2.696.824-.875.36-1.703.805-2.488 1.329a14.515 14.515 0 0 0-2.18 1.789 14.28 14.28 0 0 0-3.117 4.668c-.363.87-.637 1.77-.824 2.695a14.415 14.415 0 0 0-.278 2.809v115.605c0 .945.094 1.883.278 2.809.187.925.46 1.824.824 2.695a14.28 14.28 0 0 0 3.117 4.668 14.515 14.515 0 0 0 2.18 1.789c.785.523 1.613.969 2.488 1.328.871.363 1.77.637 2.695.82.926.188 1.864.282 2.81.282h176.675c.945 0 1.883-.094 2.808-.282a14.122 14.122 0 0 0 2.696-.82c.875-.36 1.703-.805 2.488-1.328a14.515 14.515 0 0 0 2.18-1.79 14.497 14.497 0 0 0 3.121-4.668c.36-.87.633-1.769.82-2.694.184-.93.277-1.864.277-2.809V136.27c0-.946-.093-1.883-.277-2.81a14.704 14.704 0 0 0-.82-2.694 14.497 14.497 0 0 0-3.121-4.668 14.28 14.28 0 0 0-4.668-3.118 14.419 14.419 0 0 0-2.696-.824 14.415 14.415 0 0 0-2.808-.277Zm0 0" style="stroke:none;fill-rule:nonzero;fill:#fff;fill-opacity:1"/><path d="M181.86 117.836h94.808c8.617 0 12.887 10.531 6.73 16.602l-42.351 41.75-52.461 51.722a9.746 9.746 0 0 1-1.445 1.176 9.593 9.593 0 0 1-1.645.871 9.783 9.783 0 0 1-1.785.535 9.478 9.478 0 0 1-3.707 0 9.593 9.593 0 0 1-3.426-1.406 9.55 9.55 0 0 1-1.445-1.176l-52.465-51.722-42.348-41.75c-6.16-6.07-1.89-16.602 6.727-16.602Zm0 0" style="stroke:none;fill-rule:nonzero;fill:#8c52ff;fill-opacity:1"/><path d="M181.86 234.691a13.577 13.577 0 0 1-9.57-3.902l-94.81-93.473a13.493 13.493 0 0 1-2.43-3.222 13.68 13.68 0 0 1-1.616-7.82c.125-1.356.445-2.66.957-3.922a13.676 13.676 0 0 1 5.027-6.204 13.66 13.66 0 0 1 3.64-1.746 13.662 13.662 0 0 1 3.989-.613h189.621a13.693 13.693 0 0 1 7.629 2.36 13.629 13.629 0 0 1 2.976 2.726 13.72 13.72 0 0 1 3.008 7.398 13.69 13.69 0 0 1-.226 4.032 13.702 13.702 0 0 1-3.816 7.012l-94.813 93.472a13.5 13.5 0 0 1-4.399 2.895 13.474 13.474 0 0 1-5.168 1.007ZM87.046 121.88a5.604 5.604 0 0 0-1.629.23 5.488 5.488 0 0 0-2.695 1.824 5.329 5.329 0 0 0-.82 1.422 5.572 5.572 0 0 0-.34 3.297 5.53 5.53 0 0 0 .578 1.575c.27.496.609.941 1.015 1.332l94.813 93.472c.258.254.535.485.836.684.297.203.613.37.949.512a5.515 5.515 0 0 0 3.176.312 5.454 5.454 0 0 0 1.984-.824c.3-.2.578-.43.832-.684l94.813-93.472a5.563 5.563 0 0 0 1.675-4.579 5.445 5.445 0 0 0-.418-1.625 5.45 5.45 0 0 0-.824-1.421 5.384 5.384 0 0 0-1.207-1.118 5.573 5.573 0 0 0-1.484-.707 5.604 5.604 0 0 0-1.63-.23Zm0 0" style="stroke:none;fill-rule:nonzero;fill:#fff;fill-opacity:1"/></svg>