<svg xmlns="http://www.w3.org/2000/svg" width="58" height="58" version="1.2" viewBox="0 0 43.5 43.5"><defs><clipPath id="c"><path d="M0 0h42.309v42.309H0Zm0 0"/></clipPath><clipPath id="d"><path d="M21.152 0C9.47 0 0 9.469 0 21.152 0 32.836 9.469 42.31 21.152 42.31c11.684 0 21.157-9.473 21.157-21.157C42.309 9.47 32.836 0 21.152 0Zm0 0"/></clipPath><clipPath id="b"><path d="M0 0h43v43H0z"/></clipPath><clipPath id="f"><path d="M9.926 9.926H32.27V32.27H9.926Zm0 0"/></clipPath><filter id="e" width="100%" height="100%" x="0%" y="0%" filterUnits="objectBoundingBox"><feColorMatrix in="SourceGraphic" values="0 0 0 0 1 0 0 0 0 1 0 0 0 0 1 0 0 0 1 0"/></filter></defs><g mask="url(#a)"><g clip-path="url(#b)"><g clip-path="url(#c)"><g clip-path="url(#d)"><path d="M0 0h42.309v42.309H0Zm0 0" style="stroke:none;fill-rule:nonzero;fill:#7a7f83;fill-opacity:1"/></g></g></g><mask id="a"><g filter="url(#e)"><path d="M0 0h43.5v43.5H0z" style="fill:#000;fill-opacity:.41;stroke:none"/></g></mask></g><g clip-path="url(#f)"><path d="M16.473 10.004c-1.188.059-2 .246-2.711.527a5.468 5.468 0 0 0-1.977 1.29 5.54 5.54 0 0 0-1.285 1.98c-.273.71-.46 1.523-.512 2.715-.054 1.187-.066 1.57-.058 4.605.004 3.035.02 3.414.074 4.606.059 1.187.246 2 .527 2.71a5.428 5.428 0 0 0 1.293 1.977c.621.617 1.242 1 1.98 1.285.712.274 1.524.461 2.712.512 1.191.05 1.574.062 4.605.059 3.031-.004 3.414-.02 4.606-.075 1.191-.058 2-.25 2.71-.527a5.468 5.468 0 0 0 1.977-1.29 5.46 5.46 0 0 0 1.281-1.983c.278-.711.465-1.524.516-2.711.05-1.192.062-1.575.059-4.606-.008-3.035-.02-3.414-.079-4.605-.054-1.192-.242-2-.523-2.711a5.468 5.468 0 0 0-1.29-1.977 5.484 5.484 0 0 0-1.983-1.285c-.711-.273-1.524-.46-2.711-.512-1.188-.05-1.57-.066-4.606-.058-3.035.004-3.414.02-4.605.074m.129 20.2c-1.09-.052-1.68-.231-2.075-.384a3.43 3.43 0 0 1-1.285-.832 3.434 3.434 0 0 1-.84-1.281c-.152-.395-.336-.988-.386-2.074-.055-1.18-.067-1.531-.075-4.516-.007-2.98.004-3.336.059-4.512.043-1.09.227-1.68.379-2.074.2-.523.441-.894.832-1.289a3.46 3.46 0 0 1 1.285-.836c.39-.152.984-.336 2.07-.39 1.18-.055 1.532-.067 4.516-.07 2.98-.008 3.336.003 4.516.054 1.086.047 1.68.227 2.074.379.52.203.89.445 1.285.836.39.39.633.762.836 1.281.156.395.34.984.39 2.074.055 1.176.067 1.532.075 4.512.004 2.984-.008 3.336-.059 4.516-.047 1.09-.226 1.68-.379 2.074a3.446 3.446 0 0 1-.832 1.285 3.4 3.4 0 0 1-1.285.84c-.394.152-.984.336-2.07.387-1.18.054-1.531.066-4.516.074-2.984.008-3.336-.004-4.515-.055M25.71 15.13c0 .176.035.348.102.512a1.371 1.371 0 0 0 .726.726c.164.067.336.102.516.098.175 0 .347-.031.511-.102.164-.066.309-.164.434-.289a1.355 1.355 0 0 0 .29-1.465 1.371 1.371 0 0 0-.294-.433 1.299 1.299 0 0 0-.433-.29 1.363 1.363 0 0 0-1.028 0 1.384 1.384 0 0 0-.723.727c-.07.168-.101.336-.101.516m-10.348 5.98a5.736 5.736 0 0 0 11.473-.02 5.734 5.734 0 0 0-5.746-5.726 5.731 5.731 0 0 0-5.727 5.746m2.012-.004a3.726 3.726 0 0 1 3.715-3.73c.496 0 .973.094 1.426.281a3.67 3.67 0 0 1 1.21.805c.352.348.622.75.81 1.207a3.7 3.7 0 0 1 .007 2.848 3.67 3.67 0 0 1-.805 1.21c-.347.352-.75.622-1.207.81a3.72 3.72 0 0 1-2.851.007 3.654 3.654 0 0 1-1.207-.805 3.716 3.716 0 0 1-1.098-2.633" style="stroke:none;fill-rule:nonzero;fill:#fff;fill-opacity:1"/></g></svg>