<svg xmlns="http://www.w3.org/2000/svg" width="58" height="58" version="1.2" viewBox="0 0 43.5 43.5"><defs><clipPath id="c"><path d="M0 0h42.309v42.309H0Zm0 0"/></clipPath><clipPath id="d"><path d="M21.152 0C9.47 0 0 9.469 0 21.152 0 32.836 9.469 42.31 21.152 42.31c11.684 0 21.157-9.473 21.157-21.157C42.309 9.47 32.836 0 21.152 0Zm0 0"/></clipPath><clipPath id="b"><path d="M0 0h43v43H0z"/></clipPath><clipPath id="f"><path d="M9.098 9.344h24.468V33.07H9.098Zm0 0"/></clipPath><filter id="e" width="100%" height="100%" x="0%" y="0%" filterUnits="objectBoundingBox"><feColorMatrix in="SourceGraphic" values="0 0 0 0 1 0 0 0 0 1 0 0 0 0 1 0 0 0 1 0"/></filter></defs><g mask="url(#a)"><g clip-path="url(#b)"><g clip-path="url(#c)"><g clip-path="url(#d)"><path d="M0 0h42.309v42.309H0Zm0 0" style="stroke:none;fill-rule:nonzero;fill:#7a7f83;fill-opacity:1"/></g></g></g><mask id="a"><g filter="url(#e)"><path d="M0 0h43.5v43.5H0z" style="fill:#000;fill-opacity:.41;stroke:none"/></g></mask></g><g clip-path="url(#f)"><path d="M21.297 9.344c-6.746 0-12.195 5.437-12.195 12.164 0 5.379 3.492 9.93 8.335 11.539.606.121.829-.262.829-.582 0-.281-.02-1.25-.02-2.258-3.39.727-4.098-1.45-4.098-1.45-.546-1.41-1.351-1.773-1.351-1.773-1.113-.742.078-.742.078-.742 1.234.078 1.879 1.246 1.879 1.246 1.09 1.856 2.848 1.332 3.555 1.008.097-.785.421-1.328.765-1.633-2.707-.281-5.55-1.328-5.55-6 0-1.328.484-2.418 1.25-3.261-.122-.305-.547-1.551.12-3.223 0 0 1.032-.324 3.352 1.246 1-.266 2.016-.398 3.05-.402 1.028 0 2.079.14 3.048.402 2.32-1.57 3.351-1.246 3.351-1.246.668 1.672.242 2.918.121 3.223.79.843 1.25 1.933 1.25 3.261 0 4.672-2.843 5.7-5.57 6 .445.383.828 1.11.828 2.258 0 1.629-.02 2.942-.02 3.344 0 .32.223.703.829.582 4.844-1.61 8.336-6.16 8.336-11.54.02-6.726-5.45-12.163-12.172-12.163Zm0 0" style="stroke:none;fill-rule:evenodd;fill:#fff;fill-opacity:1"/></g></svg>