<svg xmlns="http://www.w3.org/2000/svg" width="64" height="64" version="1.2" viewBox="0 0 48 48"><defs><clipPath id="a"><path d="M28.688 16.477h6.394v6.394h-6.395Zm0 0"/></clipPath><clipPath id="b"><path d="M31.883 16.477a3.197 3.197 0 1 0 .004 6.394 3.197 3.197 0 0 0-.004-6.394Zm0 0"/></clipPath><clipPath id="c"><path d="M15.488 16.477h6.395v6.394h-6.395Zm0 0"/></clipPath><clipPath id="d"><path d="M18.684 16.477a3.197 3.197 0 1 0 .004 6.394 3.197 3.197 0 0 0-.004-6.394Zm0 0"/></clipPath></defs><g style="fill:#fff;fill-opacity:1"><path d="M15.125-29.688h10.578v6.704H17.5c-1.586 0-3.016.386-4.297 1.156-1.281.773-2.289 1.762-3.015 2.969-.731 1.199-1.094 2.445-1.094 3.734 0 1.594.36 3.031 1.078 4.313a7.916 7.916 0 0 0 3 3.015c1.281.73 2.723 1.094 4.328 1.094h8.203V0H15.047c-2.117 0-4.059-.39-5.828-1.172a13.908 13.908 0 0 1-4.594-3.234A15.224 15.224 0 0 1 1.594-9.22C.875-11.039.516-13.008.516-15.125c0-1.957.394-3.813 1.187-5.563a15.7 15.7 0 0 1 3.25-4.656 15.46 15.46 0 0 1 4.672-3.187 13.516 13.516 0 0 1 5.5-1.157Zm0 0" style="stroke:none" transform="translate(1.281 38.428)"/></g><g style="fill:#8c52ff;fill-opacity:1"><path d="M2.797-8.344v-6.703h4.39c1.094 0 2.04-.328 2.844-.984.813-.657 1.219-1.617 1.219-2.89 0-.845-.215-1.567-.64-2.173A4.218 4.218 0 0 0 9.03-22.5a4.31 4.31 0 0 0-1.953-.484H.75v-6.703h8.719c1.406 0 2.734.277 3.984.828a10.12 10.12 0 0 1 3.297 2.265 11.08 11.08 0 0 1 2.234 3.313 9.72 9.72 0 0 1 .828 3.984c0 2.242-.445 4.18-1.328 5.813-.875 1.636-2.078 2.902-3.609 3.796-1.523.899-3.25 1.344-5.188 1.344Zm7.781 1.64V0H2.797v-6.703Zm0 0" style="stroke:none" transform="translate(25.78 38.428)"/></g><g clip-path="url(#a)"><g clip-path="url(#b)"><path d="M28.688 16.477h6.394v6.394h-6.395Zm0 0" style="stroke:none;fill-rule:nonzero;fill:#5e17eb;fill-opacity:1"/></g></g><g clip-path="url(#c)"><g clip-path="url(#d)"><path d="M15.488 16.477h6.395v6.394h-6.395Zm0 0" style="stroke:none;fill-rule:nonzero;fill:#5e17eb;fill-opacity:1"/></g></g></svg>