<svg xmlns="http://www.w3.org/2000/svg" width="682" height="550" version="1.2" viewBox="0 0 511.5 412.5"><g style="fill:#de93a3;fill-opacity:1"><path d="M42.125-26.375c.094.086.18.172.266.266.093.086.18.172.265.265 1.426 1.367 2.516 3.028 3.266 4.985.75 1.949 1.125 3.918 1.125 5.906-.086 2.344-.684 4.527-1.797 6.547-1.105 2.023-2.61 3.742-4.516 5.156a16.553 16.553 0 0 1-5.343 2.719c-1.93.57-3.868.86-5.813.86H0v-47.313h28.438c2.656 0 5.203.62 7.64 1.859 2.438 1.242 4.3 3.04 5.594 5.39.969 1.907 1.473 3.962 1.516 6.157.05 2.187-.454 4.187-1.516 6-1.2 2.086-2.887 3.648-5.063 4.687-2.168 1.043-4.422 1.297-6.765.766l-.266.86c2.383.574 4.719.398 7-.532 2.281-.926 4.129-2.453 5.547-4.578Zm0 0" style="stroke:none" transform="translate(55.36 179.951)"/></g><g style="fill:#de93a3;fill-opacity:1"><path d="M30.5-11.703 26.453 0H-.594v-1.328l15.485-45.188h32.093L62-2.266V0H35.484l-9.03-26.578H25.25Zm0 0" style="stroke:none" transform="translate(102.138 179.951)"/></g><g style="fill:#de93a3;fill-opacity:1"><path d="M24.656 0H0v-47.11h31.5c2.395 0 4.754.415 7.078 1.235a17.67 17.67 0 0 1 6.219 3.75c1.988 1.813 3.445 3.906 4.375 6.281a17.581 17.581 0 0 1 1.234 7.344c-.117 2.523-.793 4.953-2.031 7.297a16.069 16.069 0 0 1-3.39 4.531 15.99 15.99 0 0 1-4.844 3.11c-1.512.585-3.11.855-4.797.812a14.149 14.149 0 0 1-4.844-1c-1.555-.625-2.898-1.477-4.031-2.563a8.755 8.755 0 0 1-2.36-3.843c-.437-1.489-.39-3.117.141-4.89l-.922-.204c-.574 1.906-.633 3.68-.172 5.313a9.388 9.388 0 0 0 2.563 4.25c1.238 1.199 2.687 2.14 4.343 2.828a15.162 15.162 0 0 0 5.25 1.14c1.844.063 3.61-.238 5.297-.906.258-.176.676-.352 1.25-.531L50.375-1l-.14 1H25.718l-4.782-7.438-.937.594Zm0 0" style="stroke:none" transform="translate(166.858 179.951)"/></g><g style="fill:#de93a3;fill-opacity:1"><path d="M0-46.453h28.438V0H0Zm0 0" style="stroke:none" transform="translate(219.95 179.951)"/></g><g style="fill:#de93a3;fill-opacity:1"><path d="M0-46.453h28.438V0H0Zm0 0" style="stroke:none" transform="translate(251.71 179.951)"/></g><g style="fill:#de93a3;fill-opacity:1"><path d="M45.922-32.031H32.953v.937h12.969v15.672H32.953v1.14h12.969V0H0v-46.516h45.922Zm0 0" style="stroke:none" transform="translate(283.472 179.951)"/></g><g style="fill:#de93a3;fill-opacity:1"><path d="M24.656 0H0v-47.11h31.5c2.395 0 4.754.415 7.078 1.235a17.67 17.67 0 0 1 6.219 3.75c1.988 1.813 3.445 3.906 4.375 6.281a17.581 17.581 0 0 1 1.234 7.344c-.117 2.523-.793 4.953-2.031 7.297a16.069 16.069 0 0 1-3.39 4.531 15.99 15.99 0 0 1-4.844 3.11c-1.512.585-3.11.855-4.797.812a14.149 14.149 0 0 1-4.844-1c-1.555-.625-2.898-1.477-4.031-2.563a8.755 8.755 0 0 1-2.36-3.843c-.437-1.489-.39-3.117.141-4.89l-.922-.204c-.574 1.906-.633 3.68-.172 5.313a9.388 9.388 0 0 0 2.563 4.25c1.238 1.199 2.687 2.14 4.343 2.828a15.162 15.162 0 0 0 5.25 1.14c1.844.063 3.61-.238 5.297-.906.258-.176.676-.352 1.25-.531L50.375-1l-.14 1H25.718l-4.782-7.438-.937.594Zm0 0" style="stroke:none" transform="translate(332.776 179.951)"/></g><g style="fill:#de93a3;fill-opacity:1"><path d="M34.75-28.781c1.594-.57 3.266-.711 5.016-.422 1.75.281 3.312.844 4.687 1.687 2.125 1.293 3.738 3.07 4.844 5.328 1.113 2.25 1.672 4.575 1.672 6.97-.086 2.398-.672 4.59-1.766 6.577a16.517 16.517 0 0 1-4.344 5.125 16.946 16.946 0 0 1-5.422 2.688A21.37 21.37 0 0 1 33.5 0H1.656v-23.266c1.157 1.606 2.532 2.871 4.125 3.797a13.617 13.617 0 0 0 4.782 1.735c1.687.261 3.367.168 5.046-.282l-.39-.922a11.651 11.651 0 0 1-4.625.141c-1.574-.27-3-.828-4.281-1.672-1.336-.707-2.493-1.691-3.47-2.953a13.57 13.57 0 0 1-2.187-4.187A13.893 13.893 0 0 1 0-32.156c.094-2.352.672-4.524 1.734-6.516 1.063-2 2.457-3.68 4.188-5.047 1.594-1.156 3.336-2 5.234-2.531a21.483 21.483 0 0 1 5.797-.797h30.688v20.797c-.399-.352-.82-.707-1.266-1.063a10.081 10.081 0 0 0-1.39-.937 12.503 12.503 0 0 0-5.126-1.906 11.915 11.915 0 0 0-5.437.453Zm0 0" style="stroke:none" transform="translate(385.867 179.951)"/></g><g style="fill:#fff;fill-opacity:1"><path d="m43.008-27.262.531.532c1.54 1.492 2.719 3.296 3.54 5.418.808 2.093 1.21 4.214 1.21 6.363v.047a15.78 15.78 0 0 1-1.945 7.097c-1.196 2.172-2.817 4.024-4.867 5.547A17.97 17.97 0 0 1 35.738.664a21.47 21.47 0 0 1-6.168.914H-1.246v-49.8h29.683c2.86 0 5.594.663 8.208 1.995 2.667 1.356 4.703 3.32 6.109 5.895l.008.016.011.011c1.059 2.078 1.614 4.305 1.664 6.692.047 2.425-.519 4.648-1.699 6.668-1.32 2.3-3.183 4.023-5.586 5.175-2.433 1.168-4.965 1.454-7.593.86l.277-1.215 1.191.363-.265.864-1.192-.364.29-1.21c2.132.511 4.214.355 6.25-.477 2.042-.832 3.706-2.207 4.98-4.121l.844-1.266ZM41.246-25.5l.883-.879 1.035.692c-1.559 2.335-3.598 4.019-6.113 5.046-2.531 1.032-5.121 1.227-7.774.59l-1.289-.312.996-3.235 1.125.254c2.067.469 4.055.246 5.965-.672a10.151 10.151 0 0 0 4.512-4.187c.945-1.617 1.398-3.402 1.36-5.36a12.692 12.692 0 0 0-1.391-5.605l1.11-.566-1.095.597c-1.164-2.125-2.847-3.746-5.054-4.87-2.258-1.15-4.618-1.723-7.078-1.723H0v-1.247h1.246V.332H0V-.914h29.57c1.828 0 3.645-.27 5.457-.813a15.537 15.537 0 0 0 4.961-2.527c1.762-1.312 3.149-2.894 4.172-4.75 1.012-1.844 1.559-3.844 1.64-5.992l1.243.047h-1.246c0-1.84-.348-3.66-1.043-5.465-.688-1.781-1.68-3.297-2.977-4.555Zm0 0" style="stroke:none" transform="translate(52.423 177.015)"/></g><g style="fill:#fff;fill-opacity:1"><path d="M31.676-11.285 27.332 1.246H-1.844v-2.781l15.836-46.223h33.88l15.37 45.293v3.711H34.59L25.266-26.18l1.18-.398v1.246H25.25v-1.246l1.176-.414L31.82-11.7Zm-2.356-.817 1.18.407-1.176.414-5.836-16.543h3.852L36.664-.402 35.484 0v-1.246h26.512V0H60.75v-2.258h1.246l-1.18.399-15.02-44.254 1.18-.399v1.246H14.884v-1.246l1.18.403L.582-.926l-1.18-.402H.648V0H-.598v-1.246h27.043V0L25.27-.406Zm0 0" style="stroke:none" transform="translate(99.202 177.015)"/></g><g style="fill:#fff;fill-opacity:1"><path d="M24.652 1.246H-1.246v-49.601h32.742c2.535 0 5.031.433 7.492 1.296a19.004 19.004 0 0 1 6.645 4.016c2.129 1.945 3.695 4.188 4.699 6.738a19.05 19.05 0 0 1 1.313 7.852c-.118 2.715-.844 5.324-2.168 7.84l-1.102-.582 1.113.554a17.159 17.159 0 0 1-3.652 4.871 17.127 17.127 0 0 1-5.227 3.364l-.03.015c-1.661.633-3.415.926-5.263.88a15.237 15.237 0 0 1-5.28-1.087c-1.7-.68-3.173-1.62-4.419-2.816a9.973 9.973 0 0 1-2.691-4.395c-.512-1.722-.469-3.59.133-5.601l1.195.36-.262 1.218-.93-.2.262-1.218 1.192.36c-.504 1.671-.559 3.21-.16 4.617a8.129 8.129 0 0 0 2.222 3.695 12.641 12.641 0 0 0 3.965 2.57c1.523.63 3.129.973 4.82 1.035 1.664.059 3.258-.21 4.778-.812l.457 1.16-.692-1.035c.367-.246.899-.473 1.59-.688l.867-.265 9.305 13.3-.344 2.56H25.035L19.883-6.77l1.047-.671.675 1.046-.93.598L20-6.844l1.031-.699 5.973 8.79Zm0-2.492V0l-1.03.7-5.372-7.9 3.055-1.964 5.457 8.492L25.715 0v-1.246h24.52V0L49-.164l.133-.996 1.234.164-1.02.715-8.507-12.16 1.023-.715.364 1.191c-.457.14-.77.266-.938.375l-.11.074-.12.051a14.201 14.201 0 0 1-5.786.98 16.223 16.223 0 0 1-5.683-1.222 15.01 15.01 0 0 1-4.738-3.078 10.59 10.59 0 0 1-2.895-4.809c-.531-1.875-.473-3.879.172-6.015l.332-1.098 3.375.723-.39 1.293c-.458 1.53-.505 2.921-.134 4.168a7.523 7.523 0 0 0 2.032 3.312c1.011.973 2.218 1.738 3.617 2.3 1.414.563 2.887.868 4.422.907 1.52.04 2.953-.2 4.304-.715l.446 1.164-.477-1.152a14.825 14.825 0 0 0 4.477-2.879 14.698 14.698 0 0 0 3.125-4.168l.015-.023c1.153-2.184 1.782-4.446 1.883-6.782a16.535 16.535 0 0 0-1.144-6.836c-.86-2.187-2.219-4.128-4.075-5.82a16.454 16.454 0 0 0-5.777-3.492 19.894 19.894 0 0 0-6.664-1.156H0v-1.246h1.246V0H0v-1.246Zm0 0" style="stroke:none" transform="translate(163.921 177.015)"/></g><g style="fill:#fff;fill-opacity:1"><path d="M-1.246-47.691h30.93V1.246h-30.93ZM1.246-45.2v43.953h25.95V-45.2Zm0 0" style="stroke:none" transform="translate(217.012 177.015)"/></g><g style="fill:#fff;fill-opacity:1"><path d="M-1.246-47.691h30.93V1.246h-30.93ZM1.246-45.2v43.953h25.95V-45.2Zm0 0" style="stroke:none" transform="translate(248.774 177.015)"/></g><g style="fill:#fff;fill-opacity:1"><path d="M45.914-30.781H32.957v-1.246h1.246v.93h-1.246v-1.247H47.16v18.176H32.957v-1.246h1.246v1.129h-1.246v-1.246H47.16V1.246H-1.246v-49.004H47.16v16.977Zm0-2.492v1.246h-1.246v-14.485h1.246v1.246H0v-1.246h1.246V0H0v-1.246h45.914V0h-1.246v-14.285h1.246v1.246H31.711v-3.621h14.203v1.246h-1.246v-15.684h1.246v1.246H31.711v-3.421Zm0 0" style="stroke:none" transform="translate(280.536 177.015)"/></g><g style="fill:#fff;fill-opacity:1"><path d="M24.652 1.246H-1.246v-49.601h32.742c2.535 0 5.031.433 7.492 1.296a19.004 19.004 0 0 1 6.645 4.016c2.129 1.945 3.695 4.188 4.699 6.738a19.05 19.05 0 0 1 1.313 7.852c-.118 2.715-.844 5.324-2.168 7.84l-1.102-.582 1.113.554a17.159 17.159 0 0 1-3.652 4.871 17.127 17.127 0 0 1-5.227 3.364l-.03.015c-1.661.633-3.415.926-5.263.88a15.237 15.237 0 0 1-5.28-1.087c-1.7-.68-3.173-1.62-4.419-2.816a9.973 9.973 0 0 1-2.691-4.395c-.512-1.722-.469-3.59.133-5.601l1.195.36-.262 1.218-.93-.2.262-1.218 1.192.36c-.504 1.671-.559 3.21-.16 4.617a8.129 8.129 0 0 0 2.222 3.695 12.641 12.641 0 0 0 3.965 2.57c1.523.63 3.129.973 4.82 1.035 1.664.059 3.258-.21 4.778-.812l.457 1.16-.692-1.035c.367-.246.899-.473 1.59-.688l.867-.265 9.305 13.3-.344 2.56H25.035L19.883-6.77l1.047-.671.675 1.046-.93.598L20-6.844l1.031-.699 5.973 8.79Zm0-2.492V0l-1.03.7-5.372-7.9 3.055-1.964 5.457 8.492L25.715 0v-1.246h24.52V0L49-.164l.133-.996 1.234.164-1.02.715-8.507-12.16 1.023-.715.364 1.191c-.457.14-.77.266-.938.375l-.11.074-.12.051a14.201 14.201 0 0 1-5.786.98 16.223 16.223 0 0 1-5.683-1.222 15.01 15.01 0 0 1-4.738-3.078 10.59 10.59 0 0 1-2.895-4.809c-.531-1.875-.473-3.879.172-6.015l.332-1.098 3.375.723-.39 1.293c-.458 1.53-.505 2.921-.134 4.168a7.523 7.523 0 0 0 2.032 3.312c1.011.973 2.218 1.738 3.617 2.3 1.414.563 2.887.868 4.422.907 1.52.04 2.953-.2 4.304-.715l.446 1.164-.477-1.152a14.825 14.825 0 0 0 4.477-2.879 14.698 14.698 0 0 0 3.125-4.168l.015-.023c1.153-2.184 1.782-4.446 1.883-6.782a16.535 16.535 0 0 0-1.144-6.836c-.86-2.187-2.219-4.128-4.075-5.82a16.454 16.454 0 0 0-5.777-3.492 19.894 19.894 0 0 0-6.664-1.156H0v-1.246h1.246V0H0v-1.246Zm0 0" style="stroke:none" transform="translate(329.84 177.015)"/></g><g style="fill:#fff;fill-opacity:1"><path d="M34.328-29.945c1.797-.649 3.68-.813 5.645-.489 1.91.317 3.62.938 5.132 1.864 2.329 1.406 4.102 3.351 5.317 5.828 1.191 2.433 1.789 4.941 1.789 7.527v.043c-.098 2.59-.734 4.965-1.914 7.129a17.576 17.576 0 0 1-4.68 5.504l-.012.012-.015.007c-1.8 1.33-3.738 2.293-5.81 2.887-2.039.586-4.136.88-6.293.88H.414V-27.11l2.258 3.125c1.047 1.449 2.293 2.597 3.738 3.437a12.276 12.276 0 0 0 4.348 1.574 10.95 10.95 0 0 0 4.539-.238l.316 1.203-1.144.492-.399-.93 1.145-.491.285 1.21a12.764 12.764 0 0 1-5.11.153 12.437 12.437 0 0 1-4.761-1.848l.684-1.043-.586 1.098c-1.489-.793-2.774-1.89-3.856-3.293a14.788 14.788 0 0 1-2.394-4.57 14.842 14.842 0 0 1-.723-4.965c.098-2.547.723-4.903 1.875-7.063A17.267 17.267 0 0 1 5.137-44.7l.047-.031a17.59 17.59 0 0 1 5.644-2.715 22.657 22.657 0 0 1 6.117-.844h31.942v24.816l-2.07-1.843c-.383-.34-.79-.68-1.215-1.02a8.206 8.206 0 0 0-1.215-.809l-.086-.054a11.135 11.135 0 0 0-4.61-1.735 10.67 10.67 0 0 0-4.886.418l-.387-1.187 1.176-.418.332.93-1.176.418ZM34-27.175l-1.184-3.317 1.22-.395a13.088 13.088 0 0 1 6.007-.511 13.55 13.55 0 0 1 5.625 2.117l-.684 1.043.598-1.094c.55.3 1.078.648 1.578 1.05.457.368.895.735 1.309 1.102l-.824.934h-1.247v-20.797h1.247v1.246h-30.7c-1.836 0-3.652.25-5.449.75a15.157 15.157 0 0 0-4.851 2.336l-.73-1.012.772.977a14.761 14.761 0 0 0-3.859 4.66c-.973 1.824-1.5 3.813-1.582 5.961a12.33 12.33 0 0 0 .606 4.137 12.225 12.225 0 0 0 1.992 3.804c.863 1.122 1.883 1.993 3.054 2.618l.051.027.047.031a9.896 9.896 0 0 0 3.809 1.477c1.41.234 2.785.195 4.125-.117l1.02-.243 1.378 3.22-1.394.37a13.464 13.464 0 0 1-5.563.29 14.72 14.72 0 0 1-5.219-1.884c-1.746-1.015-3.246-2.394-4.5-4.132l1.008-.73h1.246V0H1.66v-1.246h31.828c1.922 0 3.79-.262 5.606-.781a15.735 15.735 0 0 0 5.02-2.496l.738 1-.766-.98a15.127 15.127 0 0 0 4.023-4.731c.993-1.82 1.528-3.832 1.61-6.028l1.246.047h-1.246c0-2.2-.512-4.344-1.535-6.43-1-2.039-2.461-3.64-4.383-4.8-1.235-.758-2.645-1.266-4.235-1.528-1.535-.254-3-.129-4.39.371Zm0 0" style="stroke:none" transform="translate(382.93 177.015)"/></g><g style="fill:#fff;fill-opacity:1"><path d="M32.438 0H1.233v-82.25h27.422c6.25 0 11.254.906 15.016 2.719 3.758 1.812 6.476 4.297 8.156 7.453 1.676 3.156 2.54 6.71 2.594 10.656.05 2.031-.172 4.246-.672 6.64a18.744 18.744 0 0 1-2.797 6.673c-1.367 2.054-3.367 3.601-6 4.64 3.344.774 5.973 2.133 7.89 4.078 1.927 1.95 3.302 4.258 4.126 6.922.82 2.657 1.234 5.465 1.234 8.422 0 2.856-.453 5.711-1.36 8.563-.906 2.855-2.374 5.449-4.406 7.78-2.03 2.337-4.683 4.204-7.953 5.61C41.223-.695 37.207 0 32.437 0Zm-6.5-32.516v7.813h3.28c1.489 0 2.805-.258 3.954-.781 1.156-.52 1.707-1.578 1.656-3.172-.055-1.532-.617-2.555-1.687-3.078-1.075-.52-2.352-.782-3.828-.782Zm4.03-25.03h-4.03v4.437h3.953c1.207 0 2-.227 2.375-.688.382-.469.578-.945.578-1.437 0-.602-.219-1.141-.657-1.61-.437-.468-1.18-.703-2.218-.703Zm0 0" style="stroke:none" transform="translate(42.502 121.166)"/></g><g style="fill:#fff;fill-opacity:1"><path d="M1.234 0v-38.031c0-5.438 1.164-9.895 3.5-13.375 2.332-3.489 5.422-6.082 9.266-7.782 3.844-1.707 8.016-2.562 12.516-2.562h9.625v24.531h-7.735c-1.21 0-1.922.469-2.14 1.407-.22.937-.328 2.12-.328 3.546V0Zm0 0" style="stroke:none" transform="translate(101.938 121.166)"/></g><g style="fill:#fff;fill-opacity:1"><path d="M.828-30.875c0-4.664.766-8.957 2.297-12.875 1.54-3.926 3.75-7.316 6.625-10.172 2.883-2.851 6.285-5.078 10.203-6.672 3.926-1.593 8.281-2.39 13.063-2.39 5.757 0 10.722.937 14.89 2.812 4.176 1.867 7.508 4.402 10 7.61 2.5 3.21 4.133 6.886 4.907 11.03.769 4.15.609 8.524-.485 13.126H25.61c0 1.261.672 2.195 2.016 2.797 1.344.605 3.113.906 5.313.906h28.156V0H32.937c-6.21 0-11.73-1.234-16.562-3.703-4.824-2.469-8.621-6.02-11.39-10.656C2.21-19.004.827-24.508.827-30.875Zm32.11-10.531c-1.762 0-3.313.386-4.657 1.156-1.343.762-2.343 1.828-3 3.203h15.39a7.714 7.714 0 0 0-3.093-3.203c-1.344-.77-2.89-1.156-4.64-1.156Zm0 0" style="stroke:none" transform="translate(139.312 121.166)"/></g><g style="fill:#fff;fill-opacity:1"><path d="M.828-16.797c0-2.031.313-4.047.938-6.047.632-2 1.648-3.82 3.046-5.468 1.407-1.657 3.286-2.973 5.641-3.954 2.363-.988 5.274-1.484 8.735-1.484H32.03c0-1.375-.824-2.266-2.468-2.672-1.649-.414-4.122-.625-7.422-.625H5.92l6.016-24.703H32.03c4.883 0 9.164.746 12.844 2.234 3.676 1.48 6.54 3.813 8.594 7 2.062 3.18 3.093 7.375 3.093 12.594V0H18.188c-4.282 0-7.7-.82-10.25-2.469-2.555-1.644-4.375-3.754-5.47-6.328a20.321 20.321 0 0 1-1.64-8Zm25.438-5.922c0 .774.285 1.309.859 1.61.57.293 1.219.437 1.938.437h2.968v-4.187h-2.968c-.774 0-1.434.168-1.985.5-.543.324-.812.87-.812 1.64Zm0 0" style="stroke:none" transform="translate(201.876 121.166)"/></g><g style="fill:#fff;fill-opacity:1"><path d="M1.234-82.328h24.703v36.719L33.75-61.75h25.203L43.97-30.875 58.953 0H33.75l-7.813-16.14V0H1.235Zm0 0" style="stroke:none" transform="translate(259.665 121.166)"/></g><g style="fill:#fff;fill-opacity:1"><path d="M25.938 0H1.233v-61.75h24.703Zm0-65.703H1.233v-24.688h24.703Zm0 0" style="stroke:none" transform="translate(319.842 121.166)"/></g><g style="fill:#fff;fill-opacity:1"><path d="M1.234-61.75h28.328c4.5 0 8.665.855 12.5 2.563 3.844 1.699 6.93 4.292 9.266 7.78 2.332 3.481 3.5 7.938 3.5 13.376V0H30.125v-32.266c0-1.425-.094-2.609-.281-3.547-.188-.937-.918-1.406-2.188-1.406h-1.718V0H1.233Zm0 0" style="stroke:none" transform="translate(347.008 121.166)"/></g><g style="fill:#fff;fill-opacity:1"><path d="M31.703 0c-6.7 0-12.312-1.242-16.844-3.734-4.53-2.5-7.937-6.055-10.218-10.672-2.274-4.614-3.407-10.102-3.407-16.469 0-4.988.63-9.297 1.891-12.922 1.258-3.625 2.973-6.672 5.14-9.14 2.176-2.47 4.618-4.442 7.329-5.922a30.896 30.896 0 0 1 8.562-3.172c3-.633 5.926-.953 8.782-.953 4 0 7.82.125 11.468.375 3.657.25 7.567.539 11.735.859V3.547c0 5.426-1.168 9.879-3.5 13.36-2.325 3.488-5.407 6.081-9.25 7.78-3.844 1.708-8.016 2.563-12.516 2.563H6.094V2.547l18.187-.078c2.25 0 4.047-.11 5.39-.328 1.352-.22 2.032-.934 2.032-2.141Zm0-38.281c-1.43 0-2.652.715-3.672 2.14-1.011 1.43-1.515 3.133-1.515 5.11 0 1.043.203 2.125.609 3.25.414 1.125 1.004 2.058 1.766 2.797.77.742 1.707 1.109 2.812 1.109Zm0 0" style="stroke:none" transform="translate(403.069 121.166)"/></g><g style="fill:#59c5e9;fill-opacity:1"><path d="M28.36-17.75c.05.063.109.125.171.188.063.054.117.109.172.171.957.918 1.688 2.032 2.188 3.344.507 1.313.765 2.64.765 3.985a9.626 9.626 0 0 1-1.203 4.406 10.855 10.855 0 0 1-3.047 3.468 10.98 10.98 0 0 1-3.593 1.829 13.694 13.694 0 0 1-3.907.578H0V-31.61h19.14c1.79 0 3.505.418 5.141 1.25 1.633.836 2.883 2.043 3.75 3.625a9.407 9.407 0 0 1 1.032 4.14c.03 1.469-.313 2.813-1.032 4.032a7.594 7.594 0 0 1-3.39 3.156 6.823 6.823 0 0 1-4.563.515l-.172.579a7.503 7.503 0 0 0 4.703-.36c1.54-.625 2.79-1.648 3.75-3.078Zm0 0" style="stroke:none" transform="translate(54.4 322.73)"/></g><g style="fill:#59c5e9;fill-opacity:1"><path d="M16.594 0H0v-31.703h21.203a14.2 14.2 0 0 1 4.75.828 12 12 0 0 1 4.188 2.516c1.343 1.23 2.328 2.64 2.953 4.234a12.03 12.03 0 0 1 .828 4.938c-.074 1.699-.527 3.34-1.36 4.921a10.833 10.833 0 0 1-2.296 3.047 10.813 10.813 0 0 1-3.25 2.094 8.565 8.565 0 0 1-3.235.547 9.484 9.484 0 0 1-3.265-.672 8.452 8.452 0 0 1-2.703-1.734 5.935 5.935 0 0 1-1.579-2.579c-.304-1-.273-2.097.094-3.296L15.703-17c-.398 1.293-.437 2.492-.125 3.594a6.362 6.362 0 0 0 1.719 2.86 9.571 9.571 0 0 0 2.937 1.905 9.973 9.973 0 0 0 3.532.75 8.763 8.763 0 0 0 3.562-.609c.176-.113.457-.234.844-.36L33.89-.671 33.813 0h-16.5l-3.22-5.016-.64.407Zm0 0" style="stroke:none" transform="translate(88.201 322.73)"/></g><g style="fill:#59c5e9;fill-opacity:1"><path d="M20.531-7.875 17.797 0H-.406v-.89l10.422-30.407h21.593L41.72-1.516V0H23.875l-6.078-17.89H17Zm0 0" style="stroke:none" transform="translate(123.926 322.73)"/></g><g style="fill:#59c5e9;fill-opacity:1"><path d="M0-31.266h19.14V0H0Zm0 0" style="stroke:none" transform="translate(167.475 322.73)"/></g><g style="fill:#59c5e9;fill-opacity:1"><path d="M16.047-6.031 18.469.047H-.047v-31.344h17.172l2.953 7.281.578-.125-2.765-7.156h16.547V.047h-15.25l-2.547-6.39Zm0 0" style="stroke:none" transform="translate(188.847 322.73)"/></g><g style="fill:#59c5e9;fill-opacity:1"><path d="M23.39-19.36c1.07-.382 2.196-.476 3.376-.28 1.175.187 2.226.562 3.156 1.124a8.422 8.422 0 0 1 3.25 3.578c.75 1.524 1.125 3.09 1.125 4.704-.063 1.605-.461 3.078-1.188 4.421a10.886 10.886 0 0 1-2.922 3.438 11.515 11.515 0 0 1-3.656 1.813 14.28 14.28 0 0 1-4 .562H1.125v-15.656c.77 1.074 1.691 1.922 2.766 2.547a8.817 8.817 0 0 0 3.218 1.171c1.133.18 2.27.118 3.407-.187l-.282-.625a7.7 7.7 0 0 1-3.109.094 7.447 7.447 0 0 1-2.875-1.11 7.226 7.226 0 0 1-2.328-1.984A9.246 9.246 0 0 1 0-21.64c.063-1.583.445-3.04 1.156-4.376a10.823 10.823 0 0 1 2.828-3.406 10.872 10.872 0 0 1 3.532-1.703 14.644 14.644 0 0 1 3.89-.531h20.657v14a28.76 28.76 0 0 0-.86-.719 6.489 6.489 0 0 0-.922-.625 8.438 8.438 0 0 0-3.453-1.297 7.78 7.78 0 0 0-3.656.313Zm0 0" style="stroke:none" transform="translate(225.51 322.73)"/></g><g style="fill:#59c5e9;fill-opacity:1"><path d="M26.297-16.719V.047H7.734V-16.72h-.578v3.922H0v-18.547h34.203v18.547h-7.14v-3.922Zm0 0" style="stroke:none" transform="translate(261.459 322.73)"/></g><g style="fill:#59c5e9;fill-opacity:1"><path d="M4.297-27.813a15.873 15.873 0 0 1 4.75-3.312 17.45 17.45 0 0 1 5.594-1.469 15.342 15.342 0 0 1 5.75.532c.093.03.175.058.25.078.07.011.125.015.156.015l-.094.485a5.97 5.97 0 0 0-.765-.047h-.75a11.643 11.643 0 0 0-4.547.812 13.11 13.11 0 0 0-3.922 2.375 12.061 12.061 0 0 0-2.781 3.516 10.946 10.946 0 0 0-1.235 4.25c-.117 1.5.156 3.023.813 4.562l.53-.172c-.741-1.843-.933-3.644-.577-5.406a10.643 10.643 0 0 1 2.25-4.734 12.96 12.96 0 0 1 4.203-3.36 11.44 11.44 0 0 1 5.265-1.265c2.258 0 4.313.543 6.157 1.625A14.432 14.432 0 0 1 30-25.016a15.988 15.988 0 0 1 2.563 5.922 15.21 15.21 0 0 1-.016 6.313A16.955 16.955 0 0 1 30.14-6.97a17.782 17.782 0 0 1-4.36 4.594A15.912 15.912 0 0 1 19.938.313 16.918 16.918 0 0 1 14.39.64 16.632 16.632 0 0 1 8.984-.844a16.931 16.931 0 0 1-4.687-3.265C2.773-5.598 1.582-7.36.719-9.391a16.17 16.17 0 0 1-1.297-6.39 16.704 16.704 0 0 1 1.203-6.485 16.133 16.133 0 0 1 3.672-5.547Zm0 0" style="stroke:none" transform="translate(297.898 322.73)"/></g><g style="fill:#59c5e9;fill-opacity:1"><path d="M16.594 0H0v-31.703h21.203a14.2 14.2 0 0 1 4.75.828 12 12 0 0 1 4.188 2.516c1.343 1.23 2.328 2.64 2.953 4.234a12.03 12.03 0 0 1 .828 4.938c-.074 1.699-.527 3.34-1.36 4.921a10.833 10.833 0 0 1-2.296 3.047 10.813 10.813 0 0 1-3.25 2.094 8.565 8.565 0 0 1-3.235.547 9.484 9.484 0 0 1-3.265-.672 8.452 8.452 0 0 1-2.703-1.734 5.935 5.935 0 0 1-1.579-2.579c-.304-1-.273-2.097.094-3.296L15.703-17c-.398 1.293-.437 2.492-.125 3.594a6.362 6.362 0 0 0 1.719 2.86 9.571 9.571 0 0 0 2.937 1.905 9.973 9.973 0 0 0 3.532.75 8.763 8.763 0 0 0 3.562-.609c.176-.113.457-.234.844-.36L33.89-.671 33.813 0h-16.5l-3.22-5.016-.64.407Zm0 0" style="stroke:none" transform="translate(332.505 322.73)"/></g><g style="fill:#59c5e9;fill-opacity:1"><path d="M16.953-5.547 19 0H0v-31.39h23.297l2.812 6.968h.594l2.719-6.969h21.61V0H33.765l3.218-9.531-.578-.172L32.953 0H19.72l-2.19-5.906Zm0 0" style="stroke:none" transform="translate(368.23 322.73)"/></g><g style="fill:#59c5e9;fill-opacity:1"><path d="M30.906-21.547h-8.718v.625h8.718v10.547h-8.718v.766h8.718V0H0v-31.297h30.906Zm0 0" style="stroke:none" transform="translate(421.481 322.73)"/></g><g style="fill:#59c5e9;fill-opacity:1"><path d="M16.594 0H0v-31.703h21.203a14.2 14.2 0 0 1 4.75.828 12 12 0 0 1 4.188 2.516c1.343 1.23 2.328 2.64 2.953 4.234a12.03 12.03 0 0 1 .828 4.938c-.074 1.699-.527 3.34-1.36 4.921a10.833 10.833 0 0 1-2.296 3.047 10.813 10.813 0 0 1-3.25 2.094 8.565 8.565 0 0 1-3.235.547 9.484 9.484 0 0 1-3.265-.672 8.452 8.452 0 0 1-2.703-1.734 5.935 5.935 0 0 1-1.579-2.579c-.304-1-.273-2.097.094-3.296L15.703-17c-.398 1.293-.437 2.492-.125 3.594a6.362 6.362 0 0 0 1.719 2.86 9.571 9.571 0 0 0 2.937 1.905 9.973 9.973 0 0 0 3.532.75 8.763 8.763 0 0 0 3.562-.609c.176-.113.457-.234.844-.36L33.89-.671 33.813 0h-16.5l-3.22-5.016-.64.407Zm0 0" style="stroke:none" transform="translate(454.657 322.73)"/></g><g style="fill:#fff;fill-opacity:1"><path d="m28.945-18.348.36.36c1.035 1.004 1.828 2.218 2.379 3.644.546 1.41.816 2.836.816 4.281v.032a10.584 10.584 0 0 1-1.309 4.777 11.56 11.56 0 0 1-3.277 3.734 12.07 12.07 0 0 1-3.86 1.965 14.47 14.47 0 0 1-4.152.617H-.84v-33.519h19.98c1.922 0 3.766.45 5.524 1.344 1.793.914 3.164 2.234 4.113 3.968l.004.008.004.012a10.196 10.196 0 0 1 1.121 4.5c.035 1.637-.347 3.133-1.144 4.488-.887 1.551-2.14 2.711-3.758 3.489-1.637.78-3.34.976-5.11.574l.184-.817.805.246-.18.582-.8-.25.195-.812a6.716 6.716 0 0 0 4.203-.32c1.379-.563 2.496-1.485 3.355-2.774l.567-.851Zm-1.183 1.188.59-.594.699.465c-1.051 1.574-2.422 2.707-4.117 3.398a8.367 8.367 0 0 1-5.23.395l-.868-.207.672-2.18.758.172a5.959 5.959 0 0 0 4.011-.453 6.826 6.826 0 0 0 3.04-2.82c.636-1.086.94-2.286.913-3.606a8.525 8.525 0 0 0-.937-3.77l.746-.382-.734.402c-.782-1.43-1.914-2.523-3.403-3.277a10.353 10.353 0 0 0-4.761-1.16H0v-.84h.84V.223H0v-.836h19.902a12.81 12.81 0 0 0 3.672-.547c1.2-.36 2.313-.926 3.34-1.703a9.924 9.924 0 0 0 2.805-3.2 8.918 8.918 0 0 0 1.105-4.03l.84.03h-.84c0-1.238-.234-2.464-.703-3.675a8.5 8.5 0 0 0-2.004-3.067l-.18-.175Zm0 0" style="stroke:none" transform="translate(52.423 320.754)"/></g><g style="fill:#fff;fill-opacity:1"><path d="M16.59.84H-.84v-33.387H21.2c1.702 0 3.382.293 5.038.875a12.719 12.719 0 0 1 4.473 2.703c1.434 1.309 2.488 2.82 3.164 4.535.668 1.707.965 3.47.883 5.286-.078 1.824-.567 3.582-1.461 5.273l-.738-.39.75.374a11.558 11.558 0 0 1-2.461 3.278 11.575 11.575 0 0 1-3.516 2.265l-.012.004-.008.004a9.137 9.137 0 0 1-3.542.59 10.134 10.134 0 0 1-3.555-.73c-1.145-.457-2.137-1.086-2.973-1.895a6.678 6.678 0 0 1-1.812-2.957c-.344-1.16-.317-2.414.09-3.77l.804.243-.176.82-.628-.137.175-.816.805.242c-.34 1.125-.375 2.16-.11 3.105a5.517 5.517 0 0 0 1.5 2.489 8.445 8.445 0 0 0 2.665 1.726 9.326 9.326 0 0 0 3.246.7 7.88 7.88 0 0 0 3.215-.547l.308.78-.465-.698c.246-.164.602-.317 1.067-.461l.586-.18 6.261 8.953-.23 1.723H16.848l-3.465-5.395.703-.453.453.703-.625.403-.453-.703.695-.473L18.176.84Zm0-1.68V0l-.692.473-3.613-5.32 2.055-1.321 3.672 5.715-.703.453v-.84h16.5V0l-.832-.11.09-.671.831.11-.687.48-5.723-8.184.688-.48.246.8c-.313.098-.52.18-.633.254l-.074.051-.082.031a9.555 9.555 0 0 1-3.895.664 11.046 11.046 0 0 1-3.824-.824 10.112 10.112 0 0 1-3.187-2.07 7.124 7.124 0 0 1-1.95-3.239c-.355-1.261-.316-2.609.118-4.05l.222-.739 2.27.489-.262.87c-.309 1.032-.34 1.966-.086 2.805.254.86.711 1.602 1.363 2.231a7.51 7.51 0 0 0 2.438 1.547c.95.379 1.941.582 2.973.61a7.478 7.478 0 0 0 2.898-.481l.3.785-.32-.777a9.926 9.926 0 0 0 3.012-1.938 9.997 9.997 0 0 0 2.106-2.805l.007-.015c.774-1.469 1.2-2.992 1.266-4.567a11.107 11.107 0 0 0-.77-4.597c-.578-1.473-1.492-2.782-2.742-3.918a11.123 11.123 0 0 0-3.886-2.352 13.428 13.428 0 0 0-4.485-.777H0v-.84h.84V0H0v-.84Zm0 0" style="stroke:none" transform="translate(86.225 320.754)"/></g><g style="fill:#fff;fill-opacity:1"><path d="M21.32-7.598 18.395.84H-1.242v-1.875l10.66-31.11h22.8L42.563-1.66v2.5h-19.28l-6.278-18.457.797-.27v.836h-.809v-.836l.793-.281 3.63 10.293Zm-1.586-.547.793.274-.793.277-3.925-11.133h2.59L24.675-.27l-.793.27v-.84h17.84V0h-.836v-1.52h.836l-.793.27-10.106-29.785.793-.27v.84h-21.6v-.84l.796.274L.392-.621l-.793-.274h.84V0h-.84v-.84H17.8V0l-.793-.273Zm0 0" style="stroke:none" transform="translate(121.95 320.754)"/></g><g style="fill:#fff;fill-opacity:1"><path d="M-.84-32.098h20.82V.84H-.84Zm1.68 1.676V-.84H18.3v-29.582Zm0 0" style="stroke:none" transform="translate(165.498 320.754)"/></g><g style="fill:#fff;fill-opacity:1"><path d="m16.836-6.348 2.867 7.23H-.883v-33.027h18.574l3.164 7.817-.777.312-.187-.816.582-.133.187.817-.781.3-3.215-8.297h18.61V.883H18.616L15.855-6.04l.782-.313.398.739-.582.312-.398-.738ZM15-6.422l2.066-1.113 2.899 7.27-.781.308v-.836h15.25v.836h-.836v-31.348h.836v.84H17.887v-.84l.785-.304 3.121 8.058-2.223.516-3.218-7.953.777-.317v.84H-.043v-.84h.836V.043h-.836v-.836h18.512v.836l-.778.312-2.414-6.082Zm0 0" style="stroke:none" transform="translate(186.87 320.754)"/></g><g style="fill:#fff;fill-opacity:1"><path d="M23.105-20.152c1.207-.438 2.477-.547 3.797-.328 1.285.21 2.438.628 3.453 1.25 1.57.949 2.762 2.257 3.582 3.925.801 1.637 1.204 3.325 1.204 5.063v.031c-.067 1.742-.496 3.34-1.29 4.797a11.793 11.793 0 0 1-3.148 3.703l-.012.008-.007.008a12.215 12.215 0 0 1-3.91 1.941 15.251 15.251 0 0 1-4.235.594H.281v-19.086l1.516 2.101c.707.98 1.547 1.75 2.516 2.317a8.272 8.272 0 0 0 2.93 1.058c1.015.16 2.034.11 3.054-.16l.21.809-.769.332-.27-.625.774-.332.192.816a8.636 8.636 0 0 1-3.442.102 8.283 8.283 0 0 1-3.203-1.246l.461-.7-.395.739c-1.003-.531-1.867-1.274-2.597-2.215a9.994 9.994 0 0 1-1.61-3.078 10.024 10.024 0 0 1-.488-3.34c.067-1.715.488-3.3 1.262-4.754a11.549 11.549 0 0 1 3.035-3.66l.031-.023a11.921 11.921 0 0 1 3.801-1.829 15.209 15.209 0 0 1 4.113-.566h21.5v16.703l-1.394-1.242a25.958 25.958 0 0 0-.817-.688 5.809 5.809 0 0 0-.816-.543l-.031-.015-.028-.02a7.507 7.507 0 0 0-3.101-1.168 7.205 7.205 0 0 0-3.29.282l-.26-.797.788-.285.227.628-.79.282Zm-.222 1.863-.797-2.23.82-.27a8.856 8.856 0 0 1 4.043-.344 9.159 9.159 0 0 1 3.79 1.426l-.462.7.399-.735c.37.203.726.437 1.062.707.309.246.606.496.883.742l-.555.629h-.84v-14h.84v.84H11.402a13.46 13.46 0 0 0-3.664.508 10.105 10.105 0 0 0-3.265 1.57l-.493-.68.52.656a9.933 9.933 0 0 0-2.598 3.137C1.246-24.406.895-23.066.84-21.62a8.262 8.262 0 0 0 .406 2.785c.297.934.746 1.79 1.34 2.559a6.349 6.349 0 0 0 2.059 1.761l.062.04a6.61 6.61 0 0 0 2.566.992c.946.16 1.872.136 2.778-.079l.683-.16.93 2.168-.941.246a8.983 8.983 0 0 1-3.743.196 9.915 9.915 0 0 1-3.51-1.268 9.804 9.804 0 0 1-3.032-2.78l.68-.492h.839V0h-.84v-.84H22.54c1.293 0 2.55-.176 3.77-.523a10.581 10.581 0 0 0 3.378-1.684l.5.676-.515-.66a10.223 10.223 0 0 0 2.707-3.184c.668-1.226 1.027-2.578 1.082-4.058l.84.03h-.84c0-1.48-.344-2.921-1.031-4.323a7.596 7.596 0 0 0-2.95-3.235c-.832-.508-1.78-.851-2.851-1.027-1.035-.168-2.02-.086-2.957.254Zm0 0" style="stroke:none" transform="translate(223.534 320.754)"/></g><g style="fill:#fff;fill-opacity:1"><path d="M27.133-16.727V.883H6.898v-17.61h.84v.84h-.582v-.84h.836v4.774H-.84v-20.235h35.89v20.235h-8.83v-4.774h.836v.84h-.758v-.84Zm-1.676-.835h2.438v4.773h-.84v-.84h7.156v.84h-.84v-18.559h.84v.836H0v-.836h.84v18.559H0v-.84h7.156v.84h-.84v-4.774h2.258V.044h-.836v-.836h18.559v.836h-.84Zm0 0" style="stroke:none" transform="translate(259.482 320.754)"/></g><g style="fill:#fff;fill-opacity:1"><path d="M3.7-28.41a16.945 16.945 0 0 1 5.01-3.48 18.068 18.068 0 0 1 5.86-1.547c2.055-.188 4.075 0 6.055.566l.016.004.015.008c.059.02.106.03.149.039l-.008.008H21.8l-.41 2.257-.79-.097a5.703 5.703 0 0 0-.656-.04h-.761a10.9 10.9 0 0 0-4.23.75 12.465 12.465 0 0 0-3.669 2.22A11.281 11.281 0 0 0 8.68-24.45a9.951 9.951 0 0 0-1.137 3.922c-.106 1.367.14 2.765.742 4.191l-.773.324-.266-.793.54-.18.265.797-.778.313c-.808-2.004-1.02-3.969-.625-5.89a11.571 11.571 0 0 1 2.43-5.106 13.653 13.653 0 0 1 4.477-3.57 12.281 12.281 0 0 1 5.629-1.344c2.418 0 4.617.574 6.593 1.723a15.23 15.23 0 0 1 4.918 4.562 16.917 16.917 0 0 1 2.684 6.234c.469 2.23.469 4.45-.004 6.653a18.015 18.015 0 0 1-2.531 6.093 18.3 18.3 0 0 1-4.567 4.825 16.697 16.697 0 0 1-6.14 2.824 17.764 17.764 0 0 1-16.43-4.645C2.105-5.082.852-6.934-.055-9.062a16.959 16.959 0 0 1-1.367-6.723 17.53 17.53 0 0 1 1.27-6.797 17.2 17.2 0 0 1 3.851-5.828Zm1.187 1.187a15.429 15.429 0 0 0-3.48 5.262 15.863 15.863 0 0 0-1.15 6.176c0 2.12.411 4.14 1.231 6.066.82 1.922 1.95 3.594 3.39 5.004a15.993 15.993 0 0 0 4.466 3.106 15.985 15.985 0 0 0 5.14 1.421c1.79.188 3.543.083 5.27-.316a15.09 15.09 0 0 0 5.531-2.543 16.666 16.666 0 0 0 4.152-4.387 16.322 16.322 0 0 0 2.301-5.53 14.132 14.132 0 0 0-.004-5.962 15.142 15.142 0 0 0-2.414-5.617c-1.183-1.703-2.644-3.059-4.383-4.07-1.718-.996-3.636-1.496-5.753-1.496-1.715 0-3.34.386-4.875 1.164a12.026 12.026 0 0 0-3.934 3.136 9.974 9.974 0 0 0-2.086 4.375c-.324 1.594-.144 3.239.54 4.93l.331.828-2.117.707-.3-.715c-.712-1.675-1-3.336-.872-4.976.129-1.621.57-3.145 1.324-4.574a13.007 13.007 0 0 1 2.989-3.75 14.08 14.08 0 0 1 4.156-2.52 12.546 12.546 0 0 1 4.844-.863h.761c.305 0 .59.015.864.05l-.102.833-.828-.149.09-.492.828.148v.84c-.086 0-.195-.011-.324-.039a2.286 2.286 0 0 1-.344-.094l.266-.796-.23.808a14.706 14.706 0 0 0-5.442-.508 16.33 16.33 0 0 0-5.32 1.403 15.273 15.273 0 0 0-4.516 3.14Zm0 0" style="stroke:none" transform="translate(295.922 320.754)"/></g><g style="fill:#fff;fill-opacity:1"><path d="M16.59.84H-.84v-33.387H21.2c1.702 0 3.382.293 5.038.875a12.719 12.719 0 0 1 4.473 2.703c1.434 1.309 2.488 2.82 3.164 4.535.668 1.707.965 3.47.883 5.286-.078 1.824-.567 3.582-1.461 5.273l-.738-.39.75.374a11.558 11.558 0 0 1-2.461 3.278 11.575 11.575 0 0 1-3.516 2.265l-.012.004-.008.004a9.137 9.137 0 0 1-3.542.59 10.134 10.134 0 0 1-3.555-.73c-1.145-.457-2.137-1.086-2.973-1.895a6.678 6.678 0 0 1-1.812-2.957c-.344-1.16-.317-2.414.09-3.77l.804.243-.176.82-.628-.137.175-.816.805.242c-.34 1.125-.375 2.16-.11 3.105a5.517 5.517 0 0 0 1.5 2.489 8.445 8.445 0 0 0 2.665 1.726 9.326 9.326 0 0 0 3.246.7 7.88 7.88 0 0 0 3.215-.547l.308.78-.465-.698c.246-.164.602-.317 1.067-.461l.586-.18 6.261 8.953-.23 1.723H16.848l-3.465-5.395.703-.453.453.703-.625.403-.453-.703.695-.473L18.176.84Zm0-1.68V0l-.692.473-3.613-5.32 2.055-1.321 3.672 5.715-.703.453v-.84h16.5V0l-.832-.11.09-.671.831.11-.687.48-5.723-8.184.688-.48.246.8c-.313.098-.52.18-.633.254l-.074.051-.082.031a9.555 9.555 0 0 1-3.895.664 11.046 11.046 0 0 1-3.824-.824 10.112 10.112 0 0 1-3.187-2.07 7.124 7.124 0 0 1-1.95-3.239c-.355-1.261-.316-2.609.118-4.05l.222-.739 2.27.489-.262.87c-.309 1.032-.34 1.966-.086 2.805.254.86.711 1.602 1.363 2.231a7.51 7.51 0 0 0 2.438 1.547c.95.379 1.941.582 2.973.61a7.478 7.478 0 0 0 2.898-.481l.3.785-.32-.777a9.926 9.926 0 0 0 3.012-1.938 9.997 9.997 0 0 0 2.106-2.805l.007-.015c.774-1.469 1.2-2.992 1.266-4.567a11.107 11.107 0 0 0-.77-4.597c-.578-1.473-1.492-2.782-2.742-3.918a11.123 11.123 0 0 0-3.886-2.352 13.428 13.428 0 0 0-4.485-.777H0v-.84h.84V0H0v-.84Zm0 0" style="stroke:none" transform="translate(330.529 320.754)"/></g><g style="fill:#fff;fill-opacity:1"><path d="M17.734-5.836 20.211.84H-.84v-33.074h24.706l3.028 7.504-.778.312v-.84h.582v.84l-.781-.305 2.937-7.511h23.008V.84h-19.27L36.19-9.793l.793.266-.246.804-.582-.18.246-.8.79.277L33.55.84H19.14l-2.395-6.45.785-.292.438.715-.582.355-.438-.715Zm-1.812-.062 2.039-1.254 2.547 6.859-.785.293v-.84H32.96V0l-.793-.281 3.715-10.461 2.172.668L34.559.27 33.766 0v-.84h17.261V0h-.84v-31.395h.84v.84H29.426v-.84l.781.305-2.937 7.512h-1.72l-3.027-7.5.778-.317v.84H0v-.84h.84V0H0v-.84h19.008V0l-.79.293-2.054-5.547Zm0 0" style="stroke:none" transform="translate(366.253 320.754)"/></g><g style="fill:#fff;fill-opacity:1"><path d="M30.902-20.719H22.18v-.836h.84v.625h-.84v-.84h9.562v12.235H22.18v-.84h.84v.762h-.84v-.84h9.562V.84H-.84v-32.985h32.582v11.426Zm0-1.676v.84h-.84v-9.75h.84v.84H0v-.84h.84V0H0v-.84h30.902V0h-.84v-9.613h.84v.836h-9.558v-2.438h9.558v.84h-.84V-20.93h.84v.84h-9.558v-2.305Zm0 0" style="stroke:none" transform="translate(419.505 320.754)"/></g><g style="fill:#fff;fill-opacity:1"><path d="M16.59.84H-.84v-33.387H21.2c1.702 0 3.382.293 5.038.875a12.719 12.719 0 0 1 4.473 2.703c1.434 1.309 2.488 2.82 3.164 4.535.668 1.707.965 3.47.883 5.286-.078 1.824-.567 3.582-1.461 5.273l-.738-.39.75.374a11.558 11.558 0 0 1-2.461 3.278 11.575 11.575 0 0 1-3.516 2.265l-.012.004-.008.004a9.137 9.137 0 0 1-3.542.59 10.134 10.134 0 0 1-3.555-.73c-1.145-.457-2.137-1.086-2.973-1.895a6.678 6.678 0 0 1-1.812-2.957c-.344-1.16-.317-2.414.09-3.77l.804.243-.176.82-.628-.137.175-.816.805.242c-.34 1.125-.375 2.16-.11 3.105a5.517 5.517 0 0 0 1.5 2.489 8.445 8.445 0 0 0 2.665 1.726 9.326 9.326 0 0 0 3.246.7 7.88 7.88 0 0 0 3.215-.547l.308.78-.465-.698c.246-.164.602-.317 1.067-.461l.586-.18 6.261 8.953-.23 1.723H16.848l-3.465-5.395.703-.453.453.703-.625.403-.453-.703.695-.473L18.176.84Zm0-1.68V0l-.692.473-3.613-5.32 2.055-1.321 3.672 5.715-.703.453v-.84h16.5V0l-.832-.11.09-.671.831.11-.687.48-5.723-8.184.688-.48.246.8c-.313.098-.52.18-.633.254l-.074.051-.082.031a9.555 9.555 0 0 1-3.895.664 11.046 11.046 0 0 1-3.824-.824 10.112 10.112 0 0 1-3.187-2.07 7.124 7.124 0 0 1-1.95-3.239c-.355-1.261-.316-2.609.118-4.05l.222-.739 2.27.489-.262.87c-.309 1.032-.34 1.966-.086 2.805.254.86.711 1.602 1.363 2.231a7.51 7.51 0 0 0 2.438 1.547c.95.379 1.941.582 2.973.61a7.478 7.478 0 0 0 2.898-.481l.3.785-.32-.777a9.926 9.926 0 0 0 3.012-1.938 9.997 9.997 0 0 0 2.106-2.805l.007-.015c.774-1.469 1.2-2.992 1.266-4.567a11.107 11.107 0 0 0-.77-4.597c-.578-1.473-1.492-2.782-2.742-3.918a11.123 11.123 0 0 0-3.886-2.352 13.428 13.428 0 0 0-4.485-.777H0v-.84h.84V0H0v-.84Zm0 0" style="stroke:none" transform="translate(452.68 320.754)"/></g><g style="fill:#fff;fill-opacity:1"><path d="M32.438 0H1.233v-82.25h27.422c6.25 0 11.254.906 15.016 2.719 3.758 1.812 6.476 4.297 8.156 7.453 1.676 3.156 2.54 6.71 2.594 10.656.05 2.031-.172 4.246-.672 6.64a18.744 18.744 0 0 1-2.797 6.673c-1.367 2.054-3.367 3.601-6 4.64 3.344.774 5.973 2.133 7.89 4.078 1.927 1.95 3.302 4.258 4.126 6.922.82 2.657 1.234 5.465 1.234 8.422 0 2.856-.453 5.711-1.36 8.563-.906 2.855-2.374 5.449-4.406 7.78-2.03 2.337-4.683 4.204-7.953 5.61C41.223-.695 37.207 0 32.437 0Zm-6.5-32.516v7.813h3.28c1.489 0 2.805-.258 3.954-.781 1.156-.52 1.707-1.578 1.656-3.172-.055-1.532-.617-2.555-1.687-3.078-1.075-.52-2.352-.782-3.828-.782Zm4.03-25.03h-4.03v4.437h3.953c1.207 0 2-.227 2.375-.688.382-.469.578-.945.578-1.437 0-.602-.219-1.141-.657-1.61-.437-.468-1.18-.703-2.218-.703Zm0 0" style="stroke:none" transform="translate(42.502 277.334)"/></g><g style="fill:#fff;fill-opacity:1"><path d="M1.234-23.703V-61.75h24.703v32.281c0 1.367.11 2.532.329 3.5.218.961.93 1.438 2.14 1.438h1.719V-61.75h24.703V0H26.516C22.016 0 17.844-.832 14-2.5c-3.844-1.676-6.934-4.27-9.266-7.781-2.336-3.52-3.5-7.992-3.5-13.422Zm0 0" style="stroke:none" transform="translate(101.938 277.334)"/></g><g style="fill:#fff;fill-opacity:1"><path d="M25.938 0H1.233v-61.75h24.703Zm0-65.703H1.233v-24.688h24.703Zm0 0" style="stroke:none" transform="translate(157.999 277.334)"/></g><g style="fill:#fff;fill-opacity:1"><path d="M1.234 0v-82.328h24.703V0Zm0 0" style="stroke:none" transform="translate(185.165 277.334)"/></g><g style="fill:#fff;fill-opacity:1"><path d="M31.703 0c-4.18 0-8.121-.695-11.828-2.094-3.7-1.406-6.934-3.437-9.703-6.094-2.774-2.664-4.953-5.906-6.547-9.718-1.594-3.813-2.39-8.133-2.39-12.969 0-6.363 1.132-11.848 3.406-16.453C6.92-51.941 10.328-55.5 14.859-58c4.532-2.5 10.145-3.75 16.844-3.75v-20.578h24.688V0Zm0-37.875c-1.105 0-2.043.344-2.812 1.031-.762.688-1.352 1.555-1.766 2.594-.406 1.043-.61 2.059-.61 3.047 0 1.867.505 3.46 1.516 4.781 1.02 1.313 2.242 1.969 3.672 1.969Zm0 0" style="stroke:none" transform="translate(212.33 277.334)"/></g><g style="fill:#fff;fill-opacity:1"><path d="M25.938 0H1.233v-61.75h24.703Zm0-65.703H1.233v-24.688h24.703Zm0 0" style="stroke:none" transform="translate(269.956 277.334)"/></g><g style="fill:#fff;fill-opacity:1"><path d="M1.234-61.75h28.328c4.5 0 8.665.855 12.5 2.563 3.844 1.699 6.93 4.292 9.266 7.78 2.332 3.481 3.5 7.938 3.5 13.376V0H30.125v-32.266c0-1.425-.094-2.609-.281-3.547-.188-.937-.918-1.406-2.188-1.406h-1.718V0H1.233Zm0 0" style="stroke:none" transform="translate(297.122 277.334)"/></g><g style="fill:#fff;fill-opacity:1"><path d="M31.703 0c-6.7 0-12.312-1.242-16.844-3.734-4.53-2.5-7.937-6.055-10.218-10.672-2.274-4.614-3.407-10.102-3.407-16.469 0-4.988.63-9.297 1.891-12.922 1.258-3.625 2.973-6.672 5.14-9.14 2.176-2.47 4.618-4.442 7.329-5.922a30.896 30.896 0 0 1 8.562-3.172c3-.633 5.926-.953 8.782-.953 4 0 7.82.125 11.468.375 3.657.25 7.567.539 11.735.859V3.547c0 5.426-1.168 9.879-3.5 13.36-2.325 3.488-5.407 6.081-9.25 7.78-3.844 1.708-8.016 2.563-12.516 2.563H6.094V2.547l18.187-.078c2.25 0 4.047-.11 5.39-.328 1.352-.22 2.032-.934 2.032-2.141Zm0-38.281c-1.43 0-2.652.715-3.672 2.14-1.011 1.43-1.515 3.133-1.515 5.11 0 1.043.203 2.125.609 3.25.414 1.125 1.004 2.058 1.766 2.797.77.742 1.707 1.109 2.812 1.109Zm0 0" style="stroke:none" transform="translate(353.182 277.334)"/></g><g style="fill:#fff;fill-opacity:1"><path d="M3.11-11.516v10.204h5.437V0H1.672v-11.516Zm0 0" style="stroke:none" transform="translate(42.876 360.428)"/></g><g style="fill:#fff;fill-opacity:1"><path d="M4.797.156c-1.094 0-1.953-.297-2.578-.89-.625-.594-.938-1.414-.938-2.47v-2.39c0-1.039.313-1.86.938-2.453.625-.601 1.484-.906 2.578-.906 1.094 0 1.953.305 2.578.906.625.594.938 1.414.938 2.453v1.61H2.718v.703c0 .68.18 1.21.547 1.594.363.375.875.562 1.53.562.477 0 .891-.07 1.235-.219.352-.144.617-.363.797-.656h1.438c-.188.68-.594 1.21-1.22 1.594-.616.375-1.366.562-2.25.562Zm2.078-5.328v-.422c0-.656-.184-1.164-.547-1.531-.367-.363-.875-.547-1.531-.547-.668 0-1.184.184-1.547.547-.355.367-.531.875-.531 1.531v.422Zm0 0" style="stroke:none" transform="translate(52.462 360.428)"/></g><g style="fill:#fff;fill-opacity:1"><path d="M1-2.563c0-.414.07-.789.219-1.124.144-.333.351-.614.625-.844.27-.239.597-.422.984-.547a3.946 3.946 0 0 1 1.297-.203H6.75V-6c0-.54-.184-.96-.547-1.266-.355-.3-.867-.453-1.531-.453-.492 0-.914.094-1.266.282-.344.18-.574.421-.687.734H1.28c.145-.688.524-1.234 1.14-1.64.614-.407 1.376-.61 2.282-.61 1.082 0 1.93.258 2.547.765.625.5.938 1.204.938 2.11V0H6.875v-1.672H6.75a2.25 2.25 0 0 1-.984 1.344c-.512.324-1.133.484-1.86.484-.886 0-1.594-.242-2.125-.734C1.258-1.066 1-1.727 1-2.563Zm3.219 1.547c.363 0 .695-.046 1-.14.312-.102.578-.242.797-.422.226-.176.406-.379.53-.61.134-.238.204-.492.204-.765v-1.203H4.156c-.531 0-.949.14-1.25.422-.304.273-.453.652-.453 1.14 0 .492.149.875.453 1.156.313.282.75.422 1.313.422Zm0 0" style="stroke:none" transform="translate(62.048 360.428)"/></g><g style="fill:#fff;fill-opacity:1"><path d="M1.797-8.797h1.36v1.531h.124c.133-.53.422-.941.86-1.234.437-.3.972-.453 1.609-.453.926 0 1.656.293 2.188.875.53.586.796 1.383.796 2.39v.5H7.281v-.328c0-.687-.172-1.218-.515-1.593-.344-.383-.836-.579-1.47-.579-.636 0-1.14.2-1.515.594-.367.387-.547.914-.547 1.578V0H1.797Zm0 0" style="stroke:none" transform="translate(71.634 360.428)"/></g><g style="fill:#fff;fill-opacity:1"><path d="M1.406 0v-8.797h1.36v1.531h.125c.132-.539.41-.957.828-1.25.426-.289.957-.437 1.594-.437.437 0 .832.078 1.187.234.352.149.656.356.906.625.25.274.442.602.578.985.145.375.22.796.22 1.265V0H6.765v-5.61c0-.675-.172-1.195-.516-1.562-.344-.375-.82-.562-1.422-.562-.605 0-1.09.203-1.453.609-.355.398-.531.934-.531 1.61V0Zm0 0" style="stroke:none" transform="translate(81.22 360.428)"/></g><g style="fill:#fff;fill-opacity:1"><path d="M4.563.156c-.93 0-1.696-.207-2.297-.625-.606-.426-.95-.988-1.032-1.687H2.75c.063.312.258.562.594.75.332.187.738.281 1.219.281H5c.57 0 1.02-.117 1.344-.36a1.15 1.15 0 0 0 .484-.968c0-.688-.492-1.102-1.469-1.25l-1.328-.203c-.867-.125-1.511-.395-1.937-.813-.43-.414-.64-.992-.64-1.734 0-.79.28-1.406.843-1.844.562-.437 1.344-.656 2.344-.656h.437c.426 0 .82.058 1.188.172.363.105.68.258.953.453.281.187.508.422.687.703.176.273.29.57.344.89H6.734c-.062-.269-.246-.492-.546-.671-.305-.176-.672-.266-1.11-.266h-.437c-.555 0-.98.11-1.282.328-.304.211-.453.528-.453.953 0 .344.102.606.313.782.207.168.547.28 1.015.343l1.329.204c.945.136 1.632.414 2.062.828.438.418.656 1.007.656 1.765 0 .824-.289 1.469-.86 1.938C6.849-.071 6.04.156 5 .156Zm0 0" style="stroke:none" transform="translate(100.392 360.428)"/></g><g style="fill:#fff;fill-opacity:1"><path d="M.984-8.797h1.141V-7.5h.11c.038-.469.187-.828.437-1.078.258-.25.601-.375 1.031-.375.426 0 .774.125 1.047.375.281.25.477.61.594 1.078h.078c.039-.469.187-.828.437-1.078.258-.25.602-.375 1.032-.375.539 0 .957.203 1.25.61.3.398.453.945.453 1.64V0H7.359v-6.703c0-.363-.086-.645-.25-.844-.168-.195-.406-.297-.718-.297-.649 0-.97.407-.97 1.219V0h-1.25v-6.703c0-.3-.073-.567-.218-.797-.148-.227-.39-.344-.734-.344-.324 0-.574.117-.75.344-.156.219-.235.512-.235.875V0H.984Zm0 0" style="stroke:none" transform="translate(109.978 360.428)"/></g><g style="fill:#fff;fill-opacity:1"><path d="M1-2.563c0-.414.07-.789.219-1.124.144-.333.351-.614.625-.844.27-.239.597-.422.984-.547a3.946 3.946 0 0 1 1.297-.203H6.75V-6c0-.54-.184-.96-.547-1.266-.355-.3-.867-.453-1.531-.453-.492 0-.914.094-1.266.282-.344.18-.574.421-.687.734H1.28c.145-.688.524-1.234 1.14-1.64.614-.407 1.376-.61 2.282-.61 1.082 0 1.93.258 2.547.765.625.5.938 1.204.938 2.11V0H6.875v-1.672H6.75a2.25 2.25 0 0 1-.984 1.344c-.512.324-1.133.484-1.86.484-.886 0-1.594-.242-2.125-.734C1.258-1.066 1-1.727 1-2.563Zm3.219 1.547c.363 0 .695-.046 1-.14.312-.102.578-.242.797-.422.226-.176.406-.379.53-.61.134-.238.204-.492.204-.765v-1.203H4.156c-.531 0-.949.14-1.25.422-.304.273-.453.652-.453 1.14 0 .492.149.875.453 1.156.313.282.75.422 1.313.422Zm0 0" style="stroke:none" transform="translate(119.564 360.428)"/></g><g style="fill:#fff;fill-opacity:1"><path d="M1.797-8.797h1.36v1.531h.124c.133-.53.422-.941.86-1.234.437-.3.972-.453 1.609-.453.926 0 1.656.293 2.188.875.53.586.796 1.383.796 2.39v.5H7.281v-.328c0-.687-.172-1.218-.515-1.593-.344-.383-.836-.579-1.47-.579-.636 0-1.14.2-1.515.594-.367.387-.547.914-.547 1.578V0H1.797Zm0 0" style="stroke:none" transform="translate(129.15 360.428)"/></g><g style="fill:#fff;fill-opacity:1"><path d="M.953-8.797h2.563v-2.719h1.437v2.72h3.438v1.312H4.953v5.218c0 .293.094.528.281.704.188.167.442.25.766.25h2.234V0H6c-.762 0-1.367-.207-1.813-.625-.449-.414-.671-.96-.671-1.64v-5.22H.953Zm0 0" style="stroke:none" transform="translate(138.736 360.428)"/></g><g style="fill:#fff;fill-opacity:1"><path d="M4.797.156c-1.094 0-1.953-.297-2.578-.89-.625-.594-.938-1.414-.938-2.47v-2.39c0-1.039.313-1.86.938-2.453.625-.601 1.484-.906 2.578-.906 1.094 0 1.953.305 2.578.906.625.594.938 1.414.938 2.453v1.61H2.718v.703c0 .68.18 1.21.547 1.594.363.375.875.562 1.53.562.477 0 .891-.07 1.235-.219.352-.144.617-.363.797-.656h1.438c-.188.68-.594 1.21-1.22 1.594-.616.375-1.366.562-2.25.562Zm2.078-5.328v-.422c0-.656-.184-1.164-.547-1.531-.367-.363-.875-.547-1.531-.547-.668 0-1.184.184-1.547.547-.355.367-.531.875-.531 1.531v.422Zm0 0" style="stroke:none" transform="translate(148.322 360.428)"/></g><g style="fill:#fff;fill-opacity:1"><path d="M1.797-8.797h1.36v1.531h.124c.133-.53.422-.941.86-1.234.437-.3.972-.453 1.609-.453.926 0 1.656.293 2.188.875.53.586.796 1.383.796 2.39v.5H7.281v-.328c0-.687-.172-1.218-.515-1.593-.344-.383-.836-.579-1.47-.579-.636 0-1.14.2-1.515.594-.367.387-.547.914-.547 1.578V0H1.797Zm0 0" style="stroke:none" transform="translate(157.908 360.428)"/></g><g style="fill:#fff;fill-opacity:1"><path d="M.484-8.797h1.188l.781 6.031c.02.157.04.352.063.579.02.218.039.437.062.656.031.25.055.508.078.765h.156c.032-.27.063-.523.094-.765.031-.219.063-.442.094-.672.031-.227.055-.414.078-.563L4-8.796h1.578l.89 6.03c.02.157.048.352.079.579.031.23.066.453.11.671l.093.75h.172c.031-.257.062-.515.094-.765.02-.219.039-.438.062-.657.031-.226.055-.421.078-.578l.782-6.03h1.171L7.86 0H5.922l-.938-6.219a16.487 16.487 0 0 1-.062-.562c-.012-.196-.024-.383-.031-.563a9.012 9.012 0 0 1-.016-.562h-.156a27.12 27.12 0 0 0-.032.562c-.011.18-.027.367-.046.563a4.972 4.972 0 0 1-.063.562L3.61 0H1.703Zm0 0" style="stroke:none" transform="translate(177.08 360.428)"/></g><g style="fill:#fff;fill-opacity:1"><path d="M1.516 0v-1.313h3.203v-6.171H1.922v-1.313h4.234v7.485h2.64V0ZM5.03-12.234h.328c.301 0 .547.093.735.28.195.18.297.415.297.704a.887.887 0 0 1-.297.688c-.188.167-.434.25-.735.25H5.03c-.304 0-.554-.083-.75-.25-.187-.165-.281-.395-.281-.688a.93.93 0 0 1 .281-.703c.196-.188.446-.281.75-.281Zm0 0" style="stroke:none" transform="translate(186.667 360.428)"/></g><g style="fill:#fff;fill-opacity:1"><path d="M.953-8.797h2.563v-2.719h1.437v2.72h3.438v1.312H4.953v5.218c0 .293.094.528.281.704.188.167.442.25.766.25h2.234V0H6c-.762 0-1.367-.207-1.813-.625-.449-.414-.671-.96-.671-1.64v-5.22H.953Zm0 0" style="stroke:none" transform="translate(196.253 360.428)"/></g><g style="fill:#fff;fill-opacity:1"><path d="M1.406-11.672h1.438v2.875c0 .156-.008.324-.016.5 0 .168-.008.328-.015.485-.024.18-.04.359-.047.546h.125c.132-.539.41-.957.828-1.25.426-.289.957-.437 1.594-.437.437 0 .832.078 1.187.234.352.149.656.356.906.625.25.274.442.602.578.985.145.375.22.796.22 1.265V0H6.765v-5.61c0-.675-.172-1.195-.516-1.562-.344-.375-.82-.562-1.422-.562-.605 0-1.09.203-1.453.609-.355.398-.531.934-.531 1.61V0H1.406Zm0 0" style="stroke:none" transform="translate(205.839 360.428)"/></g><g style="fill:#fff;fill-opacity:1"><path d="M4.89-11.672c1 0 1.805.277 2.423.828.613.555.976 1.32 1.093 2.297H6.97c-.063-.582-.282-1.035-.657-1.36-.367-.32-.84-.484-1.421-.484-.637 0-1.141.196-1.516.579-.375.386-.563.914-.563 1.578v4.953c0 .68.18 1.21.547 1.594.375.375.883.562 1.532.562.582 0 1.054-.16 1.421-.484.375-.32.594-.77.657-1.344h1.437c-.117.98-.48 1.746-1.094 2.297-.617.543-1.421.812-2.421.812a4.34 4.34 0 0 1-1.47-.234 2.9 2.9 0 0 1-1.093-.688 3.023 3.023 0 0 1-.703-1.093 3.84 3.84 0 0 1-.25-1.422v-4.953c0-.52.082-.993.25-1.422.164-.426.398-.785.703-1.078.3-.301.664-.532 1.094-.688.437-.164.926-.25 1.469-.25Zm0 0" style="stroke:none" transform="translate(225.011 360.428)"/></g><g style="fill:#fff;fill-opacity:1"><path d="M4.797.156c-1.094 0-1.953-.297-2.578-.89-.625-.594-.938-1.414-.938-2.47v-2.39c0-1.039.313-1.86.938-2.453.625-.601 1.484-.906 2.578-.906 1.094 0 1.953.305 2.578.906.625.594.938 1.414.938 2.453v1.61H2.718v.703c0 .68.18 1.21.547 1.594.363.375.875.562 1.53.562.477 0 .891-.07 1.235-.219.352-.144.617-.363.797-.656h1.438c-.188.68-.594 1.21-1.22 1.594-.616.375-1.366.562-2.25.562Zm2.078-5.328v-.422c0-.656-.184-1.164-.547-1.531-.367-.363-.875-.547-1.531-.547-.668 0-1.184.184-1.547.547-.355.367-.531.875-.531 1.531v.422Zm0 0" style="stroke:none" transform="translate(234.597 360.428)"/></g><g style="fill:#fff;fill-opacity:1"><path d="m2.39-8.797 2.016 5.063c.102.242.18.468.235.687a5.232 5.232 0 0 1 .219 1.094h.109a3.36 3.36 0 0 1 .078-.531c.031-.164.07-.352.125-.563.062-.219.133-.445.219-.687l1.843-5.063h1.563L4.53 2.641H2.984l1.22-3.282L.796-8.797Zm0 0" style="stroke:none" transform="translate(244.183 360.428)"/></g><g style="fill:#fff;fill-opacity:1"><path d="M1.281-3.281v-4.953c0-.52.082-.993.25-1.422.164-.426.399-.785.703-1.078a2.943 2.943 0 0 1 1.094-.688c.438-.164.926-.25 1.469-.25a4.05 4.05 0 0 1 1.453.25 2.98 2.98 0 0 1 1.813 1.766c.164.43.25.902.25 1.422v4.953c0 .73-.157 1.36-.47 1.89A2.918 2.918 0 0 1 6.532-.203L8.406 2.64H6.75L5.094.14a.516.516 0 0 1-.125.015h-.172a4.34 4.34 0 0 1-1.469-.234 2.9 2.9 0 0 1-1.094-.688 3.036 3.036 0 0 1-.703-1.093 3.84 3.84 0 0 1-.25-1.422Zm3.516 2.156c.633 0 1.14-.191 1.516-.578.375-.383.562-.91.562-1.578v-4.953c0-.657-.188-1.176-.563-1.563-.375-.394-.882-.594-1.515-.594-.637 0-1.14.2-1.516.594-.375.387-.562.906-.562 1.563v4.953c0 .668.187 1.195.562 1.578.375.387.88.578 1.516.578Zm0 0" style="stroke:none" transform="translate(253.77 360.428)"/></g><g style="fill:#fff;fill-opacity:1"><path d="M1.438-8.797h1.437v5.703c0 1.324.633 1.985 1.906 1.985 1.29 0 1.938-.66 1.938-1.985v-5.703h1.437v5.703c0 1.043-.293 1.844-.875 2.406-.586.563-1.418.844-2.5.844-1.062 0-1.886-.281-2.468-.844-.586-.57-.876-1.375-.876-2.406Zm0 0" style="stroke:none" transform="translate(263.355 360.428)"/></g><g style="fill:#fff;fill-opacity:1"><path d="M4.797.156c-1.094 0-1.953-.297-2.578-.89-.625-.594-.938-1.414-.938-2.47v-2.39c0-1.039.313-1.86.938-2.453.625-.601 1.484-.906 2.578-.906 1.094 0 1.953.305 2.578.906.625.594.938 1.414.938 2.453v1.61H2.718v.703c0 .68.18 1.21.547 1.594.363.375.875.562 1.53.562.477 0 .891-.07 1.235-.219.352-.144.617-.363.797-.656h1.438c-.188.68-.594 1.21-1.22 1.594-.616.375-1.366.562-2.25.562Zm2.078-5.328v-.422c0-.656-.184-1.164-.547-1.531-.367-.363-.875-.547-1.531-.547-.668 0-1.184.184-1.547.547-.355.367-.531.875-.531 1.531v.422Zm0 0" style="stroke:none" transform="translate(272.941 360.428)"/></g><g style="fill:#fff;fill-opacity:1"><path d="M4.563.156c-.93 0-1.696-.207-2.297-.625-.606-.426-.95-.988-1.032-1.687H2.75c.063.312.258.562.594.75.332.187.738.281 1.219.281H5c.57 0 1.02-.117 1.344-.36a1.15 1.15 0 0 0 .484-.968c0-.688-.492-1.102-1.469-1.25l-1.328-.203c-.867-.125-1.511-.395-1.937-.813-.43-.414-.64-.992-.64-1.734 0-.79.28-1.406.843-1.844.562-.437 1.344-.656 2.344-.656h.437c.426 0 .82.058 1.188.172.363.105.68.258.953.453.281.187.508.422.687.703.176.273.29.57.344.89H6.734c-.062-.269-.246-.492-.546-.671-.305-.176-.672-.266-1.11-.266h-.437c-.555 0-.98.11-1.282.328-.304.211-.453.528-.453.953 0 .344.102.606.313.782.207.168.547.28 1.015.343l1.329.204c.945.136 1.632.414 2.062.828.438.418.656 1.007.656 1.765 0 .824-.289 1.469-.86 1.938C6.849-.071 6.04.156 5 .156Zm0 0" style="stroke:none" transform="translate(282.527 360.428)"/></g><g style="fill:#fff;fill-opacity:1"><path d="M.953-8.797h2.563v-2.719h1.437v2.72h3.438v1.312H4.953v5.218c0 .293.094.528.281.704.188.167.442.25.766.25h2.234V0H6c-.762 0-1.367-.207-1.813-.625-.449-.414-.671-.96-.671-1.64v-5.22H.953Zm0 0" style="stroke:none" transform="translate(292.113 360.428)"/></g><g style="fill:#fff;fill-opacity:1"><path d="M.234-5.922h9.11v1.281H.234Zm0 0" style="stroke:none" transform="translate(311.286 360.428)"/></g><g style="fill:#fff;fill-opacity:1"><path d="m2.39-8.797 2.016 5.063c.102.242.18.468.235.687a5.232 5.232 0 0 1 .219 1.094h.109a3.36 3.36 0 0 1 .078-.531c.031-.164.07-.352.125-.563.062-.219.133-.445.219-.687l1.843-5.063h1.563L4.53 2.641H2.984l1.22-3.282L.796-8.797Zm0 0" style="stroke:none" transform="translate(330.458 360.428)"/></g><g style="fill:#fff;fill-opacity:1"><path d="M2.719-3.281c0 .68.18 1.21.547 1.594.363.375.875.562 1.53.562.634 0 1.141-.188 1.516-.563.375-.382.563-.914.563-1.593v-2.235c0-.664-.188-1.191-.563-1.578-.375-.383-.882-.578-1.515-.578-.637 0-1.14.195-1.516.578-.375.387-.562.914-.562 1.578ZM1.28-5.516c0-.53.082-1.004.25-1.421.164-.426.399-.786.703-1.079.301-.3.664-.53 1.094-.687.438-.164.926-.25 1.469-.25 1.082 0 1.937.308 2.562.922.633.605.954 1.437.954 2.5v2.25c0 .531-.086 1.011-.25 1.437-.157.43-.387.793-.688 1.094a3.052 3.052 0 0 1-1.11.672 4.36 4.36 0 0 1-1.468.234 4.34 4.34 0 0 1-1.469-.234 2.9 2.9 0 0 1-1.094-.688 3.036 3.036 0 0 1-.703-1.093 3.84 3.84 0 0 1-.25-1.422Zm0 0" style="stroke:none" transform="translate(340.044 360.428)"/></g><g style="fill:#fff;fill-opacity:1"><path d="M1.438-8.797h1.437v5.703c0 1.324.633 1.985 1.906 1.985 1.29 0 1.938-.66 1.938-1.985v-5.703h1.437v5.703c0 1.043-.293 1.844-.875 2.406-.586.563-1.418.844-2.5.844-1.062 0-1.886-.281-2.468-.844-.586-.57-.876-1.375-.876-2.406Zm0 0" style="stroke:none" transform="translate(349.63 360.428)"/></g><g style="fill:#fff;fill-opacity:1"><path d="M1.797-8.797h1.36v1.531h.124c.133-.53.422-.941.86-1.234.437-.3.972-.453 1.609-.453.926 0 1.656.293 2.188.875.53.586.796 1.383.796 2.39v.5H7.281v-.328c0-.687-.172-1.218-.515-1.593-.344-.383-.836-.579-1.47-.579-.636 0-1.14.2-1.515.594-.367.387-.547.914-.547 1.578V0H1.797Zm0 0" style="stroke:none" transform="translate(359.216 360.428)"/></g><g style="fill:#fff;fill-opacity:1"><path d="m.703 0 3.14-11.516h2L8.892 0H7.359l-.812-3.25H3.016L2.203 0Zm2.625-4.438h2.938L5.14-9A15.878 15.878 0 0 1 5-9.61a5.23 5.23 0 0 1-.094-.515l-.062-.422H4.78c-.023.125-.047.266-.078.422a9.338 9.338 0 0 1-.094.516c-.043.187-.093.39-.156.609Zm0 0" style="stroke:none" transform="translate(378.388 360.428)"/></g><g style="fill:#fff;fill-opacity:1"><path d="M4.063-1.266v-8.984H1.515v-1.266h6.562v1.266H5.531v8.984h2.547V0H1.516v-1.266Zm0 0" style="stroke:none" transform="translate(387.974 360.428)"/></g><g style="fill:#fff;fill-opacity:1"><path d="M1.594-5.922h6.39v1.281h-6.39Zm0 0" style="stroke:none" transform="translate(397.56 360.428)"/></g><g style="fill:#fff;fill-opacity:1"><path d="M2.766-8.797v1.531h.125c.132-.539.414-.957.843-1.25.426-.289.97-.437 1.625-.437.446 0 .848.086 1.204.25.363.156.671.383.921.672.258.293.461.652.61 1.078.144.43.219.906.219 1.437v2.235c0 .531-.075 1.011-.22 1.437-.148.43-.35.793-.609 1.094a2.48 2.48 0 0 1-.921.672 2.965 2.965 0 0 1-1.204.234C4.703.156 4.16.008 3.734-.28c-.43-.29-.71-.703-.843-1.235h-.125c.007.18.023.36.046.547.008.156.016.324.016.5.008.168.016.324.016.469v2.64H1.406V-8.796Zm.078 5.516c0 .68.176 1.215.531 1.61.363.386.844.577 1.438.577.632 0 1.132-.191 1.5-.578.375-.394.562-.93.562-1.61v-2.234c0-.687-.184-1.222-.547-1.609-.367-.383-.871-.578-1.516-.578-.593 0-1.074.2-1.437.594-.355.398-.531.93-.531 1.593Zm0 0" style="stroke:none" transform="translate(407.146 360.428)"/></g><g style="fill:#fff;fill-opacity:1"><path d="M2.719-3.281c0 .68.18 1.21.547 1.594.363.375.875.562 1.53.562.634 0 1.141-.188 1.516-.563.375-.382.563-.914.563-1.593v-2.235c0-.664-.188-1.191-.563-1.578-.375-.383-.882-.578-1.515-.578-.637 0-1.14.195-1.516.578-.375.387-.562.914-.562 1.578ZM1.28-5.516c0-.53.082-1.004.25-1.421.164-.426.399-.786.703-1.079.301-.3.664-.53 1.094-.687.438-.164.926-.25 1.469-.25 1.082 0 1.937.308 2.562.922.633.605.954 1.437.954 2.5v2.25c0 .531-.086 1.011-.25 1.437-.157.43-.387.793-.688 1.094a3.052 3.052 0 0 1-1.11.672 4.36 4.36 0 0 1-1.468.234 4.34 4.34 0 0 1-1.469-.234 2.9 2.9 0 0 1-1.094-.688 3.036 3.036 0 0 1-.703-1.093 3.84 3.84 0 0 1-.25-1.422Zm0 0" style="stroke:none" transform="translate(416.732 360.428)"/></g><g style="fill:#fff;fill-opacity:1"><path d="M.484-8.797h1.188l.781 6.031c.02.157.04.352.063.579.02.218.039.437.062.656.031.25.055.508.078.765h.156c.032-.27.063-.523.094-.765.031-.219.063-.442.094-.672.031-.227.055-.414.078-.563L4-8.796h1.578l.89 6.03c.02.157.048.352.079.579.031.23.066.453.11.671l.093.75h.172c.031-.257.062-.515.094-.765.02-.219.039-.438.062-.657.031-.226.055-.421.078-.578l.782-6.03h1.171L7.86 0H5.922l-.938-6.219a16.487 16.487 0 0 1-.062-.562c-.012-.196-.024-.383-.031-.563a9.012 9.012 0 0 1-.016-.562h-.156a27.12 27.12 0 0 0-.032.562c-.011.18-.027.367-.046.563a4.972 4.972 0 0 1-.063.562L3.61 0H1.703Zm0 0" style="stroke:none" transform="translate(426.318 360.428)"/></g><g style="fill:#fff;fill-opacity:1"><path d="M4.797.156c-1.094 0-1.953-.297-2.578-.89-.625-.594-.938-1.414-.938-2.47v-2.39c0-1.039.313-1.86.938-2.453.625-.601 1.484-.906 2.578-.906 1.094 0 1.953.305 2.578.906.625.594.938 1.414.938 2.453v1.61H2.718v.703c0 .68.18 1.21.547 1.594.363.375.875.562 1.53.562.477 0 .891-.07 1.235-.219.352-.144.617-.363.797-.656h1.438c-.188.68-.594 1.21-1.22 1.594-.616.375-1.366.562-2.25.562Zm2.078-5.328v-.422c0-.656-.184-1.164-.547-1.531-.367-.363-.875-.547-1.531-.547-.668 0-1.184.184-1.547.547-.355.367-.531.875-.531 1.531v.422Zm0 0" style="stroke:none" transform="translate(435.905 360.428)"/></g><g style="fill:#fff;fill-opacity:1"><path d="M1.797-8.797h1.36v1.531h.124c.133-.53.422-.941.86-1.234.437-.3.972-.453 1.609-.453.926 0 1.656.293 2.188.875.53.586.796 1.383.796 2.39v.5H7.281v-.328c0-.687-.172-1.218-.515-1.593-.344-.383-.836-.579-1.47-.579-.636 0-1.14.2-1.515.594-.367.387-.547.914-.547 1.578V0H1.797Zm0 0" style="stroke:none" transform="translate(445.49 360.428)"/></g><g style="fill:#fff;fill-opacity:1"><path d="M4.797.156c-1.094 0-1.953-.297-2.578-.89-.625-.594-.938-1.414-.938-2.47v-2.39c0-1.039.313-1.86.938-2.453.625-.601 1.484-.906 2.578-.906 1.094 0 1.953.305 2.578.906.625.594.938 1.414.938 2.453v1.61H2.718v.703c0 .68.18 1.21.547 1.594.363.375.875.562 1.53.562.477 0 .891-.07 1.235-.219.352-.144.617-.363.797-.656h1.438c-.188.68-.594 1.21-1.22 1.594-.616.375-1.366.562-2.25.562Zm2.078-5.328v-.422c0-.656-.184-1.164-.547-1.531-.367-.363-.875-.547-1.531-.547-.668 0-1.184.184-1.547.547-.355.367-.531.875-.531 1.531v.422Zm0 0" style="stroke:none" transform="translate(455.077 360.428)"/></g><g style="fill:#fff;fill-opacity:1"><path d="M1.281-5.516c0-.53.067-1.007.203-1.437.145-.426.348-.785.61-1.078.258-.29.566-.516.922-.672a2.93 2.93 0 0 1 1.218-.25c.645 0 1.18.148 1.61.437.426.293.71.711.86 1.25h.124a28.158 28.158 0 0 1-.031-.546 5.283 5.283 0 0 1-.047-.5v-3.36h1.438V0h-1.36v-1.516h-.125c-.148.532-.433.946-.86 1.235-.429.289-.964.437-1.609.437-.449 0-.855-.078-1.218-.234a2.613 2.613 0 0 1-.922-.672 3.192 3.192 0 0 1-.61-1.094 4.699 4.699 0 0 1-.203-1.437Zm3.5 4.422c.594 0 1.067-.191 1.422-.578.363-.394.547-.93.547-1.61v-2.234c0-.664-.184-1.195-.547-1.593-.355-.395-.828-.594-1.422-.594-.656 0-1.168.195-1.531.578-.355.387-.531.922-.531 1.61v2.234c0 .68.18 1.215.547 1.61.363.386.867.577 1.515.577Zm0 0" style="stroke:none" transform="translate(464.663 360.428)"/></g><g style="fill:#fff;fill-opacity:1"><path d="M4.563.156c-.93 0-1.696-.207-2.297-.625-.606-.426-.95-.988-1.032-1.687H2.75c.063.312.258.562.594.75.332.187.738.281 1.219.281H5c.57 0 1.02-.117 1.344-.36a1.15 1.15 0 0 0 .484-.968c0-.688-.492-1.102-1.469-1.25l-1.328-.203c-.867-.125-1.511-.395-1.937-.813-.43-.414-.64-.992-.64-1.734 0-.79.28-1.406.843-1.844.562-.437 1.344-.656 2.344-.656h.437c.426 0 .82.058 1.188.172.363.105.68.258.953.453.281.187.508.422.687.703.176.273.29.57.344.89H6.734c-.062-.269-.246-.492-.546-.671-.305-.176-.672-.266-1.11-.266h-.437c-.555 0-.98.11-1.282.328-.304.211-.453.528-.453.953 0 .344.102.606.313.782.207.168.547.28 1.015.343l1.329.204c.945.136 1.632.414 2.062.828.438.418.656 1.007.656 1.765 0 .824-.289 1.469-.86 1.938C6.849-.071 6.04.156 5 .156Zm0 0" style="stroke:none" transform="translate(42.876 382.152)"/></g><g style="fill:#fff;fill-opacity:1"><path d="M.953-8.797h2.563v-2.719h1.437v2.72h3.438v1.312H4.953v5.218c0 .293.094.528.281.704.188.167.442.25.766.25h2.234V0H6c-.762 0-1.367-.207-1.813-.625-.449-.414-.671-.96-.671-1.64v-5.22H.953Zm0 0" style="stroke:none" transform="translate(52.462 382.152)"/></g><g style="fill:#fff;fill-opacity:1"><path d="M1.438-8.797h1.437v5.703c0 1.324.633 1.985 1.906 1.985 1.29 0 1.938-.66 1.938-1.985v-5.703h1.437v5.703c0 1.043-.293 1.844-.875 2.406-.586.563-1.418.844-2.5.844-1.062 0-1.886-.281-2.468-.844-.586-.57-.876-1.375-.876-2.406Zm0 0" style="stroke:none" transform="translate(62.048 382.152)"/></g><g style="fill:#fff;fill-opacity:1"><path d="M1.281-5.516c0-.53.067-1.007.203-1.437.145-.426.348-.785.61-1.078.258-.29.566-.516.922-.672a2.93 2.93 0 0 1 1.218-.25c.645 0 1.18.148 1.61.437.426.293.71.711.86 1.25h.124a28.158 28.158 0 0 1-.031-.546 5.283 5.283 0 0 1-.047-.5v-3.36h1.438V0h-1.36v-1.516h-.125c-.148.532-.433.946-.86 1.235-.429.289-.964.437-1.609.437-.449 0-.855-.078-1.218-.234a2.613 2.613 0 0 1-.922-.672 3.192 3.192 0 0 1-.61-1.094 4.699 4.699 0 0 1-.203-1.437Zm3.5 4.422c.594 0 1.067-.191 1.422-.578.363-.394.547-.93.547-1.61v-2.234c0-.664-.184-1.195-.547-1.593-.355-.395-.828-.594-1.422-.594-.656 0-1.168.195-1.531.578-.355.387-.531.922-.531 1.61v2.234c0 .68.18 1.215.547 1.61.363.386.867.577 1.515.577Zm0 0" style="stroke:none" transform="translate(71.634 382.152)"/></g><g style="fill:#fff;fill-opacity:1"><path d="m2.39-8.797 2.016 5.063c.102.242.18.468.235.687a5.232 5.232 0 0 1 .219 1.094h.109a3.36 3.36 0 0 1 .078-.531c.031-.164.07-.352.125-.563.062-.219.133-.445.219-.687l1.843-5.063h1.563L4.53 2.641H2.984l1.22-3.282L.796-8.797Zm0 0" style="stroke:none" transform="translate(81.22 382.152)"/></g><g style="fill:#fff;fill-opacity:1"><path d="M4.922.156a4.34 4.34 0 0 1-1.469-.234A2.9 2.9 0 0 1 2.36-.766a3.036 3.036 0 0 1-.703-1.093 3.84 3.84 0 0 1-.25-1.422v-2.235c0-.52.082-.992.25-1.421.164-.426.399-.786.703-1.079.301-.3.664-.53 1.094-.687.438-.164.926-.25 1.469-.25.969 0 1.766.265 2.39.797.625.523 1 1.242 1.125 2.156H7a1.84 1.84 0 0 0-.688-1.219c-.375-.3-.84-.453-1.39-.453-.637 0-1.14.195-1.516.578-.375.387-.562.914-.562 1.578v2.235c0 .68.18 1.21.547 1.594.375.375.882.562 1.53.562.552 0 1.016-.148 1.391-.453.383-.3.614-.707.688-1.219h1.438c-.137.93-.516 1.652-1.141 2.172-.625.523-1.418.781-2.375.781Zm0 0" style="stroke:none" transform="translate(100.392 382.152)"/></g><g style="fill:#fff;fill-opacity:1"><path d="M2.719-3.281c0 .68.18 1.21.547 1.594.363.375.875.562 1.53.562.634 0 1.141-.188 1.516-.563.375-.382.563-.914.563-1.593v-2.235c0-.664-.188-1.191-.563-1.578-.375-.383-.882-.578-1.515-.578-.637 0-1.14.195-1.516.578-.375.387-.562.914-.562 1.578ZM1.28-5.516c0-.53.082-1.004.25-1.421.164-.426.399-.786.703-1.079.301-.3.664-.53 1.094-.687.438-.164.926-.25 1.469-.25 1.082 0 1.937.308 2.562.922.633.605.954 1.437.954 2.5v2.25c0 .531-.086 1.011-.25 1.437-.157.43-.387.793-.688 1.094a3.052 3.052 0 0 1-1.11.672 4.36 4.36 0 0 1-1.468.234 4.34 4.34 0 0 1-1.469-.234 2.9 2.9 0 0 1-1.094-.688 3.036 3.036 0 0 1-.703-1.093 3.84 3.84 0 0 1-.25-1.422Zm0 0" style="stroke:none" transform="translate(109.978 382.152)"/></g><g style="fill:#fff;fill-opacity:1"><path d="M.984-8.797h1.141V-7.5h.11c.038-.469.187-.828.437-1.078.258-.25.601-.375 1.031-.375.426 0 .774.125 1.047.375.281.25.477.61.594 1.078h.078c.039-.469.187-.828.437-1.078.258-.25.602-.375 1.032-.375.539 0 .957.203 1.25.61.3.398.453.945.453 1.64V0H7.359v-6.703c0-.363-.086-.645-.25-.844-.168-.195-.406-.297-.718-.297-.649 0-.97.407-.97 1.219V0h-1.25v-6.703c0-.3-.073-.567-.218-.797-.148-.227-.39-.344-.734-.344-.324 0-.574.117-.75.344-.156.219-.235.512-.235.875V0H.984Zm0 0" style="stroke:none" transform="translate(119.564 382.152)"/></g><g style="fill:#fff;fill-opacity:1"><path d="M2.766-8.797v1.531h.125c.132-.539.414-.957.843-1.25.426-.289.97-.437 1.625-.437.446 0 .848.086 1.204.25.363.156.671.383.921.672.258.293.461.652.61 1.078.144.43.219.906.219 1.437v2.235c0 .531-.075 1.011-.22 1.437-.148.43-.35.793-.609 1.094a2.48 2.48 0 0 1-.921.672 2.965 2.965 0 0 1-1.204.234C4.703.156 4.16.008 3.734-.28c-.43-.29-.71-.703-.843-1.235h-.125c.007.18.023.36.046.547.008.156.016.324.016.5.008.168.016.324.016.469v2.64H1.406V-8.796Zm.078 5.516c0 .68.176 1.215.531 1.61.363.386.844.577 1.438.577.632 0 1.132-.191 1.5-.578.375-.394.562-.93.562-1.61v-2.234c0-.687-.184-1.222-.547-1.609-.367-.383-.871-.578-1.516-.578-.593 0-1.074.2-1.437.594-.355.398-.531.93-.531 1.593Zm0 0" style="stroke:none" transform="translate(129.15 382.152)"/></g><g style="fill:#fff;fill-opacity:1"><path d="M1-2.563c0-.414.07-.789.219-1.124.144-.333.351-.614.625-.844.27-.239.597-.422.984-.547a3.946 3.946 0 0 1 1.297-.203H6.75V-6c0-.54-.184-.96-.547-1.266-.355-.3-.867-.453-1.531-.453-.492 0-.914.094-1.266.282-.344.18-.574.421-.687.734H1.28c.145-.688.524-1.234 1.14-1.64.614-.407 1.376-.61 2.282-.61 1.082 0 1.93.258 2.547.765.625.5.938 1.204.938 2.11V0H6.875v-1.672H6.75a2.25 2.25 0 0 1-.984 1.344c-.512.324-1.133.484-1.86.484-.886 0-1.594-.242-2.125-.734C1.258-1.066 1-1.727 1-2.563Zm3.219 1.547c.363 0 .695-.046 1-.14.312-.102.578-.242.797-.422.226-.176.406-.379.53-.61.134-.238.204-.492.204-.765v-1.203H4.156c-.531 0-.949.14-1.25.422-.304.273-.453.652-.453 1.14 0 .492.149.875.453 1.156.313.282.75.422 1.313.422Zm0 0" style="stroke:none" transform="translate(138.736 382.152)"/></g><g style="fill:#fff;fill-opacity:1"><path d="M1.406 0v-8.797h1.36v1.531h.125c.132-.539.41-.957.828-1.25.426-.289.957-.437 1.594-.437.437 0 .832.078 1.187.234.352.149.656.356.906.625.25.274.442.602.578.985.145.375.22.796.22 1.265V0H6.765v-5.61c0-.675-.172-1.195-.516-1.562-.344-.375-.82-.562-1.422-.562-.605 0-1.09.203-1.453.609-.355.398-.531.934-.531 1.61V0Zm0 0" style="stroke:none" transform="translate(148.322 382.152)"/></g><g style="fill:#fff;fill-opacity:1"><path d="M1.516 0v-1.313h3.203v-6.171H1.922v-1.313h4.234v7.485h2.64V0ZM5.03-12.234h.328c.301 0 .547.093.735.28.195.18.297.415.297.704a.887.887 0 0 1-.297.688c-.188.167-.434.25-.735.25H5.03c-.304 0-.554-.083-.75-.25-.187-.165-.281-.395-.281-.688a.93.93 0 0 1 .281-.703c.196-.188.446-.281.75-.281Zm0 0" style="stroke:none" transform="translate(157.908 382.152)"/></g><g style="fill:#fff;fill-opacity:1"><path d="M2.719-3.281c0 .68.18 1.21.547 1.594.363.375.875.562 1.53.562.634 0 1.141-.188 1.516-.563.375-.382.563-.914.563-1.593v-2.235c0-.664-.188-1.191-.563-1.578-.375-.383-.882-.578-1.515-.578-.637 0-1.14.195-1.516.578-.375.387-.562.914-.562 1.578ZM1.28-5.516c0-.53.082-1.004.25-1.421.164-.426.399-.786.703-1.079.301-.3.664-.53 1.094-.687.438-.164.926-.25 1.469-.25 1.082 0 1.937.308 2.562.922.633.605.954 1.437.954 2.5v2.25c0 .531-.086 1.011-.25 1.437-.157.43-.387.793-.688 1.094a3.052 3.052 0 0 1-1.11.672 4.36 4.36 0 0 1-1.468.234 4.34 4.34 0 0 1-1.469-.234 2.9 2.9 0 0 1-1.094-.688 3.036 3.036 0 0 1-.703-1.093 3.84 3.84 0 0 1-.25-1.422Zm0 0" style="stroke:none" transform="translate(167.495 382.152)"/></g><g style="fill:#fff;fill-opacity:1"><path d="M1.406 0v-8.797h1.36v1.531h.125c.132-.539.41-.957.828-1.25.426-.289.957-.437 1.594-.437.437 0 .832.078 1.187.234.352.149.656.356.906.625.25.274.442.602.578.985.145.375.22.796.22 1.265V0H6.765v-5.61c0-.675-.172-1.195-.516-1.562-.344-.375-.82-.562-1.422-.562-.605 0-1.09.203-1.453.609-.355.398-.531.934-.531 1.61V0Zm0 0" style="stroke:none" transform="translate(177.08 382.152)"/></g><g style="fill:#fff;fill-opacity:1"><path d="M3.422-1.266c0-.414.125-.75.375-1s.582-.375 1-.375c.414 0 .75.125 1 .375s.375.586.375 1c0 .43-.125.774-.375 1.032-.25.257-.586.39-1 .39-.418 0-.75-.133-1-.39-.25-.258-.375-.602-.375-1.032Zm0 0" style="stroke:none" transform="translate(186.667 382.152)"/></g><g style="fill:#fff;fill-opacity:1"><path d="m.703 0 3.14-11.516h2L8.892 0H7.359l-.812-3.25H3.016L2.203 0Zm2.625-4.438h2.938L5.14-9A15.878 15.878 0 0 1 5-9.61a5.23 5.23 0 0 1-.094-.515l-.062-.422H4.78c-.023.125-.047.266-.078.422a9.338 9.338 0 0 1-.094.516c-.043.187-.093.39-.156.609Zm0 0" style="stroke:none" transform="translate(205.839 382.152)"/></g><g style="fill:#fff;fill-opacity:1"><path d="M4.563.156c-.93 0-1.696-.207-2.297-.625-.606-.426-.95-.988-1.032-1.687H2.75c.063.312.258.562.594.75.332.187.738.281 1.219.281H5c.57 0 1.02-.117 1.344-.36a1.15 1.15 0 0 0 .484-.968c0-.688-.492-1.102-1.469-1.25l-1.328-.203c-.867-.125-1.511-.395-1.937-.813-.43-.414-.64-.992-.64-1.734 0-.79.28-1.406.843-1.844.562-.437 1.344-.656 2.344-.656h.437c.426 0 .82.058 1.188.172.363.105.68.258.953.453.281.187.508.422.687.703.176.273.29.57.344.89H6.734c-.062-.269-.246-.492-.546-.671-.305-.176-.672-.266-1.11-.266h-.437c-.555 0-.98.11-1.282.328-.304.211-.453.528-.453.953 0 .344.102.606.313.782.207.168.547.28 1.015.343l1.329.204c.945.136 1.632.414 2.062.828.438.418.656 1.007.656 1.765 0 .824-.289 1.469-.86 1.938C6.849-.071 6.04.156 5 .156Zm0 0" style="stroke:none" transform="translate(215.425 382.152)"/></g><g style="fill:#fff;fill-opacity:1"><path d="M2.922-11.672v6.563h1.734l2.688-3.688h1.64L5.86-4.547 9.031 0H7.36L4.672-3.844h-1.75V0H1.484v-11.672Zm0 0" style="stroke:none" transform="translate(225.011 382.152)"/></g><g style="fill:#fff;fill-opacity:1"><path d="M4.563.156c-.93 0-1.696-.207-2.297-.625-.606-.426-.95-.988-1.032-1.687H2.75c.063.312.258.562.594.75.332.187.738.281 1.219.281H5c.57 0 1.02-.117 1.344-.36a1.15 1.15 0 0 0 .484-.968c0-.688-.492-1.102-1.469-1.25l-1.328-.203c-.867-.125-1.511-.395-1.937-.813-.43-.414-.64-.992-.64-1.734 0-.79.28-1.406.843-1.844.562-.437 1.344-.656 2.344-.656h.437c.426 0 .82.058 1.188.172.363.105.68.258.953.453.281.187.508.422.687.703.176.273.29.57.344.89H6.734c-.062-.269-.246-.492-.546-.671-.305-.176-.672-.266-1.11-.266h-.437c-.555 0-.98.11-1.282.328-.304.211-.453.528-.453.953 0 .344.102.606.313.782.207.168.547.28 1.015.343l1.329.204c.945.136 1.632.414 2.062.828.438.418.656 1.007.656 1.765 0 .824-.289 1.469-.86 1.938C6.849-.071 6.04.156 5 .156Zm0 0" style="stroke:none" transform="translate(244.183 382.152)"/></g><g style="fill:#fff;fill-opacity:1"><path d="m2.39-8.797 2.016 5.063c.102.242.18.468.235.687a5.232 5.232 0 0 1 .219 1.094h.109a3.36 3.36 0 0 1 .078-.531c.031-.164.07-.352.125-.563.062-.219.133-.445.219-.687l1.843-5.063h1.563L4.53 2.641H2.984l1.22-3.282L.796-8.797Zm0 0" style="stroke:none" transform="translate(253.77 382.152)"/></g><g style="fill:#fff;fill-opacity:1"><path d="M4.984-11.672v9.11c0 .398.102.703.313.921.219.22.516.329.89.329h2.61V0h-2.61C5.364 0 4.72-.223 4.25-.672c-.469-.457-.703-1.086-.703-1.89v-7.797H.64v-1.313Zm0 0" style="stroke:none" transform="translate(263.355 382.152)"/></g><g style="fill:#fff;fill-opacity:1"><path d="M4.984-11.672v9.11c0 .398.102.703.313.921.219.22.516.329.89.329h2.61V0h-2.61C5.364 0 4.72-.223 4.25-.672c-.469-.457-.703-1.086-.703-1.89v-7.797H.64v-1.313Zm0 0" style="stroke:none" transform="translate(272.941 382.152)"/></g><g style="fill:#fff;fill-opacity:1"><path d="M1-2.563c0-.414.07-.789.219-1.124.144-.333.351-.614.625-.844.27-.239.597-.422.984-.547a3.946 3.946 0 0 1 1.297-.203H6.75V-6c0-.54-.184-.96-.547-1.266-.355-.3-.867-.453-1.531-.453-.492 0-.914.094-1.266.282-.344.18-.574.421-.687.734H1.28c.145-.688.524-1.234 1.14-1.64.614-.407 1.376-.61 2.282-.61 1.082 0 1.93.258 2.547.765.625.5.938 1.204.938 2.11V0H6.875v-1.672H6.75a2.25 2.25 0 0 1-.984 1.344c-.512.324-1.133.484-1.86.484-.886 0-1.594-.242-2.125-.734C1.258-1.066 1-1.727 1-2.563Zm3.219 1.547c.363 0 .695-.046 1-.14.312-.102.578-.242.797-.422.226-.176.406-.379.53-.61.134-.238.204-.492.204-.765v-1.203H4.156c-.531 0-.949.14-1.25.422-.304.273-.453.652-.453 1.14 0 .492.149.875.453 1.156.313.282.75.422 1.313.422Zm0 0" style="stroke:none" transform="translate(282.527 382.152)"/></g><g style="fill:#fff;fill-opacity:1"><path d="M1.406-11.672h1.438v2.719c0 .148-.008.32-.016.515 0 .2-.008.387-.015.563-.024.2-.04.402-.047.61h.125c.132-.54.414-.958.843-1.25.426-.29.97-.438 1.625-.438.446 0 .848.086 1.204.25.363.156.671.383.921.672.258.293.461.652.61 1.078.144.43.219.906.219 1.437v2.235c0 .531-.075 1.011-.22 1.437-.148.43-.35.793-.609 1.094a2.48 2.48 0 0 1-.921.672 2.965 2.965 0 0 1-1.204.234C4.703.156 4.16.008 3.734-.28c-.43-.29-.71-.703-.843-1.235h-.125V0h-1.36Zm1.438 8.39c0 .68.176 1.216.531 1.61.363.387.844.578 1.438.578.632 0 1.132-.191 1.5-.578.375-.394.562-.93.562-1.61v-2.234c0-.687-.184-1.222-.547-1.609-.367-.383-.871-.578-1.516-.578-.593 0-1.074.2-1.437.594-.355.398-.531.93-.531 1.593Zm0 0" style="stroke:none" transform="translate(292.113 382.152)"/></g><g style="fill:#fff;fill-opacity:1"><path d="M1.438-8.797h1.437v5.703c0 1.324.633 1.985 1.906 1.985 1.29 0 1.938-.66 1.938-1.985v-5.703h1.437v5.703c0 1.043-.293 1.844-.875 2.406-.586.563-1.418.844-2.5.844-1.062 0-1.886-.281-2.468-.844-.586-.57-.876-1.375-.876-2.406Zm0 0" style="stroke:none" transform="translate(301.7 382.152)"/></g><g style="fill:#fff;fill-opacity:1"><path d="M4.563.156c-.93 0-1.696-.207-2.297-.625-.606-.426-.95-.988-1.032-1.687H2.75c.063.312.258.562.594.75.332.187.738.281 1.219.281H5c.57 0 1.02-.117 1.344-.36a1.15 1.15 0 0 0 .484-.968c0-.688-.492-1.102-1.469-1.25l-1.328-.203c-.867-.125-1.511-.395-1.937-.813-.43-.414-.64-.992-.64-1.734 0-.79.28-1.406.843-1.844.562-.437 1.344-.656 2.344-.656h.437c.426 0 .82.058 1.188.172.363.105.68.258.953.453.281.187.508.422.687.703.176.273.29.57.344.89H6.734c-.062-.269-.246-.492-.546-.671-.305-.176-.672-.266-1.11-.266h-.437c-.555 0-.98.11-1.282.328-.304.211-.453.528-.453.953 0 .344.102.606.313.782.207.168.547.28 1.015.343l1.329.204c.945.136 1.632.414 2.062.828.438.418.656 1.007.656 1.765 0 .824-.289 1.469-.86 1.938C6.849-.071 6.04.156 5 .156Zm0 0" style="stroke:none" transform="translate(311.286 382.152)"/></g><g style="fill:#fff;fill-opacity:1"><path d="M1.406-5.672c0-.488.07-.937.219-1.344.145-.406.344-.75.594-1.03.258-.29.566-.517.922-.673.363-.156.77-.234 1.218-.234.657 0 1.196.148 1.625.437.426.293.707.711.844 1.25h.125v-1.53h1.36V2.64H6.875V-.47c.008-.176.023-.344.047-.5.008-.187.02-.367.031-.547h-.125c-.137.532-.418.946-.844 1.235-.43.289-.968.437-1.625.437-.449 0-.855-.074-1.218-.218a2.613 2.613 0 0 1-.922-.672c-.25-.29-.45-.633-.594-1.032a3.88 3.88 0 0 1-.219-1.343Zm1.438 2.39c0 .68.18 1.216.547 1.61.375.387.879.578 1.515.578.594 0 1.067-.191 1.422-.578.363-.394.547-.93.547-1.61v-2.234c0-.664-.184-1.195-.547-1.593-.355-.395-.828-.594-1.422-.594-.648 0-1.152.195-1.515.578-.368.387-.547.922-.547 1.61Zm0 0" style="stroke:none" transform="translate(330.458 382.152)"/></g><g style="fill:#fff;fill-opacity:1"><path d="M1.438-8.797h1.437v5.703c0 1.324.633 1.985 1.906 1.985 1.29 0 1.938-.66 1.938-1.985v-5.703h1.437v5.703c0 1.043-.293 1.844-.875 2.406-.586.563-1.418.844-2.5.844-1.062 0-1.886-.281-2.468-.844-.586-.57-.876-1.375-.876-2.406Zm0 0" style="stroke:none" transform="translate(340.044 382.152)"/></g><g style="fill:#fff;fill-opacity:1"><path d="M4.797.156c-1.094 0-1.953-.297-2.578-.89-.625-.594-.938-1.414-.938-2.47v-2.39c0-1.039.313-1.86.938-2.453.625-.601 1.484-.906 2.578-.906 1.094 0 1.953.305 2.578.906.625.594.938 1.414.938 2.453v1.61H2.718v.703c0 .68.18 1.21.547 1.594.363.375.875.562 1.53.562.477 0 .891-.07 1.235-.219.352-.144.617-.363.797-.656h1.438c-.188.68-.594 1.21-1.22 1.594-.616.375-1.366.562-2.25.562Zm2.078-5.328v-.422c0-.656-.184-1.164-.547-1.531-.367-.363-.875-.547-1.531-.547-.668 0-1.184.184-1.547.547-.355.367-.531.875-.531 1.531v.422Zm0 0" style="stroke:none" transform="translate(349.63 382.152)"/></g><g style="fill:#fff;fill-opacity:1"><path d="M4.563.156c-.93 0-1.696-.207-2.297-.625-.606-.426-.95-.988-1.032-1.687H2.75c.063.312.258.562.594.75.332.187.738.281 1.219.281H5c.57 0 1.02-.117 1.344-.36a1.15 1.15 0 0 0 .484-.968c0-.688-.492-1.102-1.469-1.25l-1.328-.203c-.867-.125-1.511-.395-1.937-.813-.43-.414-.64-.992-.64-1.734 0-.79.28-1.406.843-1.844.562-.437 1.344-.656 2.344-.656h.437c.426 0 .82.058 1.188.172.363.105.68.258.953.453.281.187.508.422.687.703.176.273.29.57.344.89H6.734c-.062-.269-.246-.492-.546-.671-.305-.176-.672-.266-1.11-.266h-.437c-.555 0-.98.11-1.282.328-.304.211-.453.528-.453.953 0 .344.102.606.313.782.207.168.547.28 1.015.343l1.329.204c.945.136 1.632.414 2.062.828.438.418.656 1.007.656 1.765 0 .824-.289 1.469-.86 1.938C6.849-.071 6.04.156 5 .156Zm0 0" style="stroke:none" transform="translate(359.216 382.152)"/></g><g style="fill:#fff;fill-opacity:1"><path d="M.953-8.797h2.563v-2.719h1.437v2.72h3.438v1.312H4.953v5.218c0 .293.094.528.281.704.188.167.442.25.766.25h2.234V0H6c-.762 0-1.367-.207-1.813-.625-.449-.414-.671-.96-.671-1.64v-5.22H.953Zm0 0" style="stroke:none" transform="translate(368.802 382.152)"/></g><g style="fill:#fff;fill-opacity:1"><path d="M1.516 0v-1.313h3.203v-6.171H1.922v-1.313h4.234v7.485h2.64V0ZM5.03-12.234h.328c.301 0 .547.093.735.28.195.18.297.415.297.704a.887.887 0 0 1-.297.688c-.188.167-.434.25-.735.25H5.03c-.304 0-.554-.083-.75-.25-.187-.165-.281-.395-.281-.688a.93.93 0 0 1 .281-.703c.196-.188.446-.281.75-.281Zm0 0" style="stroke:none" transform="translate(378.388 382.152)"/></g><g style="fill:#fff;fill-opacity:1"><path d="M2.719-3.281c0 .68.18 1.21.547 1.594.363.375.875.562 1.53.562.634 0 1.141-.188 1.516-.563.375-.382.563-.914.563-1.593v-2.235c0-.664-.188-1.191-.563-1.578-.375-.383-.882-.578-1.515-.578-.637 0-1.14.195-1.516.578-.375.387-.562.914-.562 1.578ZM1.28-5.516c0-.53.082-1.004.25-1.421.164-.426.399-.786.703-1.079.301-.3.664-.53 1.094-.687.438-.164.926-.25 1.469-.25 1.082 0 1.937.308 2.562.922.633.605.954 1.437.954 2.5v2.25c0 .531-.086 1.011-.25 1.437-.157.43-.387.793-.688 1.094a3.052 3.052 0 0 1-1.11.672 4.36 4.36 0 0 1-1.468.234 4.34 4.34 0 0 1-1.469-.234 2.9 2.9 0 0 1-1.094-.688 3.036 3.036 0 0 1-.703-1.093 3.84 3.84 0 0 1-.25-1.422Zm0 0" style="stroke:none" transform="translate(387.974 382.152)"/></g><g style="fill:#fff;fill-opacity:1"><path d="M1.406 0v-8.797h1.36v1.531h.125c.132-.539.41-.957.828-1.25.426-.289.957-.437 1.594-.437.437 0 .832.078 1.187.234.352.149.656.356.906.625.25.274.442.602.578.985.145.375.22.796.22 1.265V0H6.765v-5.61c0-.675-.172-1.195-.516-1.562-.344-.375-.82-.562-1.422-.562-.605 0-1.09.203-1.453.609-.355.398-.531.934-.531 1.61V0Zm0 0" style="stroke:none" transform="translate(397.56 382.152)"/></g><g style="fill:#fff;fill-opacity:1"><path d="M4.563.156c-.93 0-1.696-.207-2.297-.625-.606-.426-.95-.988-1.032-1.687H2.75c.063.312.258.562.594.75.332.187.738.281 1.219.281H5c.57 0 1.02-.117 1.344-.36a1.15 1.15 0 0 0 .484-.968c0-.688-.492-1.102-1.469-1.25l-1.328-.203c-.867-.125-1.511-.395-1.937-.813-.43-.414-.64-.992-.64-1.734 0-.79.28-1.406.843-1.844.562-.437 1.344-.656 2.344-.656h.437c.426 0 .82.058 1.188.172.363.105.68.258.953.453.281.187.508.422.687.703.176.273.29.57.344.89H6.734c-.062-.269-.246-.492-.546-.671-.305-.176-.672-.266-1.11-.266h-.437c-.555 0-.98.11-1.282.328-.304.211-.453.528-.453.953 0 .344.102.606.313.782.207.168.547.28 1.015.343l1.329.204c.945.136 1.632.414 2.062.828.438.418.656 1.007.656 1.765 0 .824-.289 1.469-.86 1.938C6.849-.071 6.04.156 5 .156Zm0 0" style="stroke:none" transform="translate(407.146 382.152)"/></g><g style="fill:#fff;fill-opacity:1"><path d="M3.422-1.266c0-.414.125-.75.375-1s.582-.375 1-.375c.414 0 .75.125 1 .375s.375.586.375 1c0 .43-.125.774-.375 1.032-.25.257-.586.39-1 .39-.418 0-.75-.133-1-.39-.25-.258-.375-.602-.375-1.032Zm0 0" style="stroke:none" transform="translate(416.732 382.152)"/></g><g style="fill:#fff;fill-opacity:1"><path d="M.719-11.516h8.156v1.266H5.531V0H4.063v-10.25H.719Zm0 0" style="stroke:none" transform="translate(435.905 382.152)"/></g><g style="fill:#fff;fill-opacity:1"><path d="M1-2.563c0-.414.07-.789.219-1.124.144-.333.351-.614.625-.844.27-.239.597-.422.984-.547a3.946 3.946 0 0 1 1.297-.203H6.75V-6c0-.54-.184-.96-.547-1.266-.355-.3-.867-.453-1.531-.453-.492 0-.914.094-1.266.282-.344.18-.574.421-.687.734H1.28c.145-.688.524-1.234 1.14-1.64.614-.407 1.376-.61 2.282-.61 1.082 0 1.93.258 2.547.765.625.5.938 1.204.938 2.11V0H6.875v-1.672H6.75a2.25 2.25 0 0 1-.984 1.344c-.512.324-1.133.484-1.86.484-.886 0-1.594-.242-2.125-.734C1.258-1.066 1-1.727 1-2.563Zm3.219 1.547c.363 0 .695-.046 1-.14.312-.102.578-.242.797-.422.226-.176.406-.379.53-.61.134-.238.204-.492.204-.765v-1.203H4.156c-.531 0-.949.14-1.25.422-.304.273-.453.652-.453 1.14 0 .492.149.875.453 1.156.313.282.75.422 1.313.422Zm0 0" style="stroke:none" transform="translate(445.49 382.152)"/></g><g style="fill:#fff;fill-opacity:1"><path d="M2.922-11.672v6.563h1.734l2.688-3.688h1.64L5.86-4.547 9.031 0H7.36L4.672-3.844h-1.75V0H1.484v-11.672Zm0 0" style="stroke:none" transform="translate(455.077 382.152)"/></g><g style="fill:#fff;fill-opacity:1"><path d="M4.797.156c-1.094 0-1.953-.297-2.578-.89-.625-.594-.938-1.414-.938-2.47v-2.39c0-1.039.313-1.86.938-2.453.625-.601 1.484-.906 2.578-.906 1.094 0 1.953.305 2.578.906.625.594.938 1.414.938 2.453v1.61H2.718v.703c0 .68.18 1.21.547 1.594.363.375.875.562 1.53.562.477 0 .891-.07 1.235-.219.352-.144.617-.363.797-.656h1.438c-.188.68-.594 1.21-1.22 1.594-.616.375-1.366.562-2.25.562Zm2.078-5.328v-.422c0-.656-.184-1.164-.547-1.531-.367-.363-.875-.547-1.531-.547-.668 0-1.184.184-1.547.547-.355.367-.531.875-.531 1.531v.422Zm0 0" style="stroke:none" transform="translate(464.663 382.152)"/></g><g style="fill:#fff;fill-opacity:1"><path d="M.953-6.594v-1.312h2.563v-1.532c0-.695.218-1.242.656-1.64.437-.395 1.039-.594 1.812-.594h2.563v1.313H5.984c-.687 0-1.03.308-1.03.921v1.532h3.593v1.312H4.953V0H3.516v-6.594Zm0 0" style="stroke:none" transform="translate(42.876 403.875)"/></g><g style="fill:#fff;fill-opacity:1"><path d="M1.438-8.797h1.437v5.703c0 1.324.633 1.985 1.906 1.985 1.29 0 1.938-.66 1.938-1.985v-5.703h1.437v5.703c0 1.043-.293 1.844-.875 2.406-.586.563-1.418.844-2.5.844-1.062 0-1.886-.281-2.468-.844-.586-.57-.876-1.375-.876-2.406Zm0 0" style="stroke:none" transform="translate(52.462 403.875)"/></g><g style="fill:#fff;fill-opacity:1"><path d="M1.406 0v-8.797h1.36v1.531h.125c.132-.539.41-.957.828-1.25.426-.289.957-.437 1.594-.437.437 0 .832.078 1.187.234.352.149.656.356.906.625.25.274.442.602.578.985.145.375.22.796.22 1.265V0H6.765v-5.61c0-.675-.172-1.195-.516-1.562-.344-.375-.82-.562-1.422-.562-.605 0-1.09.203-1.453.609-.355.398-.531.934-.531 1.61V0Zm0 0" style="stroke:none" transform="translate(62.048 403.875)"/></g><g style="fill:#fff;fill-opacity:1"><path d="M1.406-5.672c0-.488.07-.937.219-1.344.145-.406.344-.75.594-1.03.258-.29.566-.517.922-.673.363-.156.77-.234 1.218-.234.657 0 1.196.148 1.625.437.426.293.707.711.844 1.25h.125v-1.53h1.36V2.64H6.875V-.47c.008-.176.023-.344.047-.5.008-.187.02-.367.031-.547h-.125c-.137.532-.418.946-.844 1.235-.43.289-.968.437-1.625.437-.449 0-.855-.074-1.218-.218a2.613 2.613 0 0 1-.922-.672c-.25-.29-.45-.633-.594-1.032a3.88 3.88 0 0 1-.219-1.343Zm1.438 2.39c0 .68.18 1.216.547 1.61.375.387.879.578 1.515.578.594 0 1.067-.191 1.422-.578.363-.394.547-.93.547-1.61v-2.234c0-.664-.184-1.195-.547-1.593-.355-.395-.828-.594-1.422-.594-.648 0-1.152.195-1.515.578-.368.387-.547.922-.547 1.61Zm0 0" style="stroke:none" transform="translate(81.22 403.875)"/></g><g style="fill:#fff;fill-opacity:1"><path d="M1.438-8.797h1.437v5.703c0 1.324.633 1.985 1.906 1.985 1.29 0 1.938-.66 1.938-1.985v-5.703h1.437v5.703c0 1.043-.293 1.844-.875 2.406-.586.563-1.418.844-2.5.844-1.062 0-1.886-.281-2.468-.844-.586-.57-.876-1.375-.876-2.406Zm0 0" style="stroke:none" transform="translate(90.806 403.875)"/></g><g style="fill:#fff;fill-opacity:1"><path d="M1.516 0v-1.313h3.203v-6.171H1.922v-1.313h4.234v7.485h2.64V0ZM5.03-12.234h.328c.301 0 .547.093.735.28.195.18.297.415.297.704a.887.887 0 0 1-.297.688c-.188.167-.434.25-.735.25H5.03c-.304 0-.554-.083-.75-.25-.187-.165-.281-.395-.281-.688a.93.93 0 0 1 .281-.703c.196-.188.446-.281.75-.281Zm0 0" style="stroke:none" transform="translate(100.392 403.875)"/></g><g style="fill:#fff;fill-opacity:1"><path d="M1.406-8.797h6.735v1.625L2.719-1.219c.113-.008.238-.02.375-.031.125-.008.254-.016.39-.016a7.38 7.38 0 0 1 .438-.015h4.39V0h-7.03v-1.594l5.452-5.968a4.952 4.952 0 0 1-.421.015c-.118.012-.25.024-.407.031h-4.5Zm0 0" style="stroke:none" transform="translate(109.978 403.875)"/></g><g style="fill:#fff;fill-opacity:1"><path d="M1.406-8.797h6.735v1.625L2.719-1.219c.113-.008.238-.02.375-.031.125-.008.254-.016.39-.016a7.38 7.38 0 0 1 .438-.015h4.39V0h-7.03v-1.594l5.452-5.968a4.952 4.952 0 0 1-.421.015c-.118.012-.25.024-.407.031h-4.5Zm0 0" style="stroke:none" transform="translate(119.564 403.875)"/></g><g style="fill:#fff;fill-opacity:1"><path d="M4.797.156c-1.094 0-1.953-.297-2.578-.89-.625-.594-.938-1.414-.938-2.47v-2.39c0-1.039.313-1.86.938-2.453.625-.601 1.484-.906 2.578-.906 1.094 0 1.953.305 2.578.906.625.594.938 1.414.938 2.453v1.61H2.718v.703c0 .68.18 1.21.547 1.594.363.375.875.562 1.53.562.477 0 .891-.07 1.235-.219.352-.144.617-.363.797-.656h1.438c-.188.68-.594 1.21-1.22 1.594-.616.375-1.366.562-2.25.562Zm2.078-5.328v-.422c0-.656-.184-1.164-.547-1.531-.367-.363-.875-.547-1.531-.547-.668 0-1.184.184-1.547.547-.355.367-.531.875-.531 1.531v.422Zm0 0" style="stroke:none" transform="translate(129.15 403.875)"/></g><g style="fill:#fff;fill-opacity:1"><path d="M4.563.156c-.93 0-1.696-.207-2.297-.625-.606-.426-.95-.988-1.032-1.687H2.75c.063.312.258.562.594.75.332.187.738.281 1.219.281H5c.57 0 1.02-.117 1.344-.36a1.15 1.15 0 0 0 .484-.968c0-.688-.492-1.102-1.469-1.25l-1.328-.203c-.867-.125-1.511-.395-1.937-.813-.43-.414-.64-.992-.64-1.734 0-.79.28-1.406.843-1.844.562-.437 1.344-.656 2.344-.656h.437c.426 0 .82.058 1.188.172.363.105.68.258.953.453.281.187.508.422.687.703.176.273.29.57.344.89H6.734c-.062-.269-.246-.492-.546-.671-.305-.176-.672-.266-1.11-.266h-.437c-.555 0-.98.11-1.282.328-.304.211-.453.528-.453.953 0 .344.102.606.313.782.207.168.547.28 1.015.343l1.329.204c.945.136 1.632.414 2.062.828.438.418.656 1.007.656 1.765 0 .824-.289 1.469-.86 1.938C6.849-.071 6.04.156 5 .156Zm0 0" style="stroke:none" transform="translate(138.736 403.875)"/></g><g style="fill:#fff;fill-opacity:1"><path d="M3.422-1.266c0-.414.125-.75.375-1s.582-.375 1-.375c.414 0 .75.125 1 .375s.375.586.375 1c0 .43-.125.774-.375 1.032-.25.257-.586.39-1 .39-.418 0-.75-.133-1-.39-.25-.258-.375-.602-.375-1.032Zm0 0" style="stroke:none" transform="translate(148.322 403.875)"/></g><g style="fill:#fff;fill-opacity:1"><path d="M.719-11.516h8.156v1.266H5.531V0H4.063v-10.25H.719Zm0 0" style="stroke:none" transform="translate(167.495 403.875)"/></g><g style="fill:#fff;fill-opacity:1"><path d="M1.797-8.797h1.36v1.531h.124c.133-.53.422-.941.86-1.234.437-.3.972-.453 1.609-.453.926 0 1.656.293 2.188.875.53.586.796 1.383.796 2.39v.5H7.281v-.328c0-.687-.172-1.218-.515-1.593-.344-.383-.836-.579-1.47-.579-.636 0-1.14.2-1.515.594-.367.387-.547.914-.547 1.578V0H1.797Zm0 0" style="stroke:none" transform="translate(177.08 403.875)"/></g><g style="fill:#fff;fill-opacity:1"><path d="M1-2.563c0-.414.07-.789.219-1.124.144-.333.351-.614.625-.844.27-.239.597-.422.984-.547a3.946 3.946 0 0 1 1.297-.203H6.75V-6c0-.54-.184-.96-.547-1.266-.355-.3-.867-.453-1.531-.453-.492 0-.914.094-1.266.282-.344.18-.574.421-.687.734H1.28c.145-.688.524-1.234 1.14-1.64.614-.407 1.376-.61 2.282-.61 1.082 0 1.93.258 2.547.765.625.5.938 1.204.938 2.11V0H6.875v-1.672H6.75a2.25 2.25 0 0 1-.984 1.344c-.512.324-1.133.484-1.86.484-.886 0-1.594-.242-2.125-.734C1.258-1.066 1-1.727 1-2.563Zm3.219 1.547c.363 0 .695-.046 1-.14.312-.102.578-.242.797-.422.226-.176.406-.379.53-.61.134-.238.204-.492.204-.765v-1.203H4.156c-.531 0-.949.14-1.25.422-.304.273-.453.652-.453 1.14 0 .492.149.875.453 1.156.313.282.75.422 1.313.422Zm0 0" style="stroke:none" transform="translate(186.667 403.875)"/></g><g style="fill:#fff;fill-opacity:1"><path d="M4.922.156a4.34 4.34 0 0 1-1.469-.234A2.9 2.9 0 0 1 2.36-.766a3.036 3.036 0 0 1-.703-1.093 3.84 3.84 0 0 1-.25-1.422v-2.235c0-.52.082-.992.25-1.421.164-.426.399-.786.703-1.079.301-.3.664-.53 1.094-.687.438-.164.926-.25 1.469-.25.969 0 1.766.265 2.39.797.625.523 1 1.242 1.125 2.156H7a1.84 1.84 0 0 0-.688-1.219c-.375-.3-.84-.453-1.39-.453-.637 0-1.14.195-1.516.578-.375.387-.562.914-.562 1.578v2.235c0 .68.18 1.21.547 1.594.375.375.882.562 1.53.562.552 0 1.016-.148 1.391-.453.383-.3.614-.707.688-1.219h1.438c-.137.93-.516 1.652-1.141 2.172-.625.523-1.418.781-2.375.781Zm0 0" style="stroke:none" transform="translate(196.253 403.875)"/></g><g style="fill:#fff;fill-opacity:1"><path d="M2.922-11.672v6.563h1.734l2.688-3.688h1.64L5.86-4.547 9.031 0H7.36L4.672-3.844h-1.75V0H1.484v-11.672Zm0 0" style="stroke:none" transform="translate(205.839 403.875)"/></g><g style="fill:#fff;fill-opacity:1"><path d="m2.39-8.797 2.016 5.063c.102.242.18.468.235.687a5.232 5.232 0 0 1 .219 1.094h.109a3.36 3.36 0 0 1 .078-.531c.031-.164.07-.352.125-.563.062-.219.133-.445.219-.687l1.843-5.063h1.563L4.53 2.641H2.984l1.22-3.282L.796-8.797Zm0 0" style="stroke:none" transform="translate(225.011 403.875)"/></g><g style="fill:#fff;fill-opacity:1"><path d="M2.719-3.281c0 .68.18 1.21.547 1.594.363.375.875.562 1.53.562.634 0 1.141-.188 1.516-.563.375-.382.563-.914.563-1.593v-2.235c0-.664-.188-1.191-.563-1.578-.375-.383-.882-.578-1.515-.578-.637 0-1.14.195-1.516.578-.375.387-.562.914-.562 1.578ZM1.28-5.516c0-.53.082-1.004.25-1.421.164-.426.399-.786.703-1.079.301-.3.664-.53 1.094-.687.438-.164.926-.25 1.469-.25 1.082 0 1.937.308 2.562.922.633.605.954 1.437.954 2.5v2.25c0 .531-.086 1.011-.25 1.437-.157.43-.387.793-.688 1.094a3.052 3.052 0 0 1-1.11.672 4.36 4.36 0 0 1-1.468.234 4.34 4.34 0 0 1-1.469-.234 2.9 2.9 0 0 1-1.094-.688 3.036 3.036 0 0 1-.703-1.093 3.84 3.84 0 0 1-.25-1.422Zm0 0" style="stroke:none" transform="translate(234.597 403.875)"/></g><g style="fill:#fff;fill-opacity:1"><path d="M1.438-8.797h1.437v5.703c0 1.324.633 1.985 1.906 1.985 1.29 0 1.938-.66 1.938-1.985v-5.703h1.437v5.703c0 1.043-.293 1.844-.875 2.406-.586.563-1.418.844-2.5.844-1.062 0-1.886-.281-2.468-.844-.586-.57-.876-1.375-.876-2.406Zm0 0" style="stroke:none" transform="translate(244.183 403.875)"/></g><g style="fill:#fff;fill-opacity:1"><path d="M1.797-8.797h1.36v1.531h.124c.133-.53.422-.941.86-1.234.437-.3.972-.453 1.609-.453.926 0 1.656.293 2.188.875.53.586.796 1.383.796 2.39v.5H7.281v-.328c0-.687-.172-1.218-.515-1.593-.344-.383-.836-.579-1.47-.579-.636 0-1.14.2-1.515.594-.367.387-.547.914-.547 1.578V0H1.797Zm0 0" style="stroke:none" transform="translate(253.77 403.875)"/></g><g style="fill:#fff;fill-opacity:1"><path d="M4.984-11.672v9.11c0 .398.102.703.313.921.219.22.516.329.89.329h2.61V0h-2.61C5.364 0 4.72-.223 4.25-.672c-.469-.457-.703-1.086-.703-1.89v-7.797H.64v-1.313Zm0 0" style="stroke:none" transform="translate(272.941 403.875)"/></g><g style="fill:#fff;fill-opacity:1"><path d="M4.797.156c-1.094 0-1.953-.297-2.578-.89-.625-.594-.938-1.414-.938-2.47v-2.39c0-1.039.313-1.86.938-2.453.625-.601 1.484-.906 2.578-.906 1.094 0 1.953.305 2.578.906.625.594.938 1.414.938 2.453v1.61H2.718v.703c0 .68.18 1.21.547 1.594.363.375.875.562 1.53.562.477 0 .891-.07 1.235-.219.352-.144.617-.363.797-.656h1.438c-.188.68-.594 1.21-1.22 1.594-.616.375-1.366.562-2.25.562Zm2.078-5.328v-.422c0-.656-.184-1.164-.547-1.531-.367-.363-.875-.547-1.531-.547-.668 0-1.184.184-1.547.547-.355.367-.531.875-.531 1.531v.422Zm0 0" style="stroke:none" transform="translate(282.527 403.875)"/></g><g style="fill:#fff;fill-opacity:1"><path d="M1-2.563c0-.414.07-.789.219-1.124.144-.333.351-.614.625-.844.27-.239.597-.422.984-.547a3.946 3.946 0 0 1 1.297-.203H6.75V-6c0-.54-.184-.96-.547-1.266-.355-.3-.867-.453-1.531-.453-.492 0-.914.094-1.266.282-.344.18-.574.421-.687.734H1.28c.145-.688.524-1.234 1.14-1.64.614-.407 1.376-.61 2.282-.61 1.082 0 1.93.258 2.547.765.625.5.938 1.204.938 2.11V0H6.875v-1.672H6.75a2.25 2.25 0 0 1-.984 1.344c-.512.324-1.133.484-1.86.484-.886 0-1.594-.242-2.125-.734C1.258-1.066 1-1.727 1-2.563Zm3.219 1.547c.363 0 .695-.046 1-.14.312-.102.578-.242.797-.422.226-.176.406-.379.53-.61.134-.238.204-.492.204-.765v-1.203H4.156c-.531 0-.949.14-1.25.422-.304.273-.453.652-.453 1.14 0 .492.149.875.453 1.156.313.282.75.422 1.313.422Zm0 0" style="stroke:none" transform="translate(292.113 403.875)"/></g><g style="fill:#fff;fill-opacity:1"><path d="M1.797-8.797h1.36v1.531h.124c.133-.53.422-.941.86-1.234.437-.3.972-.453 1.609-.453.926 0 1.656.293 2.188.875.53.586.796 1.383.796 2.39v.5H7.281v-.328c0-.687-.172-1.218-.515-1.593-.344-.383-.836-.579-1.47-.579-.636 0-1.14.2-1.515.594-.367.387-.547.914-.547 1.578V0H1.797Zm0 0" style="stroke:none" transform="translate(301.7 403.875)"/></g><g style="fill:#fff;fill-opacity:1"><path d="M1.406 0v-8.797h1.36v1.531h.125c.132-.539.41-.957.828-1.25.426-.289.957-.437 1.594-.437.437 0 .832.078 1.187.234.352.149.656.356.906.625.25.274.442.602.578.985.145.375.22.796.22 1.265V0H6.765v-5.61c0-.675-.172-1.195-.516-1.562-.344-.375-.82-.562-1.422-.562-.605 0-1.09.203-1.453.609-.355.398-.531.934-.531 1.61V0Zm0 0" style="stroke:none" transform="translate(311.286 403.875)"/></g><g style="fill:#fff;fill-opacity:1"><path d="M1.516 0v-1.313h3.203v-6.171H1.922v-1.313h4.234v7.485h2.64V0ZM5.03-12.234h.328c.301 0 .547.093.735.28.195.18.297.415.297.704a.887.887 0 0 1-.297.688c-.188.167-.434.25-.735.25H5.03c-.304 0-.554-.083-.75-.25-.187-.165-.281-.395-.281-.688a.93.93 0 0 1 .281-.703c.196-.188.446-.281.75-.281Zm0 0" style="stroke:none" transform="translate(320.872 403.875)"/></g><g style="fill:#fff;fill-opacity:1"><path d="M1.406 0v-8.797h1.36v1.531h.125c.132-.539.41-.957.828-1.25.426-.289.957-.437 1.594-.437.437 0 .832.078 1.187.234.352.149.656.356.906.625.25.274.442.602.578.985.145.375.22.796.22 1.265V0H6.765v-5.61c0-.675-.172-1.195-.516-1.562-.344-.375-.82-.562-1.422-.562-.605 0-1.09.203-1.453.609-.355.398-.531.934-.531 1.61V0Zm0 0" style="stroke:none" transform="translate(330.458 403.875)"/></g><g style="fill:#fff;fill-opacity:1"><path d="M1.172-5.594c0-.508.066-.972.203-1.39.133-.414.332-.766.594-1.047.258-.29.578-.516.953-.672.375-.164.789-.25 1.25-.25.633 0 1.176.152 1.625.453.445.305.754.742.922 1.313h.11v-1.61h1.359V-.64c0 1.032-.31 1.832-.922 2.407-.606.582-1.454.875-2.547.875H2.562V1.328H4.72c.633 0 1.129-.172 1.484-.516.363-.343.547-.828.547-1.453v-.312l.063-1.61H6.72c-.168.575-.477 1.012-.922 1.313-.45.305-.992.453-1.625.453a3.21 3.21 0 0 1-1.25-.234 2.819 2.819 0 0 1-.938-.672 3.044 3.044 0 0 1-.609-1.063 4.427 4.427 0 0 1-.203-1.39ZM2.64-4.156c0 .656.18 1.172.546 1.547.364.375.868.562 1.516.562.633 0 1.133-.187 1.5-.562.363-.375.547-.891.547-1.547v-1.438c0-.656-.184-1.172-.547-1.547-.367-.375-.867-.562-1.5-.562-.648 0-1.152.187-1.516.562-.367.375-.546.891-.546 1.547Zm0 0" style="stroke:none" transform="translate(340.044 403.875)"/></g><g style="fill:#fff;fill-opacity:1"><path d="M5.516-7.484H1.844v-1.313h5.11v7.922c0 .512-.095.977-.282 1.406-.18.438-.43.813-.75 1.125a3.337 3.337 0 0 1-1.156.719c-.45.176-.946.266-1.485.266H1.36V1.312h1.922c.664 0 1.203-.203 1.61-.609.414-.406.625-.93.625-1.578Zm.718-4.75c.313 0 .563.093.75.28a.93.93 0 0 1 .282.704.901.901 0 0 1-.282.688c-.187.167-.437.25-.75.25h-.312c-.313 0-.57-.083-.766-.25-.187-.165-.281-.395-.281-.688a.93.93 0 0 1 .281-.703c.196-.188.453-.281.766-.281Zm0 0" style="stroke:none" transform="translate(359.216 403.875)"/></g><g style="fill:#fff;fill-opacity:1"><path d="M2.719-3.281c0 .68.18 1.21.547 1.594.363.375.875.562 1.53.562.634 0 1.141-.188 1.516-.563.375-.382.563-.914.563-1.593v-2.235c0-.664-.188-1.191-.563-1.578-.375-.383-.882-.578-1.515-.578-.637 0-1.14.195-1.516.578-.375.387-.562.914-.562 1.578ZM1.28-5.516c0-.53.082-1.004.25-1.421.164-.426.399-.786.703-1.079.301-.3.664-.53 1.094-.687.438-.164.926-.25 1.469-.25 1.082 0 1.937.308 2.562.922.633.605.954 1.437.954 2.5v2.25c0 .531-.086 1.011-.25 1.437-.157.43-.387.793-.688 1.094a3.052 3.052 0 0 1-1.11.672 4.36 4.36 0 0 1-1.468.234 4.34 4.34 0 0 1-1.469-.234 2.9 2.9 0 0 1-1.094-.688 3.036 3.036 0 0 1-.703-1.093 3.84 3.84 0 0 1-.25-1.422Zm0 0" style="stroke:none" transform="translate(368.802 403.875)"/></g><g style="fill:#fff;fill-opacity:1"><path d="M1.438-8.797h1.437v5.703c0 1.324.633 1.985 1.906 1.985 1.29 0 1.938-.66 1.938-1.985v-5.703h1.437v5.703c0 1.043-.293 1.844-.875 2.406-.586.563-1.418.844-2.5.844-1.062 0-1.886-.281-2.468-.844-.586-.57-.876-1.375-.876-2.406Zm0 0" style="stroke:none" transform="translate(378.388 403.875)"/></g><g style="fill:#fff;fill-opacity:1"><path d="M1.797-8.797h1.36v1.531h.124c.133-.53.422-.941.86-1.234.437-.3.972-.453 1.609-.453.926 0 1.656.293 2.188.875.53.586.796 1.383.796 2.39v.5H7.281v-.328c0-.687-.172-1.218-.515-1.593-.344-.383-.836-.579-1.47-.579-.636 0-1.14.2-1.515.594-.367.387-.547.914-.547 1.578V0H1.797Zm0 0" style="stroke:none" transform="translate(387.974 403.875)"/></g><g style="fill:#fff;fill-opacity:1"><path d="M1.406 0v-8.797h1.36v1.531h.125c.132-.539.41-.957.828-1.25.426-.289.957-.437 1.594-.437.437 0 .832.078 1.187.234.352.149.656.356.906.625.25.274.442.602.578.985.145.375.22.796.22 1.265V0H6.765v-5.61c0-.675-.172-1.195-.516-1.562-.344-.375-.82-.562-1.422-.562-.605 0-1.09.203-1.453.609-.355.398-.531.934-.531 1.61V0Zm0 0" style="stroke:none" transform="translate(397.56 403.875)"/></g><g style="fill:#fff;fill-opacity:1"><path d="M4.797.156c-1.094 0-1.953-.297-2.578-.89-.625-.594-.938-1.414-.938-2.47v-2.39c0-1.039.313-1.86.938-2.453.625-.601 1.484-.906 2.578-.906 1.094 0 1.953.305 2.578.906.625.594.938 1.414.938 2.453v1.61H2.718v.703c0 .68.18 1.21.547 1.594.363.375.875.562 1.53.562.477 0 .891-.07 1.235-.219.352-.144.617-.363.797-.656h1.438c-.188.68-.594 1.21-1.22 1.594-.616.375-1.366.562-2.25.562Zm2.078-5.328v-.422c0-.656-.184-1.164-.547-1.531-.367-.363-.875-.547-1.531-.547-.668 0-1.184.184-1.547.547-.355.367-.531.875-.531 1.531v.422Zm0 0" style="stroke:none" transform="translate(407.146 403.875)"/></g><g style="fill:#fff;fill-opacity:1"><path d="m2.39-8.797 2.016 5.063c.102.242.18.468.235.687a5.232 5.232 0 0 1 .219 1.094h.109a3.36 3.36 0 0 1 .078-.531c.031-.164.07-.352.125-.563.062-.219.133-.445.219-.687l1.843-5.063h1.563L4.53 2.641H2.984l1.22-3.282L.796-8.797Zm0 0" style="stroke:none" transform="translate(416.732 403.875)"/></g><g style="fill:#fff;fill-opacity:1"><path d="M3.422-1.266c0-.414.125-.75.375-1s.582-.375 1-.375c.414 0 .75.125 1 .375s.375.586.375 1c0 .43-.125.774-.375 1.032-.25.257-.586.39-1 .39-.418 0-.75-.133-1-.39-.25-.258-.375-.602-.375-1.032Zm0 0" style="stroke:none" transform="translate(426.318 403.875)"/></g></svg>