<svg xmlns="http://www.w3.org/2000/svg" width="1411" height="366" version="1.2" viewBox="0 0 1058.25 274.5"><g style="fill:#fff;fill-opacity:1"><path d="M69.547-136.516h48.64v30.828H80.5c-7.305 0-13.898 1.774-19.781 5.313-5.887 3.543-10.512 8.086-13.875 13.625-3.367 5.531-5.047 11.266-5.047 17.203 0 7.313 1.656 13.914 4.969 19.797 3.312 5.875 7.906 10.5 13.78 13.875 5.884 3.367 12.536 5.047 19.954 5.047h37.688V0H69.203c-9.71 0-18.648-1.797-26.812-5.39-8.168-3.602-15.22-8.57-21.157-14.907C15.297-26.629 10.672-33.992 7.36-42.39c-3.312-8.394-4.968-17.445-4.968-27.156 0-9.02 1.828-17.55 5.484-25.594a71.454 71.454 0 0 1 14.906-21.406c6.282-6.226 13.442-11.113 21.485-14.656 8.05-3.54 16.476-5.313 25.28-5.313Zm0 0" style="stroke:none" transform="translate(56.323 189.316)"/></g><g style="fill:#fff;fill-opacity:1"><path d="M122.64-30.828V0H61.829C54.18 0 46.79-1.195 39.656-3.594 32.52-5.988 26.148-9.5 20.546-14.125c-5.593-4.625-10.023-10.219-13.28-16.781-3.25-6.57-4.875-14.024-4.875-22.36 0-6.738 1.566-13.25 4.703-19.53 3.144-6.282 7.457-11.9 12.937-16.86 5.489-4.969 11.828-8.88 19.016-11.735 7.195-2.863 14.848-4.296 22.953-4.296h60.64v30.843l-23.984 35.11H57.891l25.359-35.11h-18.5c-6.855 0-12.398 2-16.625 6-4.219 3.992-6.328 9.07-6.328 15.235 0 4.336 1.023 8.246 3.078 11.734 2.05 3.48 4.816 6.195 8.297 8.14 3.488 1.938 7.348 2.907 11.578 2.907Zm0 0" style="stroke:none" transform="translate(176.908 189.316)"/></g><g style="fill:#fff;fill-opacity:1"><path d="m53.953-74.844 18.672 55.14 22.61-31.858c1.706-2.508 2.847-4.79 3.421-6.844.57-2.051.86-3.992.86-5.828 0-3.313-1.43-5.907-4.282-7.782-2.855-1.882-6.34-2.828-10.453-2.828ZM0-105.688h43.156l9.594 28.094h.344v-28.094h41.968c8.907 0 16.641 1.829 23.204 5.485 6.57 3.656 11.656 8.57 15.25 14.734 3.593 6.168 5.39 13.133 5.39 20.89 0 5.15-1.086 10.032-3.25 14.657-2.168 4.625-5.71 10.133-10.625 16.516L75.703 30.828H33.406L55.844 0H39.562Zm0 0" style="stroke:none" transform="translate(303.66 189.316)"/></g><g style="fill:#fff;fill-opacity:1"><path d="M12.844-38.36v-30.843h20.218c5.02 0 9.383-1.508 13.094-4.531 3.719-3.032 5.578-7.457 5.578-13.282 0-3.875-.976-7.21-2.922-10.015-1.937-2.801-4.367-4.942-7.28-6.422-2.907-1.488-5.903-2.234-8.985-2.234H3.422v-30.829H43.5c6.508 0 12.645 1.262 18.406 3.782 5.77 2.511 10.82 5.996 15.157 10.453a51.086 51.086 0 0 1 10.28 15.234c2.52 5.711 3.782 11.82 3.782 18.328 0 10.274-2.031 19.18-6.094 26.719-4.054 7.531-9.59 13.355-16.61 17.469-7.023 4.117-14.984 6.172-23.89 6.172Zm35.797 7.532V0H12.844v-30.828Zm0 0" style="stroke:none" transform="translate(444.97 189.316)"/></g><g style="fill:#fff;fill-opacity:1"><path d="M3.766-105.688h35.968v58.25c0 2.743.344 5.399 1.032 7.97.687 2.562 2.113 4.648 4.28 6.25 2.165 1.593 5.364 2.39 9.595 2.39h19.703v-74.86h35.969V0H46.078c-7.543 0-14.512-1.797-20.906-5.39-6.387-3.602-11.555-8.458-15.5-14.563-3.938-6.113-5.906-12.992-5.906-20.64Zm0 0" style="stroke:none" transform="translate(538.492 189.316)"/></g><g style="fill:#fff;fill-opacity:1"><path d="M122.64-30.828V0H61.829C54.18 0 46.79-1.195 39.656-3.594 32.52-5.988 26.148-9.5 20.546-14.125c-5.593-4.625-10.023-10.219-13.28-16.781-3.25-6.57-4.875-14.024-4.875-22.36 0-6.738 1.566-13.25 4.703-19.53 3.144-6.282 7.457-11.9 12.937-16.86 5.489-4.969 11.828-8.88 19.016-11.735 7.195-2.863 14.848-4.296 22.953-4.296h60.64v30.843l-23.984 35.11H57.891l25.359-35.11h-18.5c-6.855 0-12.398 2-16.625 6-4.219 3.992-6.328 9.07-6.328 15.235 0 4.336 1.023 8.246 3.078 11.734 2.05 3.48 4.816 6.195 8.297 8.14 3.488 1.938 7.348 2.907 11.578 2.907Zm0 0" style="stroke:none" transform="translate(652.911 189.316)"/></g><g style="fill:#fff;fill-opacity:1"><path d="M6.844-105.688h37.172c-1.48 3.43-2.22 6.626-2.22 9.594.114 3.43 1.368 6.602 3.767 9.516 2.394 2.906 5.476 5.762 9.25 8.562a540.58 540.58 0 0 1 11.984 9.157c4.226 3.312 8.195 7.168 11.906 11.562 3.707 4.399 6.758 9.54 9.156 15.422 2.407 5.875 3.61 12.813 3.61 20.813 0 8.68-1.574 16.265-4.719 22.765-3.137 6.508-7.39 11.906-12.766 16.188-5.367 4.289-11.476 7.52-18.328 9.687-6.843 2.164-14.039 3.25-21.578 3.25H1.718V0H24.5c4.79 0 9.27-.625 13.438-1.875 4.164-1.258 7.562-3.398 10.187-6.422 2.625-3.031 3.938-7.055 3.938-12.078 0-3.883-1.141-7.54-3.422-10.969-2.282-3.426-5.25-6.797-8.907-10.11a361.023 361.023 0 0 0-11.656-10.093 126.295 126.295 0 0 1-11.64-11.047c-3.65-3.945-6.618-8.258-8.908-12.936-2.28-4.69-3.42-9.943-3.42-15.767 0-4.332.91-9.129 2.735-14.39Zm0 0" style="stroke:none" transform="translate(779.662 189.316)"/></g><g style="fill:#fff;fill-opacity:1"><path d="M40.078-136.516v30.828h35.453v30.844H40.078v32.703c0 4 1.082 6.887 3.25 8.657 2.176 1.773 5.203 2.656 9.078 2.656h23.125V0H40.078c-4.117 0-8.289-.797-12.516-2.39-4.218-1.602-8.101-3.891-11.64-6.86a35.683 35.683 0 0 1-8.563-10.531c-2.168-4.051-3.25-8.477-3.25-13.282v-103.453Zm0 0" style="stroke:none" transform="translate(874.897 189.316)"/></g><g style="fill:#fff;fill-opacity:1"><path d="M5.14-30.828h35.97V0H5.14Zm0 0" style="stroke:none" transform="translate(954.545 189.316)"/></g><g style="fill:#8c52ff;fill-opacity:1"><path d="M12.844-38.36v-30.843h20.218c5.02 0 9.383-1.508 13.094-4.531 3.719-3.032 5.578-7.457 5.578-13.282 0-3.875-.976-7.21-2.922-10.015-1.937-2.801-4.367-4.942-7.28-6.422-2.907-1.488-5.903-2.234-8.985-2.234H3.422v-30.829H43.5c6.508 0 12.645 1.262 18.406 3.782 5.77 2.511 10.82 5.996 15.157 10.453a51.086 51.086 0 0 1 10.28 15.234c2.52 5.711 3.782 11.82 3.782 18.328 0 10.274-2.031 19.18-6.094 26.719-4.054 7.531-9.59 13.355-16.61 17.469-7.023 4.117-14.984 6.172-23.89 6.172Zm35.797 7.532V0H12.844v-30.828Zm0 0" style="stroke:none" transform="translate(445.836 189.316)"/></g></svg>