<svg xmlns="http://www.w3.org/2000/svg" width="258" height="69" version="1.2" viewBox="0 0 193.5 51.75"><g style="fill:#fff;fill-opacity:1"><path d="M12.984-25.5h9.094v5.75h-7.031c-1.375 0-2.61.336-3.703 1-1.094.656-1.961 1.508-2.594 2.547-.625 1.031-.938 2.105-.938 3.219 0 1.367.305 2.601.922 3.703a6.688 6.688 0 0 0 2.563 2.578c1.101.625 2.351.937 3.75.937h7.031V0h-9.156c-1.813 0-3.485-.332-5.016-1a12.136 12.136 0 0 1-3.953-2.781 12.916 12.916 0 0 1-2.578-4.125c-.617-1.57-.922-3.266-.922-5.078 0-1.688.336-3.282 1.016-4.782a13.405 13.405 0 0 1 2.781-4A13.177 13.177 0 0 1 8.266-24.5a11.59 11.59 0 0 1 4.718-1Zm0 0" style="stroke:none" transform="translate(12.216 35.296)"/></g><g style="fill:#fff;fill-opacity:1"><path d="M22.906-5.766V0h-11.36c-1.429 0-2.808-.223-4.14-.672A11.058 11.058 0 0 1 3.828-2.64 9.435 9.435 0 0 1 1.36-5.766C.754-6.992.453-8.39.453-9.953c0-1.258.29-2.473.875-3.64a10.588 10.588 0 0 1 2.406-3.157 11.75 11.75 0 0 1 3.563-2.188 11.391 11.391 0 0 1 4.281-.812h11.328v5.766l-4.468 6.562h-7.625l4.734-6.562h-3.453c-1.281 0-2.32.375-3.11 1.125-.78.742-1.171 1.687-1.171 2.843 0 .813.187 1.547.562 2.204a4.086 4.086 0 0 0 1.547 1.515 4.48 4.48 0 0 0 2.172.531Zm0 0" style="stroke:none" transform="translate(34.746 35.296)"/></g><g style="fill:#fff;fill-opacity:1"><path d="m10.078-13.984 3.485 10.296 4.234-5.937c.312-.477.52-.906.625-1.281.113-.383.172-.75.172-1.094 0-.613-.274-1.098-.813-1.453-.531-.352-1.18-.531-1.937-.531ZM0-19.75h8.063l1.796 5.25h.063v-5.25h7.844c1.656 0 3.097.344 4.328 1.031 1.226.68 2.176 1.594 2.843 2.75.676 1.156 1.016 2.461 1.016 3.906a6.34 6.34 0 0 1-.61 2.735c-.405.867-1.07 1.898-1.984 3.094l-9.218 12H6.234L10.438 0H7.39Zm0 0" style="stroke:none" transform="translate(58.427 35.296)"/></g><g style="fill:#8c52ff;fill-opacity:1"><path d="M2.406-7.172v-5.75h3.766c.937 0 1.75-.281 2.437-.844.696-.57 1.047-1.398 1.047-2.484 0-.727-.183-1.352-.547-1.875a3.626 3.626 0 0 0-1.359-1.203 3.598 3.598 0 0 0-1.672-.422H.641v-5.75h7.484c1.219 0 2.363.234 3.438.703a8.71 8.71 0 0 1 2.828 1.953A9.616 9.616 0 0 1 16.312-20a8.267 8.267 0 0 1 .72 3.422c0 1.918-.384 3.586-1.141 5-.762 1.406-1.797 2.496-3.11 3.265-1.312.762-2.804 1.141-4.469 1.141Zm6.688 1.406V0H2.406v-5.766Zm0 0" style="stroke:none" transform="translate(84.838 35.296)"/></g><g style="fill:#fff;fill-opacity:1"><path d="M.703-19.75h6.719v10.89c0 .512.062 1.008.187 1.485.133.48.407.871.813 1.172.406.293 1 .437 1.781.437h3.688V-19.75h6.718V0h-12a7.88 7.88 0 0 1-3.906-1 8.225 8.225 0 0 1-2.906-2.719C1.067-4.863.703-6.149.703-7.579Zm0 0" style="stroke:none" transform="translate(102.32 35.296)"/></g><g style="fill:#fff;fill-opacity:1"><path d="M22.906-5.766V0h-11.36c-1.429 0-2.808-.223-4.14-.672A11.058 11.058 0 0 1 3.828-2.64 9.435 9.435 0 0 1 1.36-5.766C.754-6.992.453-8.39.453-9.953c0-1.258.29-2.473.875-3.64a10.588 10.588 0 0 1 2.406-3.157 11.75 11.75 0 0 1 3.563-2.188 11.391 11.391 0 0 1 4.281-.812h11.328v5.766l-4.468 6.562h-7.625l4.734-6.562h-3.453c-1.281 0-2.32.375-3.11 1.125-.78.742-1.171 1.687-1.171 2.843 0 .813.187 1.547.562 2.204a4.086 4.086 0 0 0 1.547 1.515 4.48 4.48 0 0 0 2.172.531Zm0 0" style="stroke:none" transform="translate(123.697 35.296)"/></g><g style="fill:#fff;fill-opacity:1"><path d="M1.281-19.75H8.22c-.274.648-.406 1.246-.406 1.797.019.648.253 1.242.703 1.781.445.543 1.02 1.074 1.718 1.594a75.075 75.075 0 0 1 2.235 1.719 15.439 15.439 0 0 1 2.234 2.156c.695.824 1.27 1.789 1.719 2.89.445 1.094.672 2.387.672 3.875 0 1.626-.297 3.043-.89 4.25a8.563 8.563 0 0 1-2.392 3.032c-1 .8-2.14 1.406-3.421 1.812a13.12 13.12 0 0 1-4.016.61H.312V0h4.266a8.71 8.71 0 0 0 2.5-.344c.781-.238 1.414-.64 1.906-1.203.5-.57.75-1.328.75-2.266 0-.718-.214-1.394-.64-2.03-.43-.645-.985-1.274-1.672-1.891A55.099 55.099 0 0 0 5.25-9.625a24.825 24.825 0 0 1-2.188-2.063 10.06 10.06 0 0 1-1.656-2.421c-.43-.875-.64-1.86-.64-2.954 0-.8.171-1.695.515-2.687Zm0 0" style="stroke:none" transform="translate(147.379 35.296)"/></g><g style="fill:#fff;fill-opacity:1"><path d="M7.484-25.5v5.75h6.625v5.766H7.484v6.109c0 .75.204 1.293.61 1.625.406.324.972.484 1.703.484h4.312V0H7.484a6.663 6.663 0 0 1-2.328-.438 7.59 7.59 0 0 1-2.187-1.28 6.907 6.907 0 0 1-1.594-1.97 5.175 5.175 0 0 1-.61-2.484V-25.5Zm0 0" style="stroke:none" transform="translate(165.172 35.296)"/></g><g style="fill:#fff;fill-opacity:1"><path d="M12.984-25.5h9.094v5.75h-7.031c-1.375 0-2.61.336-3.703 1-1.094.656-1.961 1.508-2.594 2.547-.625 1.031-.938 2.105-.938 3.219 0 1.367.305 2.601.922 3.703a6.688 6.688 0 0 0 2.563 2.578c1.101.625 2.351.937 3.75.937h7.031V0h-9.156c-1.813 0-3.485-.332-5.016-1a12.136 12.136 0 0 1-3.953-2.781 12.916 12.916 0 0 1-2.578-4.125c-.617-1.57-.922-3.266-.922-5.078 0-1.688.336-3.282 1.016-4.782a13.405 13.405 0 0 1 2.781-4A13.177 13.177 0 0 1 8.266-24.5a11.59 11.59 0 0 1 4.718-1Zm0 0" style="stroke:none" transform="translate(12.216 35.296)"/></g><g style="fill:#fff;fill-opacity:1"><path d="M22.906-5.766V0h-11.36c-1.429 0-2.808-.223-4.14-.672A11.058 11.058 0 0 1 3.828-2.64 9.435 9.435 0 0 1 1.36-5.766C.754-6.992.453-8.39.453-9.953c0-1.258.29-2.473.875-3.64a10.588 10.588 0 0 1 2.406-3.157 11.75 11.75 0 0 1 3.563-2.188 11.391 11.391 0 0 1 4.281-.812h11.328v5.766l-4.468 6.562h-7.625l4.734-6.562h-3.453c-1.281 0-2.32.375-3.11 1.125-.78.742-1.171 1.687-1.171 2.843 0 .813.187 1.547.562 2.204a4.086 4.086 0 0 0 1.547 1.515 4.48 4.48 0 0 0 2.172.531Zm0 0" style="stroke:none" transform="translate(34.746 35.296)"/></g><g style="fill:#fff;fill-opacity:1"><path d="m10.078-13.984 3.485 10.296 4.234-5.937c.312-.477.52-.906.625-1.281.113-.383.172-.75.172-1.094 0-.613-.274-1.098-.813-1.453-.531-.352-1.18-.531-1.937-.531ZM0-19.75h8.063l1.796 5.25h.063v-5.25h7.844c1.656 0 3.097.344 4.328 1.031 1.226.68 2.176 1.594 2.843 2.75.676 1.156 1.016 2.461 1.016 3.906a6.34 6.34 0 0 1-.61 2.735c-.405.867-1.07 1.898-1.984 3.094l-9.218 12H6.234L10.438 0H7.39Zm0 0" style="stroke:none" transform="translate(58.427 35.296)"/></g><g style="fill:#8c52ff;fill-opacity:1"><path d="M2.406-7.172v-5.75h3.766c.937 0 1.75-.281 2.437-.844.696-.57 1.047-1.398 1.047-2.484 0-.727-.183-1.352-.547-1.875a3.626 3.626 0 0 0-1.359-1.203 3.598 3.598 0 0 0-1.672-.422H.641v-5.75h7.484c1.219 0 2.363.234 3.438.703a8.71 8.71 0 0 1 2.828 1.953A9.616 9.616 0 0 1 16.312-20a8.267 8.267 0 0 1 .72 3.422c0 1.918-.384 3.586-1.141 5-.762 1.406-1.797 2.496-3.11 3.265-1.312.762-2.804 1.141-4.469 1.141Zm6.688 1.406V0H2.406v-5.766Zm0 0" style="stroke:none" transform="translate(84.838 35.296)"/></g><g style="fill:#fff;fill-opacity:1"><path d="M.703-19.75h6.719v10.89c0 .512.062 1.008.187 1.485.133.48.407.871.813 1.172.406.293 1 .437 1.781.437h3.688V-19.75h6.718V0h-12a7.88 7.88 0 0 1-3.906-1 8.225 8.225 0 0 1-2.906-2.719C1.067-4.863.703-6.149.703-7.579Zm0 0" style="stroke:none" transform="translate(102.32 35.296)"/></g><g style="fill:#fff;fill-opacity:1"><path d="M22.906-5.766V0h-11.36c-1.429 0-2.808-.223-4.14-.672A11.058 11.058 0 0 1 3.828-2.64 9.435 9.435 0 0 1 1.36-5.766C.754-6.992.453-8.39.453-9.953c0-1.258.29-2.473.875-3.64a10.588 10.588 0 0 1 2.406-3.157 11.75 11.75 0 0 1 3.563-2.188 11.391 11.391 0 0 1 4.281-.812h11.328v5.766l-4.468 6.562h-7.625l4.734-6.562h-3.453c-1.281 0-2.32.375-3.11 1.125-.78.742-1.171 1.687-1.171 2.843 0 .813.187 1.547.562 2.204a4.086 4.086 0 0 0 1.547 1.515 4.48 4.48 0 0 0 2.172.531Zm0 0" style="stroke:none" transform="translate(123.697 35.296)"/></g><g style="fill:#fff;fill-opacity:1"><path d="M1.281-19.75H8.22c-.274.648-.406 1.246-.406 1.797.019.648.253 1.242.703 1.781.445.543 1.02 1.074 1.718 1.594a75.075 75.075 0 0 1 2.235 1.719 15.439 15.439 0 0 1 2.234 2.156c.695.824 1.27 1.789 1.719 2.89.445 1.094.672 2.387.672 3.875 0 1.626-.297 3.043-.89 4.25a8.563 8.563 0 0 1-2.392 3.032c-1 .8-2.14 1.406-3.421 1.812a13.12 13.12 0 0 1-4.016.61H.312V0h4.266a8.71 8.71 0 0 0 2.5-.344c.781-.238 1.414-.64 1.906-1.203.5-.57.75-1.328.75-2.266 0-.718-.214-1.394-.64-2.03-.43-.645-.985-1.274-1.672-1.891A55.099 55.099 0 0 0 5.25-9.625a24.825 24.825 0 0 1-2.188-2.063 10.06 10.06 0 0 1-1.656-2.421c-.43-.875-.64-1.86-.64-2.954 0-.8.171-1.695.515-2.687Zm0 0" style="stroke:none" transform="translate(147.379 35.296)"/></g><g style="fill:#fff;fill-opacity:1"><path d="M7.484-25.5v5.75h6.625v5.766H7.484v6.109c0 .75.204 1.293.61 1.625.406.324.972.484 1.703.484h4.312V0H7.484a6.663 6.663 0 0 1-2.328-.438 7.59 7.59 0 0 1-2.187-1.28 6.907 6.907 0 0 1-1.594-1.97 5.175 5.175 0 0 1-.61-2.484V-25.5Zm0 0" style="stroke:none" transform="translate(165.172 35.296)"/></g></svg>